<svg xmlns="http://www.w3.org/2000/svg" width="18" height="18" viewBox="0 0 18 18"><defs><style>.a{fill:none;}.b{fill:#1d1d1b;}</style></defs><rect class="a" width="18" height="18"/><g transform="translate(2.25 1.5)"><path class="b" d="M13.2,3.75c-.586-1.014-2.137-1.11-3.95-.659C8.735,1.3,7.876,0,6.705,0S4.676,1.3,4.16,3.091C2.347,2.64.8,2.736.21,3.75s.107,2.405,1.4,3.75c-1.3,1.345-1.99,2.736-1.4,3.75a2.248,2.248,0,0,0,2.1.917,7.84,7.84,0,0,0,1.853-.259C4.676,13.7,5.534,15,6.705,15s2.03-1.3,2.545-3.092a7.839,7.839,0,0,0,1.853.259,2.248,2.248,0,0,0,2.1-.917c.586-1.014-.107-2.405-1.4-3.75C13.093,6.155,13.786,4.764,13.2,3.75Zm-2.086.018c.648,0,1.1.153,1.274.451.294.51-.19,1.515-1.268,2.634a16.177,16.177,0,0,0-1.385-1.1A16.2,16.2,0,0,0,9.474,4,7.008,7.008,0,0,1,11.115,3.768ZM7.794,9.386q-.551.318-1.089.579Q6.169,9.7,5.617,9.386c-.367-.212-.716-.431-1.046-.653-.028-.4-.043-.808-.043-1.233s.015-.835.043-1.233c.33-.222.679-.441,1.046-.653s.731-.4,1.089-.579c.358.175.721.367,1.089.579s.716.431,1.046.653c.028.4.043.808.043,1.233s-.015.835-.043,1.233C8.51,8.955,8.161,9.174,7.794,9.386Zm.92.542q-.061.421-.14.809-.375-.125-.771-.284c.154-.083.308-.168.459-.255S8.564,10.02,8.714,9.928Zm-3.107.526q-.395.158-.771.284-.079-.388-.14-.809c.149.092.3.183.451.27S5.453,10.37,5.607,10.453ZM3.6,8.026q-.334-.263-.631-.526.3-.262.631-.526c-.005.175-.008.351-.008.526S3.594,7.85,3.6,8.026ZM5.148,4.8c-.151.087-.3.178-.451.27.04-.28.087-.55.139-.809q.375.125.77.283Q5.375,4.672,5.148,4.8ZM7.8,4.547q.395-.158.77-.283c.053.258.1.528.139.809-.149-.092-.3-.183-.451-.27S7.958,4.63,7.8,4.547ZM9.812,6.974q.334.263.631.526-.3.262-.631.526c.005-.175.008-.351.008-.526S9.817,7.15,9.812,6.974ZM6.705.937c.589,0,1.217.922,1.647,2.414A16.21,16.21,0,0,0,6.705,4a16.18,16.18,0,0,0-1.647-.648C5.488,1.859,6.116.937,6.705.937ZM1.022,4.219c.172-.3.625-.451,1.274-.451A7.014,7.014,0,0,1,3.936,4a16.2,16.2,0,0,0-.262,1.75,16.177,16.177,0,0,0-1.385,1.1C1.212,5.734.728,4.729,1.022,4.219Zm0,6.563c-.294-.51.19-1.515,1.268-2.634a16.176,16.176,0,0,0,1.385,1.1A16.214,16.214,0,0,0,3.936,11C2.429,11.374,1.316,11.291,1.022,10.781Zm5.683,3.281c-.589,0-1.217-.922-1.647-2.415A16.187,16.187,0,0,0,6.705,11a16.174,16.174,0,0,0,1.647.648C7.922,13.141,7.294,14.062,6.705,14.062Zm5.683-3.281c-.294.51-1.407.593-2.915.219a16.208,16.208,0,0,0,.262-1.75,16.176,16.176,0,0,0,1.385-1.1C12.2,9.266,12.683,10.271,12.389,10.781Z" transform="translate(0)"/></g></svg>