<svg xmlns="http://www.w3.org/2000/svg" width="28" height="28" viewBox="0 0 28 28"><defs><style>.a{fill:none;}.b{fill:#fff;}</style></defs><g transform="translate(-769.602 -253.637)"><rect class="a" width="28" height="28" transform="translate(769.602 253.637)"/><g transform="translate(772.602 253.637)"><path class="b" d="M777.9,257.768a10.254,10.254,0,0,1,.009-1.192,1.067,1.067,0,0,1,1.159-.935,1.09,1.09,0,0,1,1.039,1.071c.012.23,0,.461.006.691,0,.108,0,.215,0,.343h2.017c0-.33-.005-.645,0-.961a1.117,1.117,0,1,1,2.233-.025c.014.317,0,.636,0,.98h2c0-.344-.017-.683,0-1.018a1.116,1.116,0,1,1,2.23.069c.006.306,0,.613,0,.948h2.026c0-.362-.018-.732,0-1.1a1.071,1.071,0,0,1,.94-.99,1.087,1.087,0,0,1,1.2.71,2.044,2.044,0,0,1,.082.549c.013.272,0,.545,0,.859h1.89c.978,0,1.378.4,1.378,1.376q0,11.572,0,23.145c0,.933-.415,1.347-1.347,1.347H775.944c-.913,0-1.34-.416-1.34-1.322q0-11.622,0-23.244a1.147,1.147,0,0,1,1.319-1.3Zm15.966,23.612v-14.43h-17v14.43Zm-13.753-21.359c0,.156,0,.275,0,.395,0,.23.006.461-.009.691a1.1,1.1,0,0,1-1.038,1.042,1.078,1.078,0,0,1-1.152-.909c-.057-.4-.043-.8-.061-1.21h-.979v4.632h16.99V260.03h-1.008c0,.329.009.635,0,.941a1.12,1.12,0,1,1-2.236-.019c-.005-.3,0-.608,0-.922h-2.021c0,.372.012.721,0,1.07a1.083,1.083,0,0,1-.868,1.023,1.119,1.119,0,0,1-1.361-1.133c-.011-.323,0-.647,0-.957h-2c0,.343.011.661,0,.979a1.118,1.118,0,1,1-2.234-.033c-.006-.314,0-.629,0-.957Z" transform="translate(-774.602 -255.637)"/><path class="b" d="M880.875,463.888h-.4c-1.032,0-2.063,0-3.095,0a2.236,2.236,0,0,1-.586-.066,1.108,1.108,0,0,1,.216-2.159,2.881,2.881,0,0,1,.3-.012c1.975,0,3.951.005,5.927,0a1.138,1.138,0,0,1,.835,2.03,13.531,13.531,0,0,0-3.9,7.378,1.124,1.124,0,0,1-1.057,1.035,1.074,1.074,0,0,1-1.136-.805,1.517,1.517,0,0,1-.009-.616,15.808,15.808,0,0,1,2.752-6.516C880.76,464.084,880.8,464.009,880.875,463.888Z" transform="translate(-869.339 -448.077)"/></g></g></svg>