<svg xmlns="http://www.w3.org/2000/svg" width="28" height="28" viewBox="0 0 28 28"><defs><style>.a{fill:none;}.b{fill:#fff;}</style></defs><g transform="translate(-518.899 -301.086)"><rect class="a" width="28" height="28" transform="translate(518.899 301.086)"/><g transform="translate(518.899 303.086)"><path class="b" d="M526.335,314.262v-.378q0-4.567,0-9.134a1.487,1.487,0,0,1,1.675-1.663H537.8a1.484,1.484,0,0,1,1.652,1.658q0,4.567,0,9.134v.382h.35c1.827,0,3.654.028,5.48-.011a1.548,1.548,0,0,1,1.616,1.616q-.045,4.938,0,9.876a1.558,1.558,0,0,1-1.634,1.629q-4.938-.046-9.876,0a1.548,1.548,0,0,1-1.613-1.62c.029-3.054.011-6.108.011-9.163v-.362H532v.328q0,4.61,0,9.22a1.446,1.446,0,0,1-1.061,1.532,2.012,2.012,0,0,1-.508.051q-4.981,0-9.962,0a1.441,1.441,0,0,1-1.568-1.583q0-4.952,0-9.9a1.447,1.447,0,0,1,1.6-1.609q2.726,0,5.452,0Zm9.411,11.135h9.183v-9.178h-9.183Zm-7.453-11.152h9.2v-9.2h-9.2Zm1.744,11.161V316.22h-9.172v9.185Z" transform="translate(-518.899 -303.086)"/><path class="b" d="M847.469,559.273a3.406,3.406,0,0,1,.39-1.983,2.756,2.756,0,0,1,4.258-.562.852.852,0,0,1,.07,1.224.834.834,0,0,1-1.222.036,1.048,1.048,0,0,0-1.791.824c0,.314-.007.628,0,.941a1.037,1.037,0,0,0,1.99.449.872.872,0,0,1,.956-.507.852.852,0,0,1,.583,1.245,2.618,2.618,0,0,1-2.209,1.582,2.653,2.653,0,0,1-2.605-1.255A3.135,3.135,0,0,1,847.469,559.273Z" transform="translate(-828.7 -541.526)"/><path class="b" d="M719.574,364.806h-2.035c0,.352.012.693,0,1.031a.852.852,0,0,1-1.67.234,1.017,1.017,0,0,1-.036-.281c0-1-.013-2,0-3a2.743,2.743,0,0,1,5.395-.664,2.162,2.162,0,0,1,.085.533q.014,1.584.005,3.168a.848.848,0,0,1-1.618.353,1.468,1.468,0,0,1-.087-.471c-.015-.275-.007-.551-.01-.827A.351.351,0,0,0,719.574,364.806Zm-2.019-1.748h2.04a1.037,1.037,0,0,0-.481-1.094.963.963,0,0,0-1.078,0A1.035,1.035,0,0,0,717.555,363.058Z" transform="translate(-704.58 -356.831)"/><path class="b" d="M585.305,559.067c0-.751,0-1.5,0-2.253,0-.694.321-1.008,1.016-1.009.78,0,1.559-.006,2.339,0a2.07,2.07,0,0,1,1.844,3.156.333.333,0,0,0,0,.273,2.069,2.069,0,0,1-1.848,3.153c-.8.008-1.6,0-2.4,0a.86.86,0,0,1-.955-.954C585.3,560.645,585.305,559.856,585.305,559.067Zm1.729-.833c.595,0,1.162.009,1.729,0a.3.3,0,0,0,.319-.357c-.027-.132-.193-.327-.306-.334-.574-.034-1.151-.016-1.743-.016Zm.039,2.442c.506,0,1.034,0,1.563,0,.285,0,.456-.135.462-.35s-.17-.366-.475-.369c-.341,0-.682,0-1.024,0-.656,0-.656,0-.564.666C587.037,560.629,587.046,560.637,587.073,560.676Z" transform="translate(-581.512 -541.373)"/></g></g></svg>