<svg xmlns="http://www.w3.org/2000/svg" width="28" height="28" viewBox="0 0 28 28"><defs><style>.a{fill:none;}.b{fill:#fff;}</style></defs><g transform="translate(-558.239 -303.069)"><rect class="a" width="28" height="28" transform="translate(558.239 303.069)"/><g transform="translate(558.239 303.069)"><path class="b" d="M565.255,308.03v-.4c0-.933,0-1.866,0-2.8a1.68,1.68,0,0,1,1.754-1.764q4.774-.006,9.549,0a1.678,1.678,0,0,1,1.762,1.755c.006.933,0,1.866,0,2.8v.386c.148.007.265.018.381.018,1.1,0,2.2-.008,3.293,0a3.2,3.2,0,0,1,3.256,2.567,4.35,4.35,0,0,1,.072.884c.006,2.283,0,4.566.007,6.849a1.292,1.292,0,0,1-.633,1.249c-.083.049-.12.236-.121.36-.007,2.568,0,5.137-.007,7.705a4.247,4.247,0,0,1-.041.721,3.181,3.181,0,0,1-3.272,2.7q-4.956.01-9.911,0-4.511,0-9.022,0a3.184,3.184,0,0,1-3.279-2.691,4.19,4.19,0,0,1-.041-.721q0-3.836,0-7.672a.473.473,0,0,0-.251-.5,1.015,1.015,0,0,1-.5-.942c0-2.448-.04-4.9.015-7.342a3.155,3.155,0,0,1,3.336-3.164c1.087-.009,2.173,0,3.26,0Zm-4.01,11.668v.34q0,3.8,0,7.605c0,.841.338,1.184,1.169,1.184H581.18c.807,0,1.154-.352,1.154-1.167q0-3.819,0-7.638c0-.105-.012-.211-.018-.315h-7.141c0,.763.005,1.5,0,2.23a1.138,1.138,0,0,1-1.269,1.26q-2.124.008-4.247,0a1.129,1.129,0,0,1-1.253-1.241c-.008-.636,0-1.273,0-1.909,0-.116-.012-.232-.019-.349Zm21.845-2.277v-.33q0-2.814,0-5.629c0-.843-.358-1.2-1.208-1.2H561.7c-.865,0-1.212.351-1.213,1.224q0,2.781,0,5.563v.36H568.4c0-.474,0-.923,0-1.371a1.136,1.136,0,0,1,1.273-1.251q2.074,0,4.147,0c.932,0,1.346.412,1.35,1.341,0,.425,0,.851,0,1.29Zm-15.579-9.413h8.553v-2.672H567.51Zm5.408,9.043h-2.256v3.884h2.256Z" transform="translate(-558.239 -303.069)"/></g></g></svg>