<svg xmlns="http://www.w3.org/2000/svg" width="28" height="28" viewBox="0 0 28 28"><defs><style>.a{fill:none;}.b{fill:#e6e9f3;}</style></defs><g transform="translate(-772.803 -247.272)"><rect class="a" width="28" height="28" transform="translate(772.803 247.272)"/><g transform="translate(775.803 247.272)"><path class="b" d="M781.86,261.327a12.89,12.89,0,0,1-1.922-3.689,8.45,8.45,0,0,1-.172-5.55,7.208,7.208,0,0,1,13.75,4.3,12.742,12.742,0,0,1-2.1,4.713c-.051.071-.1.144-.16.238,1.068.517,2.121,1.031,3.179,1.536a4.945,4.945,0,0,1,2.229,2.027,5.208,5.208,0,0,1,.559,3.438c-.274,1.955-.519,3.915-.777,5.873a1.107,1.107,0,0,1-1.2,1.061q-8.7.005-17.393,0a1.106,1.106,0,0,1-1.187-1.07q-.413-3.166-.827-6.331a4.807,4.807,0,0,1,2.5-4.812c1.047-.552,2.125-1.044,3.189-1.564C781.628,261.444,781.725,261.394,781.86,261.327Zm9.651-6.9c-.023-.219-.043-.492-.082-.763a4.941,4.941,0,0,0-9.814.561,7.926,7.926,0,0,0,.605,3.144,8.6,8.6,0,0,0,2.523,3.713,2.552,2.552,0,0,0,3.385.167,6.675,6.675,0,0,0,2.014-2.314A9.77,9.77,0,0,0,791.511,254.426Zm-3.221,18.583h6.027a1.189,1.189,0,0,0,.04-.146c.232-1.772.483-3.541.677-5.317a2.878,2.878,0,0,0-.184-1.217c-.392-1.118-1.423-1.465-2.4-1.91Zm-3.472.006-4.175-8.608c-.429.212-.83.388-1.211.6a2.626,2.626,0,0,0-1.352,2.766c.158,1.118.292,2.239.438,3.359.082.626.166,1.253.25,1.883Zm-2.145-9.558,2.695,5.554c.066-1,.063-1.98.067-2.956a1.123,1.123,0,1,1,2.238.013c0,.889,0,1.778,0,2.666,0,.089.012.178.026.359l2.741-5.657a4.225,4.225,0,0,1-.52-.259.555.555,0,0,0-.7.035,4.493,4.493,0,0,1-5,.176,1.2,1.2,0,0,0-1.492.017C782.722,263.411,782.714,263.419,782.674,263.456Z" transform="translate(-775.803 -247.272)"/></g></g></svg>