<svg xmlns="http://www.w3.org/2000/svg" width="28" height="28" viewBox="0 0 28 28"><defs><style>.a{fill:none;}.b{fill:#fff;}</style></defs><g transform="translate(-569.099 -302.089)"><rect class="a" width="28" height="28" transform="translate(569.099 302.089)"/><g transform="translate(570.099 302.089)"><path class="b" d="M589.7,321.645c.228.859.444,1.672.661,2.485q.724,2.715,1.449,5.429a1.123,1.123,0,0,1-.382,1.3,1.064,1.064,0,0,1-1.207.084,1.136,1.136,0,0,1-.563-.772c-.262-1-.536-1.988-.79-2.986a.343.343,0,0,0-.4-.312q-3.736.015-7.472,0a.343.343,0,0,0-.4.3q-.383,1.513-.8,3.017a1.116,1.116,0,0,1-1.706.707,1.151,1.151,0,0,1-.431-1.366q.459-1.731.923-3.46.554-2.08,1.106-4.16c.019-.073.031-.147.057-.269h-6.293A1.177,1.177,0,0,1,572.1,320.3q0-7.933,0-15.866a1.176,1.176,0,0,1,1.354-1.344H596c.941,0,1.365.424,1.366,1.366q0,7.916,0,15.833a1.178,1.178,0,0,1-1.344,1.356H589.7Zm5.408-16.3H574.356v14.041h20.756Zm-6.931,19.273c-.258-.969-.5-1.89-.757-2.8-.022-.078-.189-.162-.289-.163-1.6-.01-3.2,0-4.8-.013-.212,0-.278.079-.324.269-.139.574-.3,1.144-.452,1.715l-.265,1Z" transform="translate(-572.099 -303.089)"/><path class="b" d="M809.615,502.537c-.669,0-1.338.021-2.005-.007a1.049,1.049,0,0,1-.979-.945,1.086,1.086,0,0,1,.719-1.193,1.678,1.678,0,0,1,.516-.077c1.173-.006,2.346-.011,3.519,0a1.12,1.12,0,0,1,1.19,1.44,1.062,1.062,0,0,1-1.02.785c-.646.019-1.293,0-1.94,0Z" transform="translate(-791.179 -487.322)"/></g></g></svg>