<svg width="16" height="16" viewBox="0 0 16 16" fill="none" xmlns="http://www.w3.org/2000/svg">
<path d="M7.99993 12.5001C6.10368 12.5001 4.56869 10.6654 4.42744 8.34039L1.80494 5.80696C1.46019 6.34758 1.14294 6.91914 0.886944 7.54414C0.829755 7.68555 0.799958 7.84179 0.799958 8.00024C0.799958 8.15869 0.829755 8.31492 0.886944 8.45633C2.24269 11.7629 4.92669 14.0001 7.99993 14.0001C8.67268 14.0001 9.32168 13.8751 9.94718 13.6732L8.64993 12.4185C8.43569 12.4703 8.21813 12.4976 7.99993 12.5001ZM15.8454 14.3157L13.0817 11.6457C13.9212 10.7613 14.6117 9.67705 15.1129 8.45602C15.1701 8.31461 15.1999 8.15838 15.1999 7.99993C15.1999 7.84147 15.1701 7.68524 15.1129 7.54383C13.7572 4.23727 11.0732 2.00008 7.99993 2.00008C6.71281 2.00203 5.44659 2.40707 4.31694 3.17821L1.13644 0.105395C1.09497 0.0650531 1.04754 0.0353228 0.996872 0.0179024C0.946203 0.000481963 0.893283 -0.00428704 0.841138 0.00386788C0.788993 0.0120228 0.738645 0.0329418 0.69297 0.0654295C0.647295 0.0979172 0.60719 0.141337 0.574945 0.193207L0.0841958 0.982895C0.0190955 1.08758 -0.0100755 1.2203 0.00309852 1.35186C0.0162725 1.48342 0.0707127 1.60306 0.154446 1.68446L14.8634 15.8948C14.9049 15.9351 14.9523 15.9648 15.003 15.9823C15.0537 15.9997 15.1066 16.0045 15.1587 15.9963C15.2109 15.9881 15.2612 15.9672 15.3069 15.9347C15.3526 15.9022 15.3927 15.8588 15.4249 15.807L15.9159 15.0173C15.981 14.9125 16.0101 14.7798 15.9969 14.6482C15.9837 14.5167 15.9292 14.3971 15.8454 14.3157ZM11.2524 9.87821L10.2699 8.92883C10.3527 8.62992 10.3966 8.31636 10.3999 8.00008C10.4048 7.53704 10.3227 7.07902 10.1603 6.66281C9.9979 6.24661 9.75965 5.88382 9.46472 5.60359C9.16978 5.32336 8.82638 5.13349 8.4621 5.04925C8.09781 4.96501 7.7228 4.98873 7.36718 5.11852C7.51793 5.37386 7.59948 5.68273 7.59993 6.00008C7.5962 6.10569 7.58329 6.21047 7.56143 6.31258L5.72119 4.53477C6.36043 3.86702 7.16686 3.50085 7.99993 3.50008C8.47276 3.49975 8.94101 3.61592 9.3779 3.84195C9.81479 4.06798 10.2118 4.39944 10.5461 4.81737C10.8804 5.2353 11.1456 5.7315 11.3264 6.27762C11.5072 6.82373 11.6002 7.40904 11.5999 8.00008C11.5999 8.67602 11.4677 9.30602 11.2524 9.87852V9.87821Z" fill="#E9E9E9"/>
</svg>
