<svg xmlns="http://www.w3.org/2000/svg" width="172.5" height="44.681" viewBox="0 0 172.5 44.681"><defs><style>.a,.b{fill:#69a9f2;}.a{stroke:#69a9f2;}.b{font-size:27px;font-family:Quicksand-SemiBold, Quicksand;font-weight:600;letter-spacing:-0.005em;}</style></defs><g transform="translate(-79.5 -52.473)"><g transform="translate(80 53)"><path class="a" d="M469.545,449.818a1.582,1.582,0,0,0-1.539-1.022c-2.2-.011-4.409-.005-6.614,0a1.6,1.6,0,0,0-.373.044,1.705,1.705,0,0,0-1.325,1.824,11.538,11.538,0,0,1-1.072,4.749,13.047,13.047,0,0,1-13.644,7.448,12.5,12.5,0,0,1-8.939-5.526,12.376,12.376,0,0,1-2.2-6.721,1.7,1.7,0,0,0-1.714-1.816q-3.288-.017-6.576,0a1.672,1.672,0,1,0,.008,3.344c.781.008,1.562,0,2.343,0h2.674a16.254,16.254,0,0,0,9.06,12.593,15.94,15.94,0,0,0,7.831,1.6,16.21,16.21,0,0,0,9.613-3.641,15.732,15.732,0,0,0,5.91-10.551h.424c1.512,0,3.023,0,4.535,0a1.64,1.64,0,0,0,1.282-.537A1.584,1.584,0,0,0,469.545,449.818Z" transform="translate(-423.851 -422.7)"/><path class="a" d="M706.571,117.568a1.621,1.621,0,0,0,2.755-1.192c.009-1.838,0-3.676,0-5.514,0-1.813,0-3.626,0-5.439a1.73,1.73,0,0,0-.421-1.217,1.62,1.62,0,0,0-1.758-.441,1.647,1.647,0,0,0-1.072,1.66q-.009,5.438,0,10.877A1.649,1.649,0,0,0,706.571,117.568Z" transform="translate(-684.744 -103.667)"/><path class="a" d="M803.258,181.39a1.606,1.606,0,0,0,1.891-.816q2.206-3.935,4.389-7.882a1.631,1.631,0,0,0,.19-1.2,1.618,1.618,0,0,0-3.021-.365q-2.19,3.922-4.365,7.852a5.231,5.231,0,0,0-.295.841A1.734,1.734,0,0,0,803.258,181.39Z" transform="translate(-773.46 -165.205)"/><path class="a" d="M554.514,179.189c.269.484.525.977.824,1.442a1.505,1.505,0,0,0,1.666.7,1.54,1.54,0,0,0,1.249-1.216,1.689,1.689,0,0,0-.242-1.3q-1.7-3.051-3.4-6.1c-.349-.626-.682-1.264-1.066-1.868a1.56,1.56,0,0,0-1.8-.62,1.783,1.783,0,0,0-1.2,1.564,8.08,8.08,0,0,0,.384.966C552.123,174.9,553.32,177.045,554.514,179.189Z" transform="translate(-540.98 -165.122)"/><path class="a" d="M453.482,308.577q2.967,1.731,5.946,3.441a5.81,5.81,0,0,0,.9.338,1.808,1.808,0,0,0,1.639-1.249,1.641,1.641,0,0,0-.789-1.94c-2.018-1.186-4.04-2.365-6.079-3.513a1.979,1.979,0,0,0-1.078-.223,1.6,1.6,0,0,0-1.43,1.307A1.68,1.68,0,0,0,453.482,308.577Z" transform="translate(-450.39 -290.174)"/><path class="a" d="M877.706,310.947a1.829,1.829,0,0,0,1.619,1.242,8.282,8.282,0,0,0,1-.4c.827-.455,1.635-.942,2.452-1.416,1.143-.663,2.291-1.318,3.428-1.989a1.678,1.678,0,1,0-1.692-2.895c-1.281.724-2.551,1.47-3.823,2.211-.794.462-1.6.907-2.369,1.406A1.589,1.589,0,0,0,877.706,310.947Z" transform="translate(-843.324 -289.996)"/></g><text class="b" transform="translate(140 85)"><tspan x="0" y="0">edufront</tspan></text></g></svg>