<svg xmlns="http://www.w3.org/2000/svg" width="105.985" height="29.019" viewBox="0 0 105.985 29.019"><defs><style>.a,.b{fill:#69a9f2;}.a{stroke:#69a9f2;}.b{font-size:16px;font-family:Quicksand-SemiBold, Quicksand;font-weight:600;letter-spacing:-0.005em;}</style></defs><g transform="translate(-79.5 -52.481)"><g transform="translate(80 53)"><path class="a" d="M453.159,449.448a1.015,1.015,0,0,0-.987-.656c-1.414-.007-2.828,0-4.242,0a1.025,1.025,0,0,0-.239.028,1.094,1.094,0,0,0-.85,1.17,7.4,7.4,0,0,1-.688,3.046,8.369,8.369,0,0,1-8.751,4.777,8.019,8.019,0,0,1-5.733-3.544,7.938,7.938,0,0,1-1.41-4.311,1.089,1.089,0,0,0-1.1-1.165q-2.109-.011-4.218,0a1.073,1.073,0,1,0,.005,2.145c.5.005,1,0,1.5,0h1.715a10.426,10.426,0,0,0,5.811,8.077A10.224,10.224,0,0,0,439,460.041a10.4,10.4,0,0,0,6.166-2.335,10.091,10.091,0,0,0,3.791-6.768h.272c.97,0,1.939,0,2.909,0a1.052,1.052,0,0,0,.822-.345A1.016,1.016,0,0,0,453.159,449.448Z" transform="translate(-423.851 -432.054)"/><path class="a" d="M706.394,112.583a1.04,1.04,0,0,0,1.767-.764c.006-1.179,0-2.358,0-3.537,0-1.163,0-2.326,0-3.488a1.11,1.11,0,0,0-.27-.781,1.039,1.039,0,0,0-1.128-.283,1.057,1.057,0,0,0-.687,1.064q-.006,3.488,0,6.977A1.058,1.058,0,0,0,706.394,112.583Z" transform="translate(-692.394 -103.667)"/><path class="a" d="M802.823,177.39a1.03,1.03,0,0,0,1.213-.523q1.415-2.524,2.815-5.056a1.045,1.045,0,0,0,.122-.77,1.038,1.038,0,0,0-1.938-.234q-1.4,2.516-2.8,5.037a3.349,3.349,0,0,0-.189.539A1.112,1.112,0,0,0,802.823,177.39Z" transform="translate(-783.711 -167.009)"/><path class="a" d="M553.1,175.947c.173.31.337.627.528.925a.966.966,0,0,0,1.068.447.988.988,0,0,0,.8-.78,1.083,1.083,0,0,0-.155-.832q-1.089-1.957-2.179-3.914c-.224-.4-.437-.811-.684-1.2a1,1,0,0,0-1.151-.4,1.144,1.144,0,0,0-.767,1,5.181,5.181,0,0,0,.246.619C551.562,173.2,552.329,174.572,553.1,175.947Z" transform="translate(-544.414 -166.924)"/><path class="a" d="M453.151,307.446q1.9,1.11,3.814,2.207a3.728,3.728,0,0,0,.579.217,1.16,1.16,0,0,0,1.051-.8,1.053,1.053,0,0,0-.506-1.245c-1.294-.761-2.591-1.517-3.9-2.253a1.269,1.269,0,0,0-.692-.143,1.027,1.027,0,0,0-.917.838A1.078,1.078,0,0,0,453.151,307.446Z" transform="translate(-451.168 -295.642)"/><path class="a" d="M877.676,308.9a1.173,1.173,0,0,0,1.038.8,5.305,5.305,0,0,0,.64-.255c.53-.292,1.049-.6,1.573-.908.733-.425,1.469-.845,2.2-1.276a1.077,1.077,0,1,0-1.085-1.857c-.822.465-1.636.943-2.452,1.418-.509.3-1.026.582-1.519.9A1.019,1.019,0,0,0,877.676,308.9Z" transform="translate(-855.623 -295.459)"/></g><text class="b" transform="translate(118.485 73)"><tspan x="0" y="0">edufront</tspan></text></g></svg>