<svg xmlns="http://www.w3.org/2000/svg" width="131.02" height="167.228" viewBox="0 0 131.02 167.228"><defs><style>.a{fill:#e9e9e9;}</style></defs><g transform="translate(-34.584 -29.564)"><path class="a" d="M119.732,142.112a165.342,165.342,0,0,1-.36-16.84c2.92-1.532,8.152-11.3,9.036-19.552,2.3-.188,5.916-2.428,6.976-11.272.572-4.748-1.7-7.42-3.084-8.26,3.736-11.236,11.5-46-14.352-49.588-2.66-4.672-9.472-7.036-18.324-7.036C64.208,30.216,59.936,56.308,67.7,86.188c-1.38.84-3.652,3.512-3.084,8.26,1.064,8.844,4.68,11.084,6.976,11.272.88,8.248,6.32,18.02,9.248,19.552a165.382,165.382,0,0,1-.364,16.84c-5.044,13.56-30.948,14.62-45.892,27.7,15.624,15.732,40.944,26.984,67.664,26.984s58.128-21.1,63.356-26.852C150.752,156.744,124.788,155.72,119.732,142.112Z"/></g></svg>