<svg width="16" height="16" viewBox="0 0 16 16" fill="none" xmlns="http://www.w3.org/2000/svg">
<g clip-path="url(#clip0)">
<path d="M4.0611 5.15101V3.31599C4.0611 2.43799 4.0611 1.56032 4.0611 0.68299C4.04725 0.590235 4.05534 0.495532 4.08472 0.40647C4.11409 0.317408 4.16391 0.236486 4.23022 0.170172C4.29654 0.103858 4.37749 0.0540116 4.46655 0.0246339C4.55561 -0.00474371 4.65029 -0.0128616 4.74304 0.000982797H10.7701C11.2561 0.000982797 11.4701 0.217995 11.4701 0.700995C11.4701 2.05366 11.4701 3.406 11.4701 4.758V5.142C11.5441 5.142 11.606 5.15101 11.67 5.15101H14.8501C14.9428 5.1372 15.0373 5.14527 15.1263 5.1746C15.2153 5.20392 15.2961 5.25367 15.3624 5.31986C15.4287 5.38606 15.4786 5.46686 15.5081 5.55579C15.5375 5.64472 15.5457 5.73933 15.532 5.83201C15.532 8.89467 15.532 11.9573 15.532 15.02C15.5444 15.1113 15.5353 15.2042 15.5056 15.2914C15.4758 15.3785 15.4262 15.4576 15.3606 15.5223C15.295 15.587 15.2153 15.6355 15.1277 15.6641C15.0402 15.6927 14.9472 15.7005 14.8561 15.687H8.80908C8.71428 15.7011 8.61748 15.6927 8.52655 15.6624C8.43562 15.6321 8.3531 15.5807 8.28577 15.5125C8.21843 15.4443 8.16818 15.3611 8.13904 15.2698C8.1099 15.1785 8.10267 15.0816 8.11804 14.987C8.11804 13.5823 8.11804 12.178 8.11804 10.774V10.547H7.4101C7.4101 10.613 7.4101 10.682 7.4101 10.747C7.4101 12.1383 7.4101 13.5297 7.4101 14.921C7.4101 15.473 7.21006 15.68 6.66406 15.68H0.715088C0.202088 15.68 -0.00390625 15.473 -0.00390625 14.958C-0.00390625 11.9213 -0.00390625 8.88466 -0.00390625 5.848C-0.00390625 5.358 0.208045 5.14799 0.696045 5.14799H4.05908L4.0611 5.15101ZM1.18506 6.331V14.505H6.22906V10.552C6.21293 10.5456 6.19618 10.5409 6.17908 10.538H4.79407C4.26907 10.538 4.06006 10.33 4.06006 9.80799C4.06006 8.71532 4.06006 7.62301 4.06006 6.53101V6.331H1.18506ZM14.3501 14.511V6.33799H11.4741V6.568C11.4741 7.67333 11.4741 8.77899 11.4741 9.88499C11.4838 9.97311 11.4736 10.0623 11.4441 10.1459C11.4146 10.2296 11.3667 10.3055 11.3039 10.368C11.2411 10.4306 11.1649 10.4782 11.0812 10.5072C10.9974 10.5363 10.9082 10.5461 10.8201 10.536C10.4101 10.536 10.0011 10.536 9.59106 10.536H9.30804V14.511H14.3501ZM5.25006 1.18101V9.35001H10.2981V1.18101H5.25006Z" fill="#212121"/>
<path d="M3.69012 11.785C4.05312 11.785 4.41715 11.785 4.78015 11.785C4.86145 11.7775 4.9434 11.7869 5.02081 11.8129C5.09823 11.8389 5.1694 11.8807 5.22974 11.9357C5.29007 11.9907 5.33824 12.0577 5.37122 12.1324C5.40419 12.2071 5.42126 12.2878 5.42126 12.3695C5.42126 12.4511 5.40419 12.5319 5.37122 12.6066C5.33824 12.6813 5.29007 12.7482 5.22974 12.8033C5.1694 12.8583 5.09823 12.9001 5.02081 12.9261C4.9434 12.952 4.86145 12.9615 4.78015 12.954C4.05948 12.954 3.33914 12.954 2.61914 12.954C2.53886 12.9598 2.45823 12.9489 2.38232 12.9222C2.30642 12.8954 2.23689 12.8533 2.17798 12.7984C2.11907 12.7436 2.07204 12.6772 2.03992 12.6034C2.00779 12.5296 1.99121 12.45 1.99121 12.3695C1.99121 12.289 2.00779 12.2094 2.03992 12.1356C2.07204 12.0618 2.11907 11.9954 2.17798 11.9406C2.23689 11.8857 2.30642 11.8436 2.38232 11.8169C2.45823 11.7901 2.53886 11.7793 2.61914 11.785C2.97714 11.782 3.33112 11.785 3.69012 11.785Z" fill="#212121"/>
<path d="M11.8271 11.785C12.1901 11.785 12.5541 11.785 12.9171 11.785C12.9974 11.7792 13.078 11.7901 13.1539 11.8168C13.2298 11.8436 13.2994 11.8857 13.3583 11.9405C13.4172 11.9954 13.4642 12.0618 13.4963 12.1355C13.5285 12.2093 13.545 12.289 13.545 12.3695C13.545 12.45 13.5285 12.5296 13.4963 12.6034C13.4642 12.6772 13.4172 12.7436 13.3583 12.7984C13.2994 12.8532 13.2298 12.8953 13.1539 12.9221C13.078 12.9489 12.9974 12.9597 12.9171 12.954C12.1964 12.954 11.4761 12.954 10.7561 12.954C10.6752 12.9607 10.5939 12.9505 10.5171 12.9242C10.4403 12.8978 10.3698 12.8558 10.3101 12.8008C10.2504 12.7459 10.2028 12.6791 10.1702 12.6048C10.1376 12.5305 10.1207 12.4502 10.1207 12.369C10.1207 12.2878 10.1376 12.2075 10.1702 12.1332C10.2028 12.0588 10.2504 11.9921 10.3101 11.9371C10.3698 11.8821 10.4403 11.8401 10.5171 11.8138C10.5939 11.7874 10.6752 11.7773 10.7561 11.784C11.1081 11.783 11.4701 11.785 11.8271 11.785Z" fill="#212121"/>
<path d="M5.77809 3.61599C5.78029 3.22211 5.89941 2.83774 6.12031 2.51162C6.34122 2.18551 6.65397 1.93233 7.01893 1.78418C7.3839 1.63602 7.78465 1.59957 8.17036 1.67944C8.55607 1.75931 8.90937 1.95188 9.1855 2.23279C9.46162 2.51369 9.64815 2.87027 9.72139 3.25729C9.79463 3.64431 9.75133 4.04436 9.59694 4.40674C9.44255 4.76911 9.18399 5.07747 8.85414 5.29275C8.52429 5.50804 8.13796 5.62054 7.74409 5.61599C7.21899 5.60888 6.71794 5.3948 6.34981 5.02029C5.98167 4.64579 5.7762 4.14114 5.77809 3.61599V3.61599ZM8.5851 3.63098C8.58529 3.46924 8.53756 3.31109 8.44789 3.17648C8.35821 3.04187 8.23065 2.93685 8.08131 2.87472C7.93198 2.8126 7.76753 2.79616 7.60884 2.82745C7.45015 2.85874 7.30435 2.93634 7.18977 3.0505C7.07519 3.16466 6.99703 3.31024 6.96516 3.46881C6.93329 3.62738 6.94912 3.79184 7.01069 3.9414C7.07227 4.09097 7.17683 4.21891 7.31111 4.30908C7.44539 4.39925 7.60335 4.4476 7.76509 4.448C7.98225 4.44669 8.19017 4.35989 8.34382 4.20642C8.49748 4.05295 8.5845 3.84515 8.58607 3.62799L8.5851 3.63098Z" fill="#212121"/>
<path d="M7.76911 6.24397C8.13211 6.24397 8.49608 6.24397 8.85908 6.24397C8.9386 6.23886 9.01835 6.25006 9.09339 6.27687C9.16844 6.30367 9.23719 6.34555 9.29548 6.39988C9.35377 6.45422 9.40038 6.51986 9.43238 6.59284C9.46438 6.66583 9.4811 6.74457 9.48158 6.82426C9.48206 6.90395 9.46625 6.9829 9.43513 7.05625C9.40401 7.12961 9.35824 7.19583 9.30061 7.25086C9.24297 7.3059 9.1747 7.34859 9.09999 7.37629C9.02527 7.404 8.94568 7.41615 8.8661 7.412C8.13277 7.41666 7.39942 7.41666 6.66609 7.412C6.58747 7.41569 6.5089 7.40345 6.43513 7.37602C6.36136 7.34859 6.29393 7.30652 6.23683 7.25236C6.17972 7.1982 6.13415 7.13305 6.10285 7.06083C6.07156 6.98862 6.05517 6.91084 6.0547 6.83213C6.05423 6.75343 6.06968 6.67544 6.10011 6.60285C6.13053 6.53027 6.17531 6.46458 6.23176 6.40974C6.28821 6.3549 6.35516 6.31205 6.4286 6.28373C6.50203 6.25542 6.58047 6.24222 6.65913 6.24498C7.03013 6.23898 7.40011 6.24397 7.76911 6.24397Z" fill="#212121"/>
</g>
<defs>
<clipPath id="clip0">
<rect width="16" height="16" fill="white"/>
</clipPath>
</defs>
</svg>
