<svg width="14" height="14" viewBox="0 0 14 14" fill="none" xmlns="http://www.w3.org/2000/svg">
<path d="M5.34403 1.49865L5.74003 1.51999L5.84736 1.52733L6.19069 1.58532C6.22869 1.61599 6.27669 1.60865 6.32002 1.61999L6.58002 1.69265L6.69669 1.73666L6.98469 1.85532L7.04336 1.88466L7.33003 2.03999C7.35 2.06566 7.37828 2.08357 7.41003 2.09065L7.64669 2.25799L7.73069 2.32466L7.91603 2.48532L7.99669 2.56198L8.18003 2.75132L8.25736 2.83599L8.43736 3.06132L8.46736 3.09798C8.48269 3.14532 8.50669 3.17132 8.56403 3.15332C8.71803 3.10532 8.87403 3.06199 9.03069 3.01999C9.07649 3.02694 9.12331 3.01875 9.16403 2.99666L9.61336 2.94932C9.65729 2.96173 9.70405 2.95962 9.74669 2.94332L10.1467 2.96065L10.2527 2.96732L10.5967 3.02199C10.6374 3.04461 10.6835 3.05568 10.73 3.05399L11.0214 3.13933L11.1314 3.17599L11.4207 3.29399L11.5027 3.33466L11.7694 3.47332C11.7892 3.49912 11.8176 3.51706 11.8494 3.52399L12.0554 3.65732C12.0729 3.68387 12.0994 3.70326 12.13 3.71199L12.352 3.89332L12.4187 3.95265L12.64 4.16999C12.6508 4.19883 12.672 4.22262 12.6994 4.23666L12.8567 4.42533L12.9374 4.53065L13.0847 4.74999L13.1514 4.85132L13.2847 5.09065C13.2912 5.13164 13.3095 5.16985 13.3374 5.20066L13.4347 5.43998L13.4754 5.54198C13.5948 5.91631 13.664 6.3048 13.6814 6.69732C13.6906 7.15254 13.6258 7.60624 13.4894 8.04065L13.416 8.24999C13.2668 8.5902 13.0767 8.911 12.85 9.20533C12.6788 9.39825 12.4963 9.58079 12.3034 9.75199C12.017 9.9765 11.7069 10.169 11.3787 10.326L11.3387 10.346C11.3376 10.3452 11.3364 10.3446 11.335 10.3444C11.3337 10.3442 11.3323 10.3444 11.3311 10.3448C11.3298 10.3453 11.3287 10.3461 11.3278 10.3471C11.3269 10.3481 11.3263 10.3493 11.326 10.3506C11.2518 10.3667 11.1803 10.3936 11.114 10.4307L10.6107 10.564C10.332 10.59 10.332 10.59 10.364 10.8027C10.3491 10.9336 10.3491 11.0657 10.364 11.1967C10.3394 11.2767 10.3594 11.3193 10.452 11.3H10.852H10.9854H11.4087H11.516C11.6315 11.2982 11.7468 11.3087 11.86 11.3313L11.9654 11.3867L12.1254 11.544L12.174 11.6247C12.2122 11.7443 12.2227 11.871 12.2047 11.9953C12.1714 12.0872 12.1183 12.1707 12.0492 12.2399C11.9801 12.309 11.8966 12.362 11.8047 12.3953C11.6641 12.4141 11.5225 12.4234 11.3807 12.4233H10.744C10.7307 12.4233 10.718 12.42 10.7047 12.4193C10.3307 12.4113 10.3307 12.4113 10.3627 12.792C10.3474 12.8369 10.3474 12.8857 10.3627 12.9307C10.3631 13.0733 10.3461 13.2155 10.312 13.354C10.2553 13.4556 10.1742 13.5415 10.076 13.604C9.95856 13.6643 9.82406 13.6829 9.69464 13.6566C9.56523 13.6303 9.44863 13.5607 9.36403 13.4593L9.30869 13.38C9.26495 13.2706 9.24233 13.1538 9.24203 13.036C9.25359 12.9923 9.25359 12.9463 9.24203 12.9027C9.25407 12.7709 9.25407 12.6384 9.24203 12.5067C9.26669 12.4147 9.21203 12.416 9.14936 12.4267H8.72603H8.07736C7.96076 12.4258 7.84514 12.4053 7.73536 12.366L7.65536 12.3153C7.58623 12.2488 7.52555 12.174 7.47469 12.0927L7.45069 12.026C7.4222 11.8923 7.4338 11.7531 7.48403 11.626C7.54461 11.5197 7.62991 11.4296 7.73269 11.3633C7.87746 11.3147 8.03023 11.2943 8.18269 11.3033H8.31603H8.71269H8.84603L9.21669 11.2993C9.22936 11.2993 9.23669 11.2993 9.22869 11.2827C9.24005 11.1589 9.24005 11.0344 9.22869 10.9107C9.23998 10.8669 9.23998 10.8211 9.22869 10.7773C9.26603 10.644 9.21669 10.5773 9.08269 10.572C9.04803 10.572 9.01603 10.566 8.97936 10.5627C8.94863 10.5413 8.91121 10.5318 8.87403 10.536L8.58469 10.45L8.47469 10.41L8.18536 10.2913L8.10336 10.2507L7.83669 10.11C7.81661 10.0844 7.78837 10.0666 7.75669 10.0593L7.55669 9.92599L7.48336 9.87066L7.26003 9.68932L7.17469 9.61132L6.99003 9.42599L6.91269 9.33999L6.73203 9.11599L6.70203 9.07932C6.67936 9.00665 6.63536 8.98532 6.56136 9.01266C6.44936 9.05199 6.33336 9.07932 6.21936 9.11332L6.17669 9.12933H6.16603L6.03269 9.15066L5.58403 9.20132C5.5396 9.19167 5.49334 9.19491 5.4507 9.21066L5.05403 9.19599L4.94669 9.19066L4.57603 9.13665C4.56481 9.12762 4.55188 9.12096 4.53801 9.11707C4.52415 9.11317 4.50964 9.11212 4.49536 9.11399L4.15269 9.02532C4.13269 8.99932 4.10269 9.00065 4.07469 8.99732L3.81136 8.89398C3.78001 8.86696 3.74164 8.8494 3.7007 8.84333L3.43736 8.70465L3.35669 8.65599L3.15669 8.52266L3.04469 8.43865L2.85936 8.28532L2.74869 8.18265L2.58802 8.02199L2.48469 7.91265L2.32736 7.72732L2.2847 7.67199L2.09269 7.39665L2.06536 7.35466L1.92202 7.08798L1.87736 6.99932L1.76003 6.70865L1.71536 6.60132L1.63136 6.30999L1.60403 6.20332L1.55003 5.88532C1.55535 5.83969 1.54773 5.79348 1.52803 5.75199L1.51469 5.35199C1.51469 5.30755 1.51469 5.2631 1.51469 5.21865L1.5527 4.76799C1.57429 4.7271 1.58245 4.68045 1.57603 4.63466L1.71802 4.10132C1.75374 4.03516 1.77978 3.96421 1.79536 3.89066C1.9178 3.61671 2.0665 3.35526 2.23936 3.10999C2.27536 3.06265 2.27002 3.03132 2.21802 3.00666L2.16869 2.95732C2.10558 2.87695 2.03307 2.80444 1.95269 2.74133L1.90336 2.69199L1.4507 2.26866V3.11865L1.42603 3.25199C1.39373 3.33761 1.34336 3.41528 1.27837 3.4797C1.21337 3.54412 1.13527 3.59378 1.04936 3.62532C1.00383 3.62114 0.957981 3.62847 0.916028 3.64665C0.806982 3.63678 0.700379 3.60861 0.600695 3.56332L0.518028 3.49666C0.454492 3.42892 0.405459 3.34893 0.373934 3.26158C0.342409 3.17423 0.329055 3.08135 0.334693 2.98865C0.338693 2.29798 0.334693 1.60799 0.334693 0.91732C0.337999 0.815755 0.360624 0.715749 0.401359 0.622652C0.461466 0.531044 0.539752 0.452759 0.63136 0.392652C0.745011 0.344272 0.867921 0.321517 0.99136 0.325991C1.65803 0.329991 2.32469 0.331991 2.99136 0.325991C3.0839 0.320428 3.1766 0.333886 3.26375 0.365532C3.35089 0.397178 3.43062 0.446341 3.49803 0.509992L3.56469 0.592654C3.60996 0.69258 3.63813 0.799398 3.64803 0.908653C3.62988 0.950614 3.62254 0.996455 3.6267 1.04198C3.59546 1.128 3.54607 1.20629 3.48188 1.27152C3.41769 1.33674 3.3402 1.38738 3.25469 1.41999L3.12136 1.44465H2.27336L2.69536 1.89799L2.74536 1.94799C2.80846 2.02837 2.88098 2.10088 2.96136 2.16398L3.01069 2.21332C3.03603 2.26665 3.06736 2.26932 3.11403 2.23399C3.35792 2.05912 3.61826 1.9084 3.89136 1.78399L4.10403 1.70399L4.66136 1.55132L4.7947 1.53465L5.24403 1.48932L5.34403 1.49865ZM9.47736 4.10932C9.42136 4.11532 9.36536 4.11865 9.31003 4.12798C8.99869 4.18265 8.99869 4.18265 9.08803 4.47732L9.11336 4.58466L9.16469 4.90265C9.15711 4.95698 9.16377 5.01234 9.18403 5.06332L9.19203 5.41599C9.19203 5.46665 9.19203 5.5171 9.19203 5.56732L9.13736 6.04465C9.11626 6.08573 9.10747 6.13204 9.11203 6.17799L8.94669 6.73598L8.84803 6.97532C8.57571 7.54793 8.17072 8.0473 7.66669 8.43199C7.60003 8.48066 7.63869 8.50932 7.67869 8.54266C7.70396 8.58765 7.73878 8.62655 7.78069 8.65665C7.82177 8.71839 7.87509 8.77104 7.93736 8.81132C7.96636 8.85355 8.00497 8.88828 8.05003 8.91265C8.11984 8.98066 8.19883 9.03856 8.28469 9.08466L8.32469 9.10932C8.40725 9.17797 8.50202 9.23045 8.60403 9.26399L8.68669 9.30799C8.78464 9.36387 8.89121 9.40307 9.00203 9.42398C9.03243 9.44505 9.06838 9.45665 9.10536 9.45732C9.20899 9.49468 9.31741 9.51713 9.42736 9.52399L9.53003 9.53665C9.66336 9.57532 9.79669 9.49865 9.93003 9.54465C9.97377 9.55751 10.0205 9.55611 10.0634 9.54065C10.2347 9.53127 10.4039 9.49806 10.566 9.44199C10.6502 9.42607 10.7317 9.39823 10.808 9.35932C10.9649 9.2998 11.1147 9.22312 11.2547 9.13066C11.7526 8.81681 12.135 8.34952 12.344 7.79932C12.3817 7.73348 12.4066 7.6611 12.4174 7.58599C12.4742 7.42395 12.5064 7.25427 12.5127 7.08265C12.5279 7.0399 12.5312 6.99378 12.522 6.94932C12.5376 6.81602 12.5327 6.68112 12.5074 6.54932L12.4967 6.44465C12.49 6.33469 12.4675 6.22625 12.43 6.12265C12.4306 6.08538 12.4192 6.04891 12.3974 6.01866C12.3802 5.91546 12.3433 5.81654 12.2887 5.72732C12.2834 5.68707 12.2651 5.64964 12.2367 5.62066C12.2094 5.53246 12.164 5.45094 12.1034 5.38132C12.0976 5.34902 12.0797 5.32014 12.0534 5.30065C12.0052 5.21132 11.9438 5.12975 11.8714 5.05866L11.8227 5.00598C11.7654 4.92191 11.6931 4.84914 11.6094 4.79132L11.5207 4.71199C11.4581 4.65024 11.3872 4.59751 11.31 4.55532L11.1987 4.48465C11.1184 4.4248 11.0281 4.37965 10.932 4.35132L10.8567 4.31332C10.7654 4.26248 10.6663 4.22733 10.5634 4.20932C10.5226 4.1859 10.477 4.17221 10.43 4.16932C10.3272 4.13693 10.2204 4.11854 10.1127 4.11466C10.0782 4.10103 10.0404 4.09778 10.004 4.10532C9.87416 4.07863 9.74033 4.0775 9.61003 4.10199C9.56616 4.09016 9.51965 4.09272 9.47736 4.10932V4.10932ZM7.78269 6.52399C7.83208 6.45152 7.86653 6.36993 7.88403 6.28399C7.96024 6.10728 8.00535 5.91873 8.01736 5.72666C8.03852 5.67662 8.04545 5.62171 8.03736 5.56799C8.05222 5.43507 8.05222 5.30091 8.03736 5.16799C8.04649 5.11919 8.04068 5.06876 8.02069 5.02332C8.0217 4.9174 8.00364 4.81218 7.96736 4.71266C7.96136 4.67666 7.96736 4.63666 7.93936 4.60732C7.9276 4.51393 7.89867 4.42352 7.85403 4.34065C7.85094 4.29999 7.83317 4.26184 7.80403 4.23332C7.77831 4.13624 7.73293 4.04548 7.67069 3.96666C7.66453 3.93467 7.6473 3.90587 7.62203 3.88532C7.57976 3.79799 7.52396 3.7179 7.45669 3.64799C7.44411 3.61336 7.42074 3.58367 7.39003 3.56332C7.33244 3.47648 7.25865 3.40156 7.17269 3.34265L7.09136 3.26866C7.03035 3.20327 6.95922 3.14812 6.88069 3.10532L6.79603 3.04465C6.71535 2.98295 6.62533 2.93457 6.52936 2.90132L6.44803 2.85732C6.35811 2.80408 6.25984 2.76643 6.15736 2.74598C6.14645 2.7363 6.13364 2.729 6.11976 2.72452C6.10587 2.72004 6.09121 2.71849 6.07669 2.71998C5.96706 2.6763 5.85116 2.65042 5.73336 2.64332L5.63069 2.63066C5.49876 2.60648 5.364 2.60176 5.23069 2.61665L5.09736 2.62265C4.92615 2.63265 4.75718 2.66653 4.59536 2.72332C4.52075 2.73635 4.44887 2.76182 4.38269 2.79866C4.20656 2.85529 4.03951 2.93702 3.8867 3.04132C3.37535 3.34968 2.98807 3.82729 2.79202 4.39132C2.75773 4.44694 2.73759 4.51012 2.73336 4.57532C2.67036 4.74621 2.63677 4.92654 2.63403 5.10866C2.61596 5.15887 2.61226 5.21313 2.62336 5.26532C2.60844 5.38995 2.61316 5.51616 2.63736 5.63933C2.62919 5.67658 2.63512 5.71553 2.65402 5.74865C2.65758 5.85685 2.67851 5.96377 2.71603 6.06532L2.74803 6.17599C2.77027 6.27876 2.80923 6.37717 2.86336 6.46732L2.90003 6.54399C2.93435 6.64111 2.98336 6.7324 3.04536 6.81466C3.05455 6.8463 3.07432 6.87382 3.10136 6.89265C3.15052 6.98415 3.21399 7.06719 3.28936 7.13865C3.29958 7.16782 3.32091 7.19179 3.3487 7.20533C3.40529 7.28363 3.47525 7.35132 3.55536 7.40532C3.57554 7.43592 3.60497 7.45929 3.63936 7.47199C3.70862 7.53974 3.78858 7.5956 3.87602 7.63732C3.89641 7.66246 3.92495 7.67968 3.95669 7.68599C4.03551 7.74822 4.12628 7.7936 4.22336 7.81932C4.25168 7.84836 4.28958 7.86613 4.33002 7.86932C4.4128 7.91429 4.50323 7.94346 4.59669 7.95533C4.62603 7.98666 4.66336 7.97732 4.70136 7.98332C4.80062 8.01971 4.90565 8.03779 5.01136 8.03665C5.05676 8.05681 5.10723 8.06262 5.15603 8.05332C5.28894 8.06824 5.42311 8.06824 5.55603 8.05332C5.60975 8.06147 5.66468 8.05455 5.71469 8.03332C5.90651 8.02008 6.0946 7.97385 6.27069 7.89665C6.35642 7.87914 6.43779 7.84469 6.51003 7.79532C7.07842 7.54508 7.53296 7.09173 7.78469 6.52399H7.78269Z" fill="#212121"/>
<path d="M9.22864 10.9093C9.07483 11.0124 8.94388 11.1461 8.84396 11.302H8.71063C8.85909 11.1042 9.03279 10.9267 9.2273 10.774C9.23938 10.8182 9.23984 10.8648 9.22864 10.9093V10.9093Z" fill="#212121"/>
<path d="M9.21533 11.298C9.21593 11.2945 9.21732 11.2912 9.2194 11.2883C9.22148 11.2854 9.2242 11.2831 9.22734 11.2814C9.23534 11.2954 9.228 11.2987 9.21533 11.298Z" fill="#212121"/>
</svg>
