<?xml version="1.0"?>
<!DOCTYPE svg PUBLIC "-//W3C//DTD SVG 1.1//EN"
  "http://www.w3.org/Graphics/SVG/1.1/DTD/svg11.dtd">
<svg xmlns="http://www.w3.org/2000/svg" width="108" height="45" viewBox="0 0 108 45">
  <g fill="none" fill-rule="evenodd">
    <path fill="#333"
          d="M.088 31.96h107.464c.048 0 .088.044.088.1v.88c0 .056-.04.1-.088.1H.088c-.049 0-.088-.044-.088-.1v-.88c0-.056.04-.1.088-.1M87.84 1h-3.96v.53c0 3.273 1.642 4.684 3.96 4.87V1zM9.318 9.241c5.137.02 8.57 2.627 8.57 7.214v12.39c-1.938-.073-3.177-.956-3.65-2.681-1.711 1.957-3.992 2.916-6.882 2.916-2.015 0-3.688-.576-5.019-1.689C1.007 26.28.36 24.705.36 22.748c0-1.995.722-3.53 2.167-4.604 1.445-1.113 3.232-1.65 5.323-1.65 2.244 0 4.259.498 5.97 1.458v-1.036c0-2.725-1.825-4.106-5.475-4.106-.73 0-1.443.068-2.136.202-1.883.25-3.086-.653-3.745-2.166 1.86-1.07 4.1-1.605 6.793-1.605h.06zm35.68 11.128c.494 3.185 3.232 5.065 7.034 5.065.773 0 1.522-.073 2.25-.217 1.86-.266 3.062.583 3.74 2.034-1.71 1.22-3.985 1.829-6.865 1.829-2.89 0-5.323-.921-7.338-2.763-1.977-1.842-2.966-4.221-2.966-7.176 0-2.8.875-5.18 2.662-7.06s4.068-2.84 6.92-2.84c1.9 0 3.536.499 4.905 1.535 2.775 1.995 3.954 5.104 3.954 8.519v1.074H44.998zm54.865 8.711c4.867 0 8.137-2.302 8.137-5.718 0-2.993-2.13-4.988-6.388-5.948l-2.167-.46c-.494-.153-1.369-.384-1.787-.575-.684-.346-1.179-.768-1.179-1.497 0-1.228 1.293-2.072 3.84-2.072.903 0 1.806.105 2.71.314 2.049.374 3.335-.56 4.02-2.168-1.71-1.14-4.03-1.715-6.882-1.715-4.98 0-7.908 2.11-7.908 5.526 0 3.261 2.015 4.796 6.273 5.87l2.32.576c.57.154 1.369.384 1.787.576.684.345 1.14.768 1.14 1.497 0 1.381-1.52 2.225-4.106 2.225-1.172 0-2.289-.126-3.346-.376-2.17-.503-3.53.393-4.258 2.01 1.635 1.13 4.638 1.935 7.794 1.935zM68.377 18.84l-3.409 4.564-3.621 4.85c2.032 1.31 4.243 1.203 6.218-1.442l3.383-4.53 3.382 4.53c1.975 2.645 4.187 2.751 6.218 1.442l-3.62-4.85-3.41-4.565 2.934-3.928 3.621-4.85c-2.032-1.31-4.243-1.203-6.218 1.442l-2.89 3.87a2.64 2.64 0 0 0-.017.023l-.022-.029-2.885-3.864c-1.975-2.645-4.187-2.751-6.219-1.442l3.622 4.85 2.933 3.928zM27.203 1.72v27.338c-2.403-.188-4.106-1.616-4.106-4.928V1.72h4.106zm9.126 0v27.338c-2.403-.188-4.107-1.616-4.107-4.928V1.72h4.107zm51.823 8.02v19.318c-2.403-.188-4.106-1.616-4.106-4.928V9.74h4.106zM12.416 23.858c.578-.432.955-.928.955-1.464v-.609l-.622-.35-.646-.363c-1.193-.669-2.624-1.01-4.253-1.01-1.336 0-2.372.299-3.176.917a3.558 3.558 0 0 0-.053.04l-.004.003-.03.023-.018.014c-.533.396-.724.868-.724 1.728 0 .916.2 1.48.697 1.896.045.037.09.073.137.108.681.515 1.529.76 2.626.76 1.332 0 3.787-.672 5.111-1.693zm40.97-10.141c-.818-.656-1.858-.984-3.141-.984-1.805 0-3.225.734-4.13 1.853a5.046 5.046 0 0 0-1.08 2.637H55.15c-.036-1.088-.412-2.073-1.191-2.956l-.004-.004a4.29 4.29 0 0 0-.568-.546z"/>
    <path fill="#000"
          d="M3.96 42.2v.92H0v-5.4h3.888v.92h-2.78v1.3H3.51v.853H1.108V42.2zM14.41 40.412c0-.258-.036-.497-.108-.715a1.598 1.598 0 0 0-.315-.562 1.408 1.408 0 0 0-.512-.365 1.745 1.745 0 0 0-.69-.13h-.923v3.56h.924c.262 0 .494-.046.696-.137.203-.091.372-.217.509-.377.135-.16.24-.348.311-.566a2.25 2.25 0 0 0 .108-.708zM10.8 43.12v-5.4h1.986a3 3 0 0 1 1.174.213c.336.142.617.335.843.578.225.243.395.529.508.856.112.327.169.675.169 1.045 0 .411-.063.783-.189 1.115a2.374 2.374 0 0 1-.542.851c-.236.236-.52.419-.85.548-.332.13-.703.194-1.113.194H10.8zM24.296 42.199c.246 0 .454-.05.622-.151.168-.101.304-.232.407-.393a1.63 1.63 0 0 0 .219-.555c.042-.21.064-.424.064-.646V37.72h1.032v2.734c0 .368-.044.713-.132 1.035a2.376 2.376 0 0 1-.414.846c-.189.241-.431.433-.728.574-.296.14-.65.211-1.062.211-.427 0-.79-.074-1.089-.223a2.03 2.03 0 0 1-.727-.589 2.35 2.35 0 0 1-.404-.85 4.018 4.018 0 0 1-.124-1.004V37.72H23v2.734c0 .227.021.444.064.653.043.21.116.394.219.555.103.162.237.291.403.39.166.098.37.147.61.147M33.84 40.192c0-.347.062-.69.186-1.028a2.75 2.75 0 0 1 1.415-1.556 2.67 2.67 0 0 1 1.172-.248c.518 0 .966.115 1.344.344.377.23.659.528.844.896l-.84.584a1.463 1.463 0 0 0-.27-.404 1.354 1.354 0 0 0-.34-.26 1.523 1.523 0 0 0-.38-.14 1.798 1.798 0 0 0-.39-.044c-.274 0-.513.056-.716.168a1.582 1.582 0 0 0-.507.436 1.925 1.925 0 0 0-.306.608 2.325 2.325 0 0 0-.103.676c0 .25.04.492.12.724.078.232.19.436.336.612.145.176.32.317.523.424.203.107.427.16.67.16.127 0 .258-.016.396-.048a1.488 1.488 0 0 0 .737-.42c.106-.11.19-.241.253-.396l.896.52a1.71 1.71 0 0 1-.384.564 2.47 2.47 0 0 1-.563.412 2.852 2.852 0 0 1-.67.256c-.237.059-.47.088-.697.088-.401 0-.769-.085-1.102-.256a2.869 2.869 0 0 1-.86-.668 3.1 3.1 0 0 1-.764-2.004M48.629 41.036l-.745-2.122-.776 2.122h1.52zM47.42 37.72h.927l2.053 5.4h-1.08l-.501-1.346h-1.885l-.495 1.346H45.36l2.06-5.4zM61.2 38.64h-1.798v4.48h-1.084v-4.48H56.52v-.92h4.68zM67.32 43.12h1.08v-5.4h-1.08zM74.89 40.24c0 .245.037.483.11.712.073.23.178.432.315.608.138.176.307.317.507.424.2.107.427.16.682.16.26 0 .49-.055.69-.164.2-.11.368-.255.506-.436s.241-.385.312-.612a2.327 2.327 0 0 0-.008-1.404 1.984 1.984 0 0 0-.32-.608 1.538 1.538 0 0 0-.506-.42 1.44 1.44 0 0 0-.674-.156c-.26 0-.491.055-.694.164-.202.11-.371.253-.506.432a1.954 1.954 0 0 0-.308.608c-.07.227-.105.457-.105.692m1.605 2.88c-.405 0-.773-.081-1.102-.244a2.71 2.71 0 0 1-.85-.648 2.956 2.956 0 0 1-.55-.924 3.008 3.008 0 0 1-.194-1.064c0-.379.069-.741.206-1.088.138-.347.328-.653.57-.92.24-.267.528-.479.86-.636a2.5 2.5 0 0 1 1.084-.236c.4 0 .764.084 1.094.252.33.168.612.388.846.66.233.272.415.581.545.928a2.99 2.99 0 0 1-.008 2.14 2.955 2.955 0 0 1-.56.912 2.699 2.699 0 0 1-.858.632 2.5 2.5 0 0 1-1.083.236M84.93 39.66v3.46h-1.05v-5.4h.814l2.816 3.544v-3.537h1.05v5.393h-.852z"/>
    <path fill="#FF640A"
          d="M100.829 41.036l-.745-2.122-.775 2.122h1.52zM99.62 37.72h.928l2.052 5.4h-1.08l-.501-1.346h-1.885l-.495 1.346H97.56l2.06-5.4zM106.56 43.12h1.08v-5.4h-1.08z"/>
  </g>
</svg>
