<svg xmlns="http://www.w3.org/2000/svg" width="18" height="18" viewBox="0 0 18 18"><defs><style>.a{fill:none;}.b{fill:#69a9f2;}</style></defs><g transform="translate(-769.602 -253.637)"><rect class="a" width="18" height="18" transform="translate(769.602 253.637)"/><g transform="translate(771.51 253.637)"><path class="b" d="M776.7,256.992a6.515,6.515,0,0,1,.005-.758.678.678,0,0,1,.737-.594.693.693,0,0,1,.661.681c.007.146,0,.293,0,.439,0,.068,0,.137,0,.218h1.283c0-.21,0-.41,0-.611a.71.71,0,1,1,1.42-.016c.009.2,0,.4,0,.623h1.271c0-.219-.011-.434,0-.648a.709.709,0,1,1,1.418.044c0,.195,0,.39,0,.6h1.288c0-.23-.011-.466,0-.7a.681.681,0,0,1,.6-.629.691.691,0,0,1,.763.451,1.3,1.3,0,0,1,.052.349c.008.173,0,.347,0,.546h1.2c.622,0,.876.252.876.875q0,7.359,0,14.718c0,.593-.264.857-.857.857H775.455c-.581,0-.852-.265-.852-.841q0-7.39,0-14.781a.73.73,0,0,1,.839-.828Zm10.153,15.015v-9.176H776.043v9.176Zm-8.745-13.582c0,.1,0,.175,0,.251,0,.147,0,.293-.006.439a.7.7,0,0,1-.66.663.686.686,0,0,1-.733-.578c-.036-.252-.028-.51-.039-.77h-.623v2.945h10.8v-2.945h-.641c0,.209.006.4,0,.6a.713.713,0,1,1-1.422-.012c0-.193,0-.387,0-.586H783.5c0,.236.008.459,0,.68a.689.689,0,0,1-.552.65.712.712,0,0,1-.866-.721c-.007-.205,0-.411,0-.608H780.81c0,.218.007.421,0,.622a.711.711,0,1,1-1.421-.021c0-.2,0-.4,0-.609Z" transform="translate(-774.602 -255.637)"/><path class="b" d="M879.107,463.071h-.255c-.656,0-1.312,0-1.968,0a1.422,1.422,0,0,1-.372-.042.7.7,0,0,1,.137-1.373,1.836,1.836,0,0,1,.188-.008c1.256,0,2.512,0,3.769,0a.724.724,0,0,1,.531,1.291,8.6,8.6,0,0,0-2.483,4.692.715.715,0,0,1-.672.658.683.683,0,0,1-.722-.512.966.966,0,0,1-.006-.392,10.053,10.053,0,0,1,1.75-4.144C879.034,463.2,879.059,463.148,879.107,463.071Z" transform="translate(-871.771 -453.017)"/></g></g></svg>