<svg xmlns="http://www.w3.org/2000/svg" width="90" height="90" viewBox="0 0 90 90"><defs><style>.a,.b{fill:none;}.a{stroke:#e6e9f3;stroke-width:2px;}.c{fill:#69a9f2;}.d{stroke:none;}</style></defs><g class="a"><circle class="d" cx="45" cy="45" r="45"/><circle class="b" cx="45" cy="45" r="44"/></g><g transform="translate(-746.537 -230.571)"><rect class="b" width="44" height="44" transform="translate(769.537 253.571)"/><g transform="translate(774.309 253.637)"><path class="c" d="M779.774,258.981a16.1,16.1,0,0,1,.013-1.871,1.674,1.674,0,0,1,1.819-1.467,1.71,1.71,0,0,1,1.63,1.681c.018.361.007.723.009,1.084,0,.169,0,.337,0,.539h3.165c0-.517-.009-1.012,0-1.507a1.753,1.753,0,1,1,3.5-.039c.022.5,0,1,0,1.538h3.137c0-.54-.027-1.071.006-1.6a1.751,1.751,0,1,1,3.5.109c.01.481,0,.962,0,1.487h3.179c0-.568-.028-1.149.007-1.726a1.68,1.68,0,0,1,1.474-1.553,1.706,1.706,0,0,1,1.883,1.113,3.206,3.206,0,0,1,.128.862c.021.427.005.855.005,1.348h2.966c1.534,0,2.162.622,2.162,2.159q0,18.158,0,36.316c0,1.464-.651,2.114-2.113,2.114q-14.775,0-29.549,0c-1.433,0-2.1-.654-2.1-2.074q0-18.236,0-36.471a1.8,1.8,0,0,1,2.07-2.044C777.67,258.98,778.665,258.981,779.774,258.981Zm25.051,37.05V273.389H778.158v22.642Zm-21.58-33.514c0,.245,0,.432,0,.619,0,.362.009.724-.014,1.084a1.723,1.723,0,0,1-1.628,1.635,1.692,1.692,0,0,1-1.808-1.426c-.089-.622-.068-1.259-.1-1.9h-1.536V269.8h26.66V262.53h-1.582c0,.516.015,1,0,1.477a1.758,1.758,0,1,1-3.509-.03c-.009-.477,0-.955,0-1.447h-3.171c0,.583.019,1.132,0,1.679a1.7,1.7,0,0,1-1.362,1.605,1.756,1.756,0,0,1-2.136-1.779c-.017-.507,0-1.015,0-1.5H789.92c0,.538.017,1.038,0,1.536a1.754,1.754,0,1,1-3.506-.052c-.009-.493,0-.987,0-1.5Z" transform="translate(-774.602 -255.637)"/><path class="c" d="M883.638,465.164h-.628c-1.619,0-3.238.006-4.856,0a3.508,3.508,0,0,1-.919-.1,1.739,1.739,0,0,1,.339-3.387,4.53,4.53,0,0,1,.464-.02c3.1,0,6.2.008,9.3-.006a1.786,1.786,0,0,1,1.31,3.186,21.231,21.231,0,0,0-6.127,11.577,1.764,1.764,0,0,1-1.658,1.625,1.685,1.685,0,0,1-1.782-1.263,2.379,2.379,0,0,1-.015-.967,24.8,24.8,0,0,1,4.318-10.225C883.458,465.472,883.521,465.355,883.638,465.164Z" transform="translate(-865.538 -440.355)"/></g></g></svg>