<svg xmlns="http://www.w3.org/2000/svg" width="16" height="16" viewBox="0 0 16 16"><defs><style>.a{fill:#fff;}.a,.b{fill-rule:evenodd;}.b{fill:#ca4638;}</style></defs><path class="a" d="M40.667,13.963a8,8,0,0,1-10.667,0V2.037a8,8,0,0,1,10.667,0Zm0,0" transform="translate(-27.333 0)"/><path class="b" d="M13.333,34.917a8.083,8.083,0,0,0,0-12Zm-10.667-12a8.083,8.083,0,0,0,0,12Zm0,0" transform="translate(0 -20.88)"/><path class="b" d="M56.308,50.063l-.574,1.071c-.065.116-.182.106-.3.041l-.416-.215.31,1.645c.065.3-.144.3-.247.171l-.725-.812-.118.412a.141.141,0,0,1-.163.1l-.917-.193.241.876c.052.195.092.276-.052.327l-.327.154L54.6,54.918a.207.207,0,0,1,.072.215l-.138.454c.544-.063,1.031-.157,1.575-.215.048-.005.128.074.128.13l-.072,1.661h.264L56.387,55.5c0-.056.073-.138.121-.133.544.058,1.031.152,1.575.215l-.138-.454a.207.207,0,0,1,.072-.215l1.579-1.283-.327-.154c-.144-.051-.1-.132-.052-.327l.241-.876-.917.193a.141.141,0,0,1-.163-.1l-.118-.412-.725.812c-.1.13-.312.13-.247-.171l.31-1.645-.416.215c-.117.065-.233.076-.3-.041" transform="translate(-48.308 -45.612)"/></svg>