<svg xmlns="http://www.w3.org/2000/svg" width="28" height="28" viewBox="0 0 28 28"><defs><style>.a{fill:#fff;}.b{fill:none;}</style></defs><g transform="translate(-542.917 -324.984)"><g transform="translate(542.917 324.984)"><path class="a" d="M572.166,318.179V314.9q0-2.35,0-4.7a1.07,1.07,0,0,1,1.217-1.218q5.379,0,10.758,0c.867,0,1.257.388,1.258,1.25q0,3.621,0,7.242v.685c.132.006.243.016.355.016h5.675a1.068,1.068,0,0,1,1.217,1.215q0,8.2,0,16.4a1.06,1.06,0,0,1-1.206,1.19q-5.4,0-10.793,0a1.087,1.087,0,0,1-1.233-1.242q0-3.76,0-7.52v-.4H578.15c0,.119,0,.241,0,.363q0,3.725,0,7.451c0,.985-.363,1.355-1.332,1.355H566.2c-.915,0-1.283-.369-1.283-1.289q0-8.13,0-16.26c0-.874.379-1.255,1.246-1.255q2.751,0,5.5,0Zm-5.133,2.106v14.59h9v-7.056a.448.448,0,0,0-.09-.024l-2.472,0c-.937,0-1.31-.371-1.31-1.3q0-2.925,0-5.849v-.354Zm23.5,14.6V320.3H585.4v.411q0,2.96,0,5.92a1.053,1.053,0,0,1-1.167,1.162c-.731,0-1.462,0-2.194,0h-.5v7.094ZM574.28,311.091v14.582h9.011V311.091Z" transform="translate(-564.917 -308.984)"/><path class="a" d="M618.993,610.981c.649,0,1.3,0,1.946,0a1.048,1.048,0,1,1,0,2.088q-1.928.008-3.857,0a1.046,1.046,0,1,1,0-2.086C617.719,610.977,618.356,610.981,618.993,610.981Z" transform="translate(-612.405 -589.947)"/><path class="a" d="M827.164,610.972c.649,0,1.3,0,1.946,0a1.046,1.046,0,1,1,0,2.087q-1.928.008-3.857,0a1.048,1.048,0,1,1,0-2.087C825.89,610.97,826.527,610.973,827.164,610.972Z" transform="translate(-806.053 -589.939)"/><path class="a" d="M713.011,354.54a3.551,3.551,0,1,1,3.51,3.574A3.558,3.558,0,0,1,713.011,354.54Zm5.011.026a1.46,1.46,0,1,0-1.463,1.457A1.474,1.474,0,0,0,718.023,354.566Z" transform="translate(-702.697 -348.085)"/><path class="a" d="M723.1,468.973c.649,0,1.3-.005,1.946,0a1.044,1.044,0,1,1,.013,2.085q-1.963.012-3.926,0a1.043,1.043,0,1,1-.013-2.084C721.779,468.965,722.44,468.973,723.1,468.973Z" transform="translate(-709.232 -457.828)"/></g><rect class="b" width="28" height="28" transform="translate(542.917 324.984)"/></g></svg>