<?xml version="1.0" encoding="utf-8"?>
<!-- Generator: Adobe Illustrator 16.0.0, SVG Export Plug-In . SVG Version: 6.00 Build 0)  -->
<!DOCTYPE svg PUBLIC "-//W3C//DTD SVG 1.1//EN" "http://www.w3.org/Graphics/SVG/1.1/DTD/svg11.dtd">
<svg version="1.1" id="Layer_1" xmlns="http://www.w3.org/2000/svg" xmlns:xlink="http://www.w3.org/1999/xlink" x="0px" y="0px"
	 width="99px" height="32px" viewBox="0 0 99 32" style="enable-background:new 0 0 99 32;" xml:space="preserve">
<path style="fill:#B2B2B2;" d="M57.016,25.391c-1.273,0.577-2.739,0.865-4.398,0.865c-1.514,0-2.911-0.247-4.193-0.742
	c-1.282-0.494-2.393-1.195-3.333-2.104c-0.941-0.907-1.679-1.993-2.213-3.258c-0.536-1.265-0.802-2.658-0.802-4.18
	c0-1.558,0.271-2.969,0.816-4.234c0.544-1.265,1.295-2.342,2.255-3.231c0.958-0.889,2.084-1.571,3.375-2.048
	c1.291-0.477,2.684-0.715,4.178-0.715c1.383,0,2.744,0.243,4.081,0.729c1.337,0.486,2.421,1.196,3.251,2.131l-3.209,3.19
	c-0.443-0.605-1.023-1.054-1.743-1.348c-0.72-0.293-1.458-0.439-2.214-0.439c-0.83,0-1.591,0.151-2.283,0.454
	c-0.691,0.302-1.286,0.719-1.784,1.251s-0.886,1.16-1.162,1.883c-0.277,0.725-0.415,1.517-0.415,2.378
	c0,0.88,0.138,1.687,0.415,2.42c0.276,0.732,0.659,1.36,1.148,1.883c0.489,0.523,1.074,0.932,1.757,1.225
	c0.682,0.293,1.43,0.439,2.241,0.439c0.94,0,1.761-0.184,2.462-0.55s1.264-0.843,1.688-1.43l3.292,3.079
	C59.357,24.029,58.288,24.812,57.016,25.391 M69.757,27.414c-0.275,0.723-0.583,1.366-0.923,1.932
	c-0.34,0.564-0.744,1.047-1.213,1.445c-0.468,0.398-1.019,0.699-1.652,0.903C65.336,31.898,64.587,32,63.725,32
	c-0.424,0-0.859-0.027-1.31-0.084c-0.45-0.055-0.84-0.129-1.171-0.222l0.496-3.836c0.221,0.073,0.464,0.134,0.73,0.181
	c0.266,0.046,0.51,0.069,0.729,0.069c0.698,0,1.202-0.162,1.515-0.486s0.579-0.782,0.8-1.376l0.44-1.139l-5.73-13.62h5.014
	l3.059,8.895h0.082l2.729-8.895H75.9L69.757,27.414z M77.55,25.436h4.95V4.923h-4.95V25.436z M94.758,18.816
	c0-0.446-0.072-0.883-0.215-1.311c-0.145-0.427-0.35-0.803-0.618-1.128c-0.269-0.325-0.601-0.589-0.993-0.794
	c-0.395-0.204-0.852-0.307-1.37-0.307c-0.52,0-0.976,0.103-1.369,0.307c-0.394,0.205-0.722,0.469-0.98,0.794
	c-0.26,0.326-0.456,0.702-0.591,1.128c-0.135,0.428-0.201,0.864-0.201,1.311c0,0.445,0.066,0.882,0.201,1.309
	c0.135,0.428,0.336,0.813,0.604,1.157c0.27,0.344,0.6,0.618,0.994,0.821c0.394,0.205,0.851,0.307,1.37,0.307
	c0.519,0,0.976-0.102,1.369-0.307c0.394-0.203,0.726-0.478,0.993-0.821c0.27-0.344,0.471-0.729,0.605-1.157
	C94.689,19.698,94.758,19.262,94.758,18.816 M99,18.816c0,1.133-0.197,2.159-0.591,3.078c-0.394,0.92-0.931,1.701-1.61,2.342
	c-0.682,0.641-1.469,1.138-2.363,1.49c-0.896,0.354-1.854,0.529-2.874,0.529c-1.003,0-1.956-0.176-2.86-0.529
	c-0.904-0.353-1.691-0.85-2.362-1.49s-1.204-1.422-1.599-2.342c-0.394-0.919-0.59-1.945-0.59-3.078c0-1.134,0.196-2.155,0.59-3.066
	c0.395-0.91,0.928-1.681,1.599-2.313c0.671-0.631,1.458-1.114,2.362-1.449s1.857-0.501,2.86-0.501c1.021,0,1.978,0.167,2.874,0.501
	c0.895,0.334,1.682,0.818,2.363,1.449c0.68,0.632,1.217,1.403,1.61,2.313C98.803,16.661,99,17.683,99,18.816 M19.8,0
	c8.657,0,15.675,6.98,15.675,15.59c0,8.609-7.018,15.59-15.675,15.59V0z M10.725,15.59c0,1.812-1.478,3.282-3.3,3.282
	c-1.822,0-3.3-1.47-3.3-3.282s1.478-3.282,3.3-3.282C9.248,12.308,10.725,13.777,10.725,15.59 M14.85,9.025
	c0,1.813-1.478,3.282-3.3,3.282c-1.822,0-3.3-1.469-3.3-3.282c0-1.812,1.478-3.282,3.3-3.282C13.373,5.744,14.85,7.213,14.85,9.025
	 M6.6,9.436c0,1.133-0.923,2.051-2.062,2.051s-2.062-0.918-2.062-2.051s0.923-2.051,2.062-2.051S6.6,8.303,6.6,9.436 M18.975,9.025
	c0,0.907-0.739,1.641-1.65,1.641c-0.912,0-1.65-0.734-1.65-1.641c0-0.906,0.739-1.641,1.65-1.641
	C18.236,7.385,18.975,8.119,18.975,9.025 M18.975,22.975c0,0.906-0.739,1.641-1.65,1.641c-0.912,0-1.65-0.734-1.65-1.641
	s0.739-1.641,1.65-1.641C18.236,21.334,18.975,22.068,18.975,22.975 M17.325,2.872c0,1.133-0.924,2.051-2.062,2.051
	c-1.139,0-2.062-0.918-2.062-2.051c0-1.133,0.923-2.051,2.062-2.051C16.401,0.82,17.325,1.739,17.325,2.872 M17.325,28.308
	c0,1.133-0.924,2.052-2.062,2.052c-1.139,0-2.062-0.919-2.062-2.052s0.923-2.052,2.062-2.052
	C16.401,26.256,17.325,27.175,17.325,28.308 M6.6,21.744c0,1.133-0.923,2.051-2.062,2.051s-2.062-0.918-2.062-2.051
	s0.923-2.052,2.062-2.052S6.6,20.611,6.6,21.744 M9.9,27.487c0,0.68-0.554,1.23-1.237,1.23c-0.684,0-1.238-0.551-1.238-1.23
	s0.554-1.231,1.238-1.231C9.346,26.256,9.9,26.808,9.9,27.487 M8.25,2.872c0,0.68-0.554,1.231-1.238,1.231
	c-0.683,0-1.237-0.551-1.237-1.231c0-0.68,0.554-1.23,1.237-1.23C7.696,1.641,8.25,2.192,8.25,2.872 M18.975,15.59
	c0,1.812-1.478,3.282-3.3,3.282c-1.822,0-3.3-1.47-3.3-3.282s1.478-3.282,3.3-3.282C17.498,12.308,18.975,13.777,18.975,15.59
	 M14.85,22.975c0,1.812-1.478,3.281-3.3,3.281c-1.822,0-3.3-1.469-3.3-3.281s1.478-3.282,3.3-3.282
	C13.373,19.692,14.85,21.162,14.85,22.975 M2.475,15.18c0,0.68-0.554,1.23-1.238,1.23S0,15.859,0,15.18s0.554-1.231,1.237-1.231
	S2.475,14.5,2.475,15.18"/>
</svg>
