<svg xmlns="http://www.w3.org/2000/svg" width="190" height="133" viewBox="0 0 190 133"><defs><style>.a{fill:#f2b269;}.b{fill:#66bb6a;}.c{fill:#8787f6;}.d{fill:#69a9f2;}.e{fill:#00dce8;}.f{fill:#ef5350;}.g{fill:none;stroke:#fff;stroke-linecap:round;stroke-linejoin:round;stroke-width:4px;}</style></defs><g transform="translate(-606 -184)"><g transform="translate(16.125 9)"><circle class="a" cx="4" cy="4" r="4" transform="translate(628.875 221)"/><ellipse class="b" cx="3.5" cy="3" rx="3.5" ry="3" transform="translate(690.875 302)"/><circle class="c" cx="4" cy="4" r="4" transform="translate(724.875 214)"/><circle class="b" cx="4" cy="4" r="4" transform="translate(747.875 229)"/><ellipse class="c" cx="3.5" cy="3" rx="3.5" ry="3" transform="translate(643.875 293)"/><path class="a" d="M82.287,27.787l-8,4-6-6,2,8-8,4,8,1,2,8,4-7,8,1-6-6Z" transform="translate(609.588 162.213)"/><path class="c" d="M75.5,59.625l-2,6h-5l4,3-2,5,5-3,5,3-2-5,5-3h-6Z" transform="translate(653.375 222.375)"/><path class="d" d="M75.5,59.625l-2,6h-5l4,3-2,5,5-3,5,3-2-5,5-3h-6Z" transform="translate(528.375 177.375)"/><path class="c" d="M66,68.75c18.677,0,22.846-12.46,26-22,2.627-7.939,4.083-14,13-14a2,2,0,0,0,0-4c-11.627,0-14.272,8.75-17,17-3.2,9.69-6.033,19-22,19a2,2,0,0,0,0,4Z" transform="translate(525.875 233.25)"/><path class="e" d="M54.125,62c13.14-10.513,8.513-17.192,4-24-2.524-3.8-5-8.007-5-13a2,2,0,0,0-4,0c0,6.124,3.3,10.929,6,15,4.387,6.615,6.464,10.63-4,19-.808.647-.647,2.19,0,3S53.321,62.643,54.125,62Z" transform="translate(598.75 152)"/><path class="f" d="M103.25,68.626a2,2,0,0,0,0-4c-5.359,0-9.864-2.242-14-5-6.679-4.453-13.408-9.594-23,0a2.121,2.121,0,0,0,3,3c7.419-7.417,11.359-4.427,18,0C91.637,65.551,96.755,68.626,103.25,68.626Z" transform="translate(674.625 203.374)"/><ellipse class="d" cx="3.5" cy="3" rx="3.5" ry="3" transform="translate(753.875 284)"/></g><g transform="translate(662 223)"><g transform="translate(-606 -151)"><circle class="b" cx="40" cy="40" r="40" transform="translate(606 151)"/><path class="g" d="M30.722,6.278l-18,18-9-9" transform="translate(629.778 177.222)"/></g></g></g></svg>