<svg xmlns="http://www.w3.org/2000/svg" width="16.2" height="16" viewBox="0 0 16.2 16"><defs><style>.a{fill:#69a9f2;stroke:#fff;stroke-width:0.2px;}.b{fill:none;}</style></defs><g transform="translate(0.1)"><g transform="translate(0 1.143)"><path class="a" d="M531.753,305.636a2.83,2.83,0,0,1,1.686-1.082,3.389,3.389,0,0,1,.676-.069c1.653-.006,3.307,0,4.96,0,.472,0,.675.207.675.683q0,6.384,0,12.767a1.2,1.2,0,0,1-.023.3.584.584,0,0,1-.643.413H524.451c-.033,0-.067,0-.1,0a.567.567,0,0,1-.6-.611c0-.954,0-1.909,0-2.863q0-4.994,0-9.987a.976.976,0,0,1,.1-.444.579.579,0,0,1,.575-.257c1.509,0,3.018,0,4.528,0a6.922,6.922,0,0,1,.93.039,2.763,2.763,0,0,1,1.8,1.036C531.7,305.579,531.721,305.6,531.753,305.636Zm-6.858-.007v9.417h.207c1.359,0,2.719,0,4.078,0a3.105,3.105,0,0,1,1.55.37c.148.082.288.179.454.283v-.129q0-4.1,0-8.206a1.69,1.69,0,0,0-1.66-1.734c-1.525-.028-3.051-.009-4.577-.01A.349.349,0,0,0,524.895,305.629Zm13.713,0c-.063,0-.117-.009-.171-.009q-2.147,0-4.294,0a2.166,2.166,0,0,0-.414.032,1.731,1.731,0,0,0-1.412,1.764q0,4.061,0,8.122v.168c.056-.037.087-.056.117-.077a2.9,2.9,0,0,1,1.705-.575c1.426-.006,2.852,0,4.278,0h.192ZM524.9,316.187V317.5h6.181a.279.279,0,0,0,0-.059,1.019,1.019,0,0,0-.042-.108,1.851,1.851,0,0,0-1.774-1.151c-1.4-.008-2.807,0-4.211,0C525,316.179,524.95,316.184,524.9,316.187Zm7.509,1.313h6.2v-1.312c-.051,0-.094-.008-.137-.008-1.415,0-2.83,0-4.244,0a1.945,1.945,0,0,0-.557.078A1.872,1.872,0,0,0,532.406,317.5Z" transform="translate(-523.75 -304.481)"/><path class="a" d="M601.826,400.193c-.338,0-.676,0-1.014,0a.566.566,0,1,1,0-1.13q1.022-.007,2.044,0a.567.567,0,1,1,0,1.131c-.172,0-.343,0-.515,0Z" transform="translate(-597.663 -395.909)"/><path class="a" d="M601.865,531.923c.339,0,.677,0,1.016,0a.566.566,0,1,1,0,1.131q-1.024.006-2.048,0a.567.567,0,1,1,0-1.131C601.177,531.921,601.521,531.923,601.865,531.923Z" transform="translate(-597.682 -524.348)"/><path class="a" d="M601.883,465.556c.365,0,.732-.014,1.1,0a.55.55,0,0,1,.482.756.532.532,0,0,1-.428.352,1,1,0,0,1-.165.015c-.665,0-1.329,0-1.994,0a.566.566,0,0,1-.6-.727.558.558,0,0,1,.565-.4c.349-.006.7,0,1.047,0Z" transform="translate(-597.698 -460.186)"/><path class="a" d="M831.624,400.173c-.344,0-.687,0-1.031,0a.565.565,0,1,1-.009-1.129q1.039-.009,2.078,0a.565.565,0,1,1-.008,1.129C832.312,400.175,831.968,400.173,831.624,400.173Z" transform="translate(-819.8 -395.889)"/><path class="a" d="M831.544,466.8c-.344,0-.687.008-1.03,0a.562.562,0,0,1-.559-.757.5.5,0,0,1,.471-.362c.748-.009,1.5-.012,2.243,0a.555.555,0,0,1,.021,1.1c-.381.021-.764.005-1.146.005Z" transform="translate(-819.721 -460.305)"/><path class="a" d="M831.637,531.925c.344,0,.687,0,1.031,0a.566.566,0,1,1,0,1.13q-1.039.007-2.078,0a.565.565,0,1,1,.014-1.13C830.95,531.922,831.294,531.925,831.637,531.925Z" transform="translate(-819.809 -524.35)"/></g><rect class="b" width="16" height="16"/></g></svg>