<svg xmlns="http://www.w3.org/2000/svg" width="90" height="90" viewBox="0 0 90 90"><defs><style>.a,.d{fill:none;}.a{stroke:#e6e9f3;stroke-width:2px;}.b{fill:#69a9f2;}.c{stroke:none;}</style></defs><g class="a"><circle class="c" cx="45" cy="45" r="45"/><circle class="d" cx="45" cy="45" r="44"/></g><g transform="translate(23 23)"><path class="b" d="M576.419,323.433v-5.146q0-3.693,0-7.386a1.69,1.69,0,0,1,1.93-1.913q8.535,0,17.07,0c1.376,0,1.995.609,2,1.964q0,5.69,0,11.38v1.077c.209.01.386.026.563.026q4.5,0,9,0a1.687,1.687,0,0,1,1.932,1.91q0,12.885,0,25.77a1.674,1.674,0,0,1-1.914,1.87q-8.563,0-17.126,0a1.716,1.716,0,0,1-1.956-1.952q0-5.909,0-11.818v-.636h-2.005c0,.186,0,.379,0,.571q0,5.854,0,11.708c0,1.548-.576,2.13-2.114,2.129l-16.85,0c-1.452,0-2.035-.58-2.035-2.025q0-12.775,0-25.551c0-1.374.6-1.972,1.977-1.973q4.364,0,8.729,0Zm-8.145,3.309v22.928H582.56V338.581a.719.719,0,0,0-.142-.038q-1.961,0-3.922-.006c-1.486,0-2.078-.583-2.078-2.048q0-4.6,0-9.192v-.557Zm37.286,22.943V326.76h-8.144v.646q0,4.651,0,9.3a1.663,1.663,0,0,1-1.852,1.826c-1.16.006-2.321,0-3.481,0h-.8v11.148ZM579.773,312.3v22.914h14.3V312.3Z" transform="translate(-564.917 -308.984)"/><path class="b" d="M620.772,610.982c1.029,0,2.058-.006,3.088,0a1.649,1.649,0,1,1,0,3.28q-3.06.012-6.119,0a1.645,1.645,0,1,1,0-3.278C618.75,610.975,619.761,610.982,620.772,610.982Z" transform="translate(-610.32 -577.928)"/><path class="b" d="M828.958,610.973c1.029,0,2.058-.006,3.088,0a1.645,1.645,0,1,1-.005,3.28q-3.06.013-6.12,0a1.649,1.649,0,1,1,.005-3.281C826.937,610.97,827.948,610.973,828.958,610.973Z" transform="translate(-795.463 -577.92)"/><path class="b" d="M713.011,356.555a5.635,5.635,0,1,1,5.569,5.616A5.619,5.619,0,0,1,713.011,356.555Zm7.951.041a2.317,2.317,0,1,0-2.322,2.29A2.328,2.328,0,0,0,720.963,356.6Z" transform="translate(-696.646 -346.412)"/><path class="b" d="M724.9,468.974c1.029,0,2.059-.008,3.087,0a1.642,1.642,0,1,1,.021,3.276q-3.115.019-6.23,0a1.64,1.64,0,1,1-.021-3.275C722.8,468.963,723.85,468.975,724.9,468.974Z" transform="translate(-702.894 -451.461)"/></g></svg>