<svg xmlns="http://www.w3.org/2000/svg" width="30" height="30.273" viewBox="0 0 30 30.273"><defs><style>.a{fill:#f4f6fc;}.b{fill:#e6e9f3;}</style></defs><g transform="translate(-1295 -11)"><circle class="a" cx="15" cy="15" r="15" transform="translate(1295 11)"/><path class="b" d="M47.089,46.093a24.283,24.283,0,0,1-.053-2.473,4.841,4.841,0,0,0,1.327-2.872c.337-.028.869-.357,1.025-1.655a1.212,1.212,0,0,0-.453-1.213c.549-1.65,1.688-6.755-2.108-7.283-.391-.686-1.391-1.033-2.691-1.033-5.2.1-5.829,3.928-4.689,8.316a1.215,1.215,0,0,0-.453,1.213c.156,1.3.687,1.628,1.025,1.655a4.83,4.83,0,0,0,1.358,2.872,24.289,24.289,0,0,1-.053,2.473c-.741,1.992-4.545,2.147-6.74,4.068a14.363,14.363,0,0,0,9.938,3.963c3.924,0,8.537-3.1,9.3-3.944C51.645,48.242,47.832,48.092,47.089,46.093Z" transform="translate(1266 -12.851)"/></g></svg>