<svg xmlns="http://www.w3.org/2000/svg" xmlns:xlink="http://www.w3.org/1999/xlink" width="16" height="16" viewBox="0 0 16 16"><defs><style>.a{clip-path:url(#a);}.b{fill:#479951;}.c{fill:#fff;}.d{fill:#ce6f2d;}.e{fill:#346da6;fill-rule:evenodd;}</style><clipPath id="a"><circle cx="8" cy="8" r="8"/></clipPath></defs><g class="a"><rect class="b" width="16" height="5.091" transform="translate(0 10.909)"/><rect class="c" width="16" height="5.818" transform="translate(0 5.091)"/><rect class="d" width="16" height="5.091"/><path class="e" d="M68.245,70.49A2.245,2.245,0,1,0,66,68.245,2.245,2.245,0,0,0,68.245,70.49Zm0-.206a2.037,2.037,0,1,0-2.034-2.037A2.035,2.035,0,0,0,68.245,70.284Zm-.032-1.649a.369.369,0,1,0-.369-.369A.369.369,0,0,0,68.213,68.635Zm0,1.624.063-1.107-.063-.527-.063.527Zm-.253.076a.092.092,0,1,0-.079-.1A.092.092,0,0,0,67.96,70.335Zm-.264-.144.347-1.053.075-.525-.2.493Zm-.482-.2.608-.927.209-.488L67.713,69Zm-.414-.318.827-.738.328-.417-.417.328Zm-.318-.414.99-.5.425-.318-.488.209Zm-.2-.482,1.085-.225.493-.2-.525.075Zm-.068-.517,1.107.063.527-.063-.527-.063Zm.068-.517,1.053.348.525.075-.493-.2Zm.2-.482.927.608.488.209-.425-.318Zm.318-.414.738.827.417.328-.328-.417Zm.414-.318.5.99.318.425-.209-.488Zm.482-.2.225,1.085.2.493-.075-.525Zm.517-.068-.063,1.107.063.527.063-.527Zm.517.068-.347,1.053-.075.525.2-.493Zm.482.2-.608.927-.209.488.318-.425Zm.414.318-.827.738L68.471,68l.417-.328Zm.318.414-.99.5-.425.318.488-.209Zm.2.482-1.085.225-.493.2.525-.075Zm.068.517L69.1,68.2l-.527.063.527.063Zm-.068.517-1.053-.348-.525-.075.493.2Zm-.2.482-.927-.608-.488-.209.425.318Zm-.318.414-.738-.827-.417-.328.328.417Zm-.414.318-.5-.99-.318-.425.209.488Zm-.482.2-.225-1.085-.2-.493.075.525Zm-1.3.008a.092.092,0,1,0-.051-.12A.092.092,0,0,0,67.433,70.2Zm-.475-.268a.092.092,0,1,0-.018-.129A.092.092,0,0,0,66.958,69.931Zm-.389-.382a.092.092,0,1,0,.016-.129A.092.092,0,0,0,66.569,69.549Zm-.277-.47a.092.092,0,1,0,.049-.121A.092.092,0,0,0,66.291,69.08Zm-.146-.525a.092.092,0,1,0,.078-.1A.092.092,0,0,0,66.145,68.554Zm-.005-.545a.092.092,0,1,0,.1-.08A.092.092,0,0,0,66.139,68.009Zm.136-.528a.092.092,0,1,0,.12-.051A.092.092,0,0,0,66.275,67.481Zm.268-.475a.092.092,0,1,0,.129-.018A.092.092,0,0,0,66.543,67.006Zm.382-.389a.092.092,0,1,0,.129.016A.092.092,0,0,0,66.925,66.616Zm.47-.277a.092.092,0,1,0,.121.049A.092.092,0,0,0,67.395,66.339Zm.525-.146a.092.092,0,1,0,.1.078A.092.092,0,0,0,67.92,66.192Zm.545-.005a.092.092,0,1,0,.08.1A.092.092,0,0,0,68.465,66.187Zm.528.136a.092.092,0,1,0,.051.12A.092.092,0,0,0,68.993,66.323Zm.475.268a.092.092,0,1,0,.018.129A.092.092,0,0,0,69.468,66.591Zm.389.382a.092.092,0,1,0-.016.129A.092.092,0,0,0,69.858,66.973Zm.277.47a.092.092,0,1,0-.049.121A.092.092,0,0,0,70.135,67.442Zm.146.525a.092.092,0,1,0-.078.1A.092.092,0,0,0,70.282,67.968Zm.005.545a.092.092,0,1,0-.1.08A.092.092,0,0,0,70.287,68.513Zm-.136.528a.092.092,0,1,0-.12.051A.092.092,0,0,0,70.151,69.041Zm-.268.475a.092.092,0,1,0-.129.018A.092.092,0,0,0,69.883,69.516Zm-.382.389a.092.092,0,1,0-.129-.016A.092.092,0,0,0,69.5,69.906Zm-.47.277a.092.092,0,1,0-.121-.049A.092.092,0,0,0,69.032,70.183Zm-.525.146a.092.092,0,1,0-.1-.078A.092.092,0,0,0,68.507,70.329Zm0,0" transform="translate(-60.026 -60.026)"/></g></svg>