<svg xmlns="http://www.w3.org/2000/svg" width="120" height="120.002" viewBox="0 0 120 120.002"><defs><style>.a{fill:#fff;}.b{opacity:0.31;}.c{fill:#d5daeb;}.d{fill:#fafbfc;}.e{fill:#f2b269;}.f{fill:#66bb6a;}.g{fill:#ef5350;}.h{fill:#8787f6;}.i{fill:#00dce8;}.j{fill:#69a9f2;}.k{fill:#dfe3f0;}.l{fill:#e6e9f3;}</style></defs><g transform="translate(-542 -144)"><rect class="a" width="120" height="120" transform="translate(542 144)"/><g transform="translate(542 144)"><g transform="translate(0 47.563)"><g class="b"><path class="c" d="M23.259,113.392c.388-.866,23.983-53.612,29.089-65.025-1.316,6.846,6.609,19.23,15.234,27.857C78.065,86.707,89.831,92.855,95.924,91.288c-10.564,4.729-64.693,28.9-65.511,29.259-1.5.688-3.754-.032-5.43-1.725C23.291,117.146,22.571,114.888,23.259,113.392Z" transform="translate(-23 -48.367)"/></g></g><g transform="translate(0 47.563)"><path class="d" d="M23.259,113.392c.388-.866,23.983-53.612,29.089-65.025-1.314,6.84,6.594,19.207,15.21,27.832l-42.6,42.594C23.285,117.123,22.574,114.881,23.259,113.392Z" transform="translate(-23 -48.367)"/></g><g transform="translate(38.039 22.716)"><g transform="translate(0 0)"><circle class="e" cx="4.127" cy="4.127" r="4.127"/></g></g><g transform="translate(69.875 30.969)"><g transform="translate(0 0)"><ellipse class="f" cx="3.537" cy="2.948" rx="3.537" ry="2.948"/><ellipse class="g" cx="3.537" cy="2.948" rx="3.537" ry="2.948" transform="translate(4 71)"/></g></g><g transform="translate(104.069 43.94)"><g transform="translate(0 0)"><circle class="h" cx="4.127" cy="4.127" r="4.127"/></g></g><g transform="translate(106.428 85.208)"><g transform="translate(0 0)"><circle class="f" cx="4.127" cy="4.127" r="4.127"/></g></g><g transform="translate(63.98 5.029)"><g transform="translate(0 0)"><ellipse class="h" cx="3.537" cy="2.948" rx="3.537" ry="2.948"/></g></g><g transform="translate(74.117 4.742)"><path class="e" d="M81.931,27.635l-7.41,3.776L68.64,25.529l1.3,8.216-7.412,3.776,8.216,1.3,1.3,8.214,3.776-7.412,8.214,1.3-5.882-5.88Z" transform="translate(-62.529 -25.529)"/></g><g transform="translate(84.375 69.375)"><g transform="translate(0)"><path class="h" d="M75.566,60l-1.787,5.5H68l4.676,3.1-1.787,5.351,4.676-3.471,4.676,3.36-1.787-5.222L83.131,65.5H77.352Z" transform="translate(-68 -60)"/><path class="i" d="M75.566,60l-1.787,5.5H68l4.676,3.1-1.787,5.351,4.676-3.471,4.676,3.36-1.787-5.222L83.131,65.5H77.352Z" transform="translate(-141 -106)"/></g></g><g transform="translate(76.875 11.25)"><g transform="translate(0)"><path class="f" d="M65.875,68.375c18.677,0,22.6-11.874,25.757-21.414,2.627-7.939,4.7-14.211,13.618-14.211a1.875,1.875,0,0,0,0-3.75C93.623,29,90.8,37.533,88.073,45.783c-3.2,9.69-6.231,18.842-22.2,18.842a1.875,1.875,0,1,0,0,3.75Z" transform="translate(-64 -29)"/></g></g><g transform="translate(48.75)"><path class="i" d="M53.922,61.964c13.14-10.513,8.473-17.55,3.96-24.358-2.524-3.8-5.132-7.738-5.132-12.731a1.875,1.875,0,1,0-3.75,0c0,6.124,3.058,10.734,5.756,14.8,4.387,6.615,7.286,10.987-3.178,19.357a1.875,1.875,0,1,0,2.344,2.927Z" transform="translate(-49 -23)"/></g><g transform="translate(80.625 58.659)"><g transform="translate(0)"><path class="g" d="M103.5,68.751a1.875,1.875,0,0,0,0-3.75c-5.359,0-9.636-2.852-13.772-5.61-6.679-4.453-13.586-9.06-23.179.534A1.875,1.875,0,1,0,69.2,62.577c7.419-7.417,11.8-4.492,18.446-.066C92.035,65.436,97.005,68.751,103.5,68.751Z" transform="translate(-66 -54.285)"/></g></g><g transform="translate(5.125 86.135)"><path class="j" d="M51.023,92.213c-17.094,7.7,3.487-1.53-13.624,6.139A131.921,131.921,0,0,1,25.733,84.515c1.991-4.451,4.417-9.877,6.967-15.576A98.83,98.83,0,0,0,51.023,92.213Z" transform="translate(-25.733 -68.939)"/></g><g transform="translate(5.125 86.134)"><path class="j" d="M41.483,81.879l-9.967,9.969c-2.016-2.374-3.952-4.819-5.782-7.335,1.991-4.451,4.417-9.877,6.967-15.576A98.484,98.484,0,0,0,41.483,81.879Z" transform="translate(-25.733 -68.938)"/></g><g transform="translate(29.172 43.008)"><path class="k" d="M53.968,78.348c12.15,12.148,26.042,18.5,30.8,13.734,4.723-4.723-1.438-18.508-13.738-30.825-12.317-12.3-26.1-18.441-30.823-13.738C34.71,53.013,43.883,68.262,53.968,78.348Z" transform="translate(-38.558 -45.938)"/></g><path class="j" d="M56.069,82.473c-6.7-9.069-10.757-18.649-11.614-27.206a13.725,13.725,0,0,1-.894-6.9L33.04,71.925A98.2,98.2,0,0,0,43.184,88.884a108.838,108.838,0,0,0,14.166,15.7L71.6,98.22A75.977,75.977,0,0,1,56.069,82.473Z" transform="translate(-14.215 -0.802)"/><g transform="translate(29.172 43.009)"><path class="l" d="M71.02,61.245,53.944,78.321c-10.076-10.086-19.228-25.314-13.736-30.8C44.933,42.82,58.707,48.955,71.02,61.245Z" transform="translate(-38.558 -45.938)"/></g><path class="j" d="M43.561,48.369,33.04,71.925A98.2,98.2,0,0,0,43.184,88.884c.411.555.849,1.084,1.269,1.631L54.6,80.366c-5.816-8.443-9.364-17.212-10.155-25.116A13.712,13.712,0,0,1,43.561,48.369Z" transform="translate(-14.215 -0.802)"/></g></g></svg>