<svg xmlns="http://www.w3.org/2000/svg" width="18" height="18" viewBox="0 0 18 18"><defs><style>.a{fill:none;}.b{fill:#69a9f2;}</style></defs><g transform="translate(-569.099 -302.089)"><rect class="a" width="18" height="18" transform="translate(569.099 302.089)"/><g transform="translate(569.917 302.089)"><path class="b" d="M583.5,315.018c.148.552.288,1.075.428,1.6q.469,1.745.938,3.49a.718.718,0,0,1-.247.834.693.693,0,0,1-.782.054.731.731,0,0,1-.365-.5c-.17-.64-.347-1.278-.512-1.919a.222.222,0,0,0-.259-.2q-2.419.009-4.839,0c-.155,0-.223.045-.262.2q-.248.973-.518,1.94a.724.724,0,0,1-1.1.454.737.737,0,0,1-.279-.878q.3-1.113.6-2.225.359-1.337.716-2.674c.012-.047.02-.095.037-.173h-4.075c-.6,0-.876-.275-.876-.865q0-5.1,0-10.2c0-.59.278-.864.877-.864h14.6c.61,0,.884.272.884.878q0,5.089,0,10.178a.76.76,0,0,1-.87.872H583.5ZM587,304.54H573.561v9.026H587Zm-4.489,12.389c-.167-.623-.322-1.215-.49-1.8-.014-.05-.122-.1-.187-.1-1.037-.007-2.074,0-3.111-.008-.137,0-.18.051-.21.173-.09.369-.194.735-.293,1.1l-.171.64Z" transform="translate(-572.099 -303.089)"/><path class="b" d="M808.56,501.741c-.433,0-.867.013-1.3,0a.677.677,0,0,1-.634-.608.7.7,0,0,1,.466-.767,1.094,1.094,0,0,1,.334-.05c.76,0,1.519-.007,2.279,0a.722.722,0,0,1,.771.925.687.687,0,0,1-.661.5c-.418.012-.838,0-1.256,0Z" transform="translate(-796.62 -491.96)"/></g></g></svg>