<svg xmlns="http://www.w3.org/2000/svg" width="18" height="18" viewBox="0 0 18 18"><defs><style>.a{fill:none;}.b{fill:#69a9f2;}</style></defs><g transform="translate(-558.239 -303.069)"><rect class="a" width="10" height="10" transform="translate(558.239 303.069)"/><g transform="translate(558.239 303.069)"><path class="b" d="M562.9,306.258V306c0-.6,0-1.2,0-1.8a1.1,1.1,0,0,1,1.165-1.134q3.172,0,6.344,0a1.1,1.1,0,0,1,1.171,1.128c0,.6,0,1.2,0,1.8v.248c.1,0,.176.011.253.011.729,0,1.458,0,2.188,0a2.114,2.114,0,0,1,2.163,1.65,2.71,2.71,0,0,1,.048.568c0,1.468,0,2.935,0,4.4a.823.823,0,0,1-.42.8c-.055.031-.08.152-.08.231,0,1.651,0,3.3,0,4.953a2.646,2.646,0,0,1-.027.464,2.1,2.1,0,0,1-2.174,1.735q-3.292.006-6.585,0-3,0-5.994,0a2.1,2.1,0,0,1-2.178-1.73,2.611,2.611,0,0,1-.027-.464q0-2.466,0-4.932a.3.3,0,0,0-.167-.322.648.648,0,0,1-.334-.606c0-1.573-.027-3.147.01-4.72a2.067,2.067,0,0,1,2.216-2.034c.722-.006,1.444,0,2.166,0Zm-2.664,7.5v.219q0,2.445,0,4.889c0,.541.224.761.777.761H573.48c.536,0,.767-.226.767-.75q0-2.455,0-4.91c0-.068-.008-.136-.012-.2h-4.744c0,.49,0,.962,0,1.434a.744.744,0,0,1-.843.81q-1.411,0-2.822,0a.738.738,0,0,1-.832-.8c-.005-.409,0-.818,0-1.228,0-.075-.008-.149-.013-.224Zm14.513-1.464v-.212q0-1.809,0-3.618c0-.542-.238-.769-.8-.769H560.54c-.575,0-.806.226-.806.787q0,1.788,0,3.576v.231h5.258c0-.3,0-.593,0-.881a.743.743,0,0,1,.846-.8q1.378,0,2.755,0c.619,0,.894.265.9.862,0,.273,0,.547,0,.829Zm-10.35-6.051h5.682v-1.718H564.4Zm3.593,5.814h-1.5v2.5h1.5Z" transform="translate(-558.239 -303.069)"/></g></g></svg>