<svg xmlns="http://www.w3.org/2000/svg" width="19" height="19" viewBox="0 0 19 19"><defs><style>.a{fill:none;}.b{fill:#69a9f2;}</style></defs><g transform="translate(-518.399 -300.586)"><rect class="a" width="19" height="19" transform="translate(518.399 300.586)"/><g transform="translate(518.899 302.341)"><path class="b" d="M523.565,310.1v-.237q0-2.866,0-5.732a.933.933,0,0,1,1.051-1.043h6.144a.931.931,0,0,1,1.036,1.041q0,2.866,0,5.732v.24h.22c1.146,0,2.293.017,3.439-.007a.971.971,0,0,1,1.014,1.014q-.028,3.1,0,6.2a.978.978,0,0,1-1.025,1.022q-3.1-.029-6.2,0a.971.971,0,0,1-1.012-1.016c.018-1.916.007-3.833.007-5.75v-.227H527.12v.206q0,2.893,0,5.785a.907.907,0,0,1-.666.962,1.262,1.262,0,0,1-.319.032q-3.126,0-6.251,0a.9.9,0,0,1-.984-.993q0-3.108,0-6.215a.908.908,0,0,1,1-1.01q1.711,0,3.421,0Zm5.905,6.987h5.762v-5.759H529.47Zm-4.676-7h5.774v-5.773h-5.774Zm1.094,7v-5.764h-5.755v5.764Z" transform="translate(-518.899 -303.086)"/><path class="b" d="M847.465,558.041a2.137,2.137,0,0,1,.245-1.245,1.729,1.729,0,0,1,2.672-.353.535.535,0,0,1,.044.768.523.523,0,0,1-.767.022.658.658,0,0,0-1.124.517c0,.2,0,.394,0,.591a.65.65,0,0,0,1.249.282.547.547,0,0,1,.6-.318.535.535,0,0,1,.366.782,1.643,1.643,0,0,1-1.386.993,1.665,1.665,0,0,1-1.635-.787A1.968,1.968,0,0,1,847.465,558.041Z" transform="translate(-835.688 -546.904)"/><path class="b" d="M718.177,363.048H716.9c0,.221.008.435,0,.647a.535.535,0,0,1-1.048.147.638.638,0,0,1-.023-.176c0-.627-.008-1.254,0-1.88a1.721,1.721,0,0,1,3.385-.417,1.355,1.355,0,0,1,.054.334q.009.994,0,1.988a.532.532,0,0,1-1.016.221.922.922,0,0,1-.054-.3c-.009-.173,0-.346-.006-.519A.218.218,0,0,0,718.177,363.048Zm-1.267-1.1h1.28a.651.651,0,0,0-.3-.686.6.6,0,0,0-.676,0A.65.65,0,0,0,716.91,361.951Z" transform="translate(-708.769 -358.043)"/><path class="b" d="M585.3,557.851c0-.471,0-.943,0-1.414,0-.436.2-.632.638-.633.489,0,.978,0,1.468,0a1.3,1.3,0,0,1,1.157,1.981.209.209,0,0,0,0,.171,1.3,1.3,0,0,1-1.16,1.979c-.5,0-1,0-1.5,0a.539.539,0,0,1-.6-.6C585.3,558.841,585.3,558.346,585.3,557.851Zm1.085-.523c.373,0,.729.006,1.085,0a.191.191,0,0,0,.2-.224c-.017-.083-.121-.205-.192-.21-.36-.021-.722-.01-1.094-.01Zm.024,1.533c.317,0,.649,0,.98,0,.179,0,.286-.085.29-.22s-.106-.229-.3-.232c-.214,0-.428,0-.642,0-.412,0-.412,0-.354.418C586.391,558.831,586.4,558.836,586.414,558.86Z" transform="translate(-582.924 -546.748)"/></g></g></svg>