<svg xmlns="http://www.w3.org/2000/svg" width="18" height="18" viewBox="0 0 18 18"><defs><style>.a{fill:none;}.b{fill:#69a9f2;}</style></defs><g transform="translate(-772.803 -247.272)"><rect class="a" width="18" height="18" transform="translate(772.803 247.272)"/><g transform="translate(774.731 247.272)"><path class="b" d="M779.7,256.307a8.286,8.286,0,0,1-1.236-2.372,5.432,5.432,0,0,1-.111-3.568,4.634,4.634,0,0,1,8.839,2.762,8.19,8.19,0,0,1-1.352,3.03c-.032.045-.062.093-.1.153.687.332,1.363.663,2.043.987a3.179,3.179,0,0,1,1.433,1.3,3.348,3.348,0,0,1,.359,2.21c-.176,1.257-.334,2.517-.5,3.775a.712.712,0,0,1-.768.682q-5.59,0-11.181,0a.711.711,0,0,1-.763-.688q-.266-2.035-.532-4.07a3.09,3.09,0,0,1,1.608-3.093c.673-.355,1.366-.671,2.05-1.005Zm6.2-4.436c-.015-.141-.027-.317-.053-.491a3.176,3.176,0,0,0-6.309.361,5.1,5.1,0,0,0,.389,2.021,5.527,5.527,0,0,0,1.622,2.387,1.641,1.641,0,0,0,2.176.107,4.291,4.291,0,0,0,1.295-1.487A6.281,6.281,0,0,0,785.9,251.871Zm-2.07,11.946h3.875a.754.754,0,0,0,.025-.094c.149-1.139.31-2.277.436-3.418a1.851,1.851,0,0,0-.118-.782c-.252-.719-.915-.942-1.541-1.228Zm-2.232,0-2.684-5.534c-.276.136-.533.25-.778.386a1.688,1.688,0,0,0-.869,1.778c.1.719.188,1.439.282,2.159.053.4.107.805.161,1.211Zm-1.379-6.145,1.732,3.57c.042-.645.04-1.273.043-1.9a.722.722,0,1,1,1.439.008c0,.571,0,1.143,0,1.714,0,.057.008.114.017.231l1.762-3.636a2.718,2.718,0,0,1-.334-.167.357.357,0,0,0-.451.023,2.888,2.888,0,0,1-3.213.113.771.771,0,0,0-.959.011C780.251,257.647,780.246,257.652,780.22,257.676Z" transform="translate(-775.803 -247.272)"/></g></g></svg>