<svg xmlns="http://www.w3.org/2000/svg" width="90" height="90" viewBox="0 0 90 90"><defs><style>.a,.b{fill:none;}.a{stroke:#e6e9f3;stroke-width:2px;}.c{fill:#69a9f2;}.d{stroke:none;}</style></defs><g transform="translate(0 0)"><g class="a" transform="translate(0 0)"><circle class="d" cx="45" cy="45" r="45"/><circle class="b" cx="45" cy="45" r="44"/></g><g transform="translate(23 27)"><rect class="b" width="44" height="44" transform="translate(0 -4)"/><path class="c" d="M513.317,327.213a5.8,5.8,0,0,1-.9-.377,1.357,1.357,0,0,1-.565-1.678q.968-2.38,2.006-4.731a1.408,1.408,0,0,1,1.422-.818c2.749.005,5.5.008,8.246-.008a1.44,1.44,0,0,0,.757-.233c2.562-1.738,5.109-3.5,7.667-5.241a.67.67,0,0,0,.34-.631c-.014-2.443-.008-4.887-.008-7.33,0-1.2.557-1.779,1.746-1.781q3.469-.006,6.937,0a1.548,1.548,0,0,1,1.757,1.775q0,1.963,0,3.927a1.549,1.549,0,0,1-1.773,1.759c-1.876,0-3.752,0-5.693,0,0,.661-.008,1.308.01,1.955,0,.084.127.182.215.243q3.952,2.718,7.914,5.421a1.07,1.07,0,0,0,.57.137c2.72.009,5.439.019,8.159,0a1.654,1.654,0,0,1,1.711,1.136c.539,1.317,1.06,2.644,1.676,3.925a1.614,1.614,0,0,1-1.293,2.5v.5q0,5.89,0,11.78c0,1.3-.528,1.827-1.822,1.827q-18.652,0-37.3,0a1.784,1.784,0,0,1-1.329-.426,1.686,1.686,0,0,1-.449-1.318q.008-5.89,0-11.78Zm28.294,11.066c.006-.1.015-.188.015-.271q0-7.921-.012-15.841a.735.735,0,0,0-.3-.5c-2.4-1.665-4.817-3.31-7.218-4.975a.5.5,0,0,0-.678.017q-3.588,2.479-7.193,4.933a.674.674,0,0,0-.326.64q.012,7.768.006,15.536v.462h2.832v-.583q0-4.8,0-9.6a1.537,1.537,0,0,1,1.745-1.742q3.208,0,6.415,0c1.376,0,1.9.52,1.9,1.9q0,4.757,0,9.514v.517Zm-25.294-11.146v11.138h6.591V327.134Zm28.31,0v11.139h6.589V327.133Zm-12.892,2.2v8.937h4.058v-8.937ZM515.5,324.114h7.41v-1.486a.393.393,0,0,0-.1-.04c-2.148,0-4.3-.009-6.444,0a.39.39,0,0,0-.291.182C515.875,323.2,515.7,323.64,515.5,324.114Zm29.1.006h7.422c-.177-.425-.356-.8-.49-1.2a.475.475,0,0,0-.547-.353c-1.989.013-3.977.007-5.966.008-.138,0-.275.012-.419.019Zm-9.357-15.26h4.471v-1.473h-4.471v1.473Z" transform="translate(-511.75 -304.382)"/><path class="c" d="M748.525,488.079a1.474,1.474,0,0,1-1.488-1.446A1.482,1.482,0,1,1,750,486.62,1.478,1.478,0,0,1,748.525,488.079Z" transform="translate(-726.5 -469.343)"/><path class="c" d="M586.422,586.746c0,.45.031.9-.006,1.35a1.456,1.456,0,0,1-1.464,1.334,1.423,1.423,0,0,1-1.439-1.307,26.281,26.281,0,0,1,0-2.785,1.416,1.416,0,0,1,1.477-1.308,1.44,1.44,0,0,1,1.424,1.324C586.453,585.815,586.422,586.282,586.422,586.746Z" transform="translate(-577.216 -559.62)"/><path class="c" d="M910.646,586.707c0-.45-.03-.9.006-1.35a1.44,1.44,0,0,1,1.419-1.33,1.417,1.417,0,0,1,1.483,1.3,25.867,25.867,0,0,1,0,2.785,1.426,1.426,0,0,1-1.478,1.311,1.446,1.446,0,0,1-1.424-1.327C910.616,587.639,910.647,587.171,910.646,586.707Z" transform="translate(-875.818 -559.619)"/></g></g></svg>