<svg xmlns="http://www.w3.org/2000/svg" width="90" height="90" viewBox="0 0 90 90"><defs><style>.a,.b{fill:none;}.a{stroke:#e6e9f3;stroke-width:2px;}.c{fill:#69a9f2;}.d{stroke:none;}</style></defs><g class="a"><circle class="d" cx="45" cy="45" r="45"/><circle class="b" cx="45" cy="45" r="44"/></g><g transform="translate(-495.899 -277.26)"><rect class="b" width="43" height="43" transform="translate(519.101 301.26)"/><g transform="translate(518.899 304.211)"><path class="c" d="M530.583,320.73v-.6q0-7.211,0-14.422a2.342,2.342,0,0,1,2.632-2.625H548.6a2.337,2.337,0,0,1,2.6,2.618q0,7.211,0,14.421v.6h.55c2.871,0,5.742.043,8.612-.017a2.438,2.438,0,0,1,2.54,2.551q-.07,7.8,0,15.593a2.454,2.454,0,0,1-2.567,2.572q-7.76-.072-15.52,0a2.438,2.438,0,0,1-2.534-2.557c.045-4.822.017-9.644.017-14.466v-.571h-2.809v.518q0,7.278,0,14.557a2.282,2.282,0,0,1-1.667,2.419,3.146,3.146,0,0,1-.8.08q-7.827.006-15.655,0a2.269,2.269,0,0,1-2.464-2.5q0-7.819,0-15.638a2.279,2.279,0,0,1,2.514-2.54q4.284,0,8.567,0Zm14.788,17.581H559.8v-14.49h-14.43ZM533.66,320.7H548.12V306.177H533.66Zm2.74,17.621v-14.5H521.988v14.5Z" transform="translate(-518.899 -303.086)"/><path class="c" d="M847.474,561.189a5.4,5.4,0,0,1,.613-3.132,4.318,4.318,0,0,1,6.691-.887,1.349,1.349,0,0,1,.111,1.933,1.306,1.306,0,0,1-1.921.056,1.647,1.647,0,0,0-2.814,1.3c.006.5-.011.991.005,1.486a1.628,1.628,0,0,0,3.127.709,1.369,1.369,0,0,1,1.5-.8,1.347,1.347,0,0,1,.917,1.966,4.115,4.115,0,0,1-3.472,2.5,4.162,4.162,0,0,1-4.094-1.981A4.968,4.968,0,0,1,847.474,561.189Z" transform="translate(-817.98 -533.169)"/><path class="c" d="M721.717,367.539h-3.2c0,.556.019,1.093,0,1.628a1.348,1.348,0,0,1-1.224,1.329,1.334,1.334,0,0,1-1.4-.96,1.615,1.615,0,0,1-.057-.443c0-1.577-.02-3.154,0-4.731a4.309,4.309,0,0,1,8.477-1.049,3.425,3.425,0,0,1,.134.841q.022,2.5.009,5a1.331,1.331,0,0,1-2.543.557,2.326,2.326,0,0,1-.136-.744c-.023-.434-.011-.87-.016-1.306A.551.551,0,0,0,721.717,367.539Zm-3.173-2.76h3.205a1.64,1.64,0,0,0-.756-1.727,1.507,1.507,0,0,0-1.694,0A1.638,1.638,0,0,0,718.544,364.779Z" transform="translate(-698.156 -354.947)"/><path class="c" d="M585.306,560.957c0-1.186,0-2.372,0-3.557a1.389,1.389,0,0,1,1.6-1.593c1.225,0,2.45-.01,3.675,0a3.267,3.267,0,0,1,2.9,4.983.528.528,0,0,0,0,.43,3.266,3.266,0,0,1-2.9,4.978c-1.255.012-2.51.007-3.765,0a1.354,1.354,0,0,1-1.5-1.506C585.3,563.449,585.307,562.2,585.306,560.957Zm2.717-1.316c.934,0,1.826.014,2.717-.007a.479.479,0,0,0,.5-.563c-.043-.208-.3-.517-.481-.528-.9-.054-1.809-.025-2.738-.025Zm.061,3.856c.795,0,1.625,0,2.455,0,.448,0,.717-.213.726-.553.01-.355-.267-.577-.746-.583-.536-.007-1.073,0-1.609,0-1.031,0-1.031,0-.886,1.052C588.028,563.423,588.042,563.435,588.085,563.5Z" transform="translate(-579.345 -533.022)"/></g></g></svg>