<svg xmlns="http://www.w3.org/2000/svg" width="90" height="90" viewBox="0 0 90 90"><defs><style>.a,.b{fill:none;}.a{stroke:#e6e9f3;stroke-width:2px;}.c{fill:#69a9f2;}.d{stroke:none;}</style></defs><g class="a"><circle class="d" cx="45" cy="45" r="45"/><circle class="b" cx="45" cy="45" r="44"/></g><g transform="translate(-534.239 -280.069)"><rect class="b" width="28" height="28" transform="translate(558.239 303.069)"/><g transform="translate(558.239 303.069)"><path class="c" d="M569.264,310.866v-.622c0-1.466-.007-2.932,0-4.4a2.639,2.639,0,0,1,2.756-2.772q7.5-.009,15.006,0a2.636,2.636,0,0,1,2.769,2.758c.01,1.466,0,2.932,0,4.4v.606c.233.011.416.028.6.028,1.725,0,3.45-.012,5.174.006a5.032,5.032,0,0,1,5.117,4.033,6.84,6.84,0,0,1,.114,1.388c.009,3.588,0,7.175.01,10.763a2.031,2.031,0,0,1-.994,1.962c-.131.077-.189.371-.19.566-.011,4.036-.006,8.072-.011,12.108a6.669,6.669,0,0,1-.064,1.134,5,5,0,0,1-5.141,4.24q-7.787.015-15.575,0-7.089,0-14.178,0a5,5,0,0,1-5.153-4.229,6.594,6.594,0,0,1-.065-1.133q-.007-6.028,0-12.056a.744.744,0,0,0-.395-.787,1.6,1.6,0,0,1-.791-1.481c0-3.846-.063-7.694.023-11.538a4.958,4.958,0,0,1,5.242-4.973c1.708-.014,3.415,0,5.123,0Zm-6.3,18.335v.535q0,5.975,0,11.951c0,1.322.531,1.861,1.838,1.861q14.745,0,29.489,0c1.269,0,1.813-.553,1.814-1.835q0-6,0-12c0-.166-.018-.331-.028-.495H584.854c0,1.2.008,2.352,0,3.505a1.788,1.788,0,0,1-1.994,1.979q-3.337.012-6.674,0a1.774,1.774,0,0,1-1.968-1.95c-.013-1,0-2,0-3,0-.182-.02-.365-.03-.548Zm34.327-3.579V325.1q0-4.423,0-8.845c0-1.324-.563-1.88-1.9-1.88H563.682c-1.359,0-1.905.552-1.906,1.923q0,4.371,0,8.742v.566h12.435c0-.746-.008-1.45,0-2.154a1.785,1.785,0,0,1,2-1.966q3.259,0,6.517,0c1.465,0,2.115.647,2.121,2.107,0,.668,0,1.337,0,2.027ZM572.808,310.83h13.441v-4.2H572.808Zm8.5,14.211h-3.545v6.1h3.545Z" transform="translate(-558.239 -303.069)"/></g></g></svg>