<svg xmlns="http://www.w3.org/2000/svg" width="90" height="90" viewBox="0 0 90 90"><defs><style>.a,.b{fill:none;}.a{stroke:#e6e9f3;stroke-width:2px;}.c{fill:#69a9f2;}.d{stroke:none;}</style></defs><g class="a"><circle class="d" cx="45" cy="45" r="45"/><circle class="b" cx="45" cy="45" r="44"/></g><g transform="translate(-749.803 -224.272)"><rect class="b" width="44" height="44" transform="translate(772.803 247.272)"/><g transform="translate(777.517 247.272)"><path class="c" d="M785.321,269.358a20.255,20.255,0,0,1-3.021-5.8,13.28,13.28,0,0,1-.271-8.722,11.327,11.327,0,0,1,21.607,6.752,20.021,20.021,0,0,1-3.3,7.406c-.079.111-.153.227-.251.374,1.678.812,3.333,1.621,5,2.413a7.771,7.771,0,0,1,3.5,3.185,8.185,8.185,0,0,1,.879,5.4c-.431,3.073-.816,6.152-1.221,9.229a1.74,1.74,0,0,1-1.878,1.668q-13.665.008-27.331,0a1.738,1.738,0,0,1-1.866-1.682q-.649-4.975-1.3-9.949a7.554,7.554,0,0,1,3.93-7.562c1.645-.867,3.339-1.641,5.011-2.458C784.957,269.542,785.109,269.464,785.321,269.358Zm15.166-10.844c-.036-.344-.067-.774-.129-1.2a7.764,7.764,0,0,0-15.421.882,12.454,12.454,0,0,0,.952,4.941,13.51,13.51,0,0,0,3.965,5.834,4.01,4.01,0,0,0,5.319.263,10.489,10.489,0,0,0,3.165-3.636A15.352,15.352,0,0,0,800.487,258.515Zm-5.061,29.2H804.9a1.849,1.849,0,0,0,.062-.229c.364-2.784.758-5.565,1.065-8.356a4.524,4.524,0,0,0-.29-1.912c-.616-1.757-2.236-2.3-3.767-3Zm-5.455.009L783.41,274.2c-.675.333-1.3.61-1.9.944a4.126,4.126,0,0,0-2.124,4.347c.248,1.757.459,3.518.689,5.278.129.984.261,1.968.393,2.959ZM786.6,272.7l4.235,8.727c.1-1.577.1-3.111.1-4.645a1.765,1.765,0,1,1,3.517.021c.006,1.4,0,2.793,0,4.19,0,.14.02.279.041.564l4.307-8.889a6.642,6.642,0,0,1-.817-.407.872.872,0,0,0-1.1.055,7.06,7.06,0,0,1-7.854.277,1.886,1.886,0,0,0-2.344.027C786.676,272.633,786.664,272.646,786.6,272.7Z" transform="translate(-775.803 -247.272)"/></g></g></svg>