<svg xmlns="http://www.w3.org/2000/svg" width="16" height="16" viewBox="0 0 16 16"><defs><style>.a{fill:#e6e9f3;}.b{fill:none;}</style></defs><g transform="translate(-542.917 -324.984)"><g transform="translate(542.917 324.984)"><path class="a" d="M568.978,314.135V312.3q0-1.317,0-2.633a.6.6,0,0,1,.682-.682h6.027c.486,0,.7.217.7.7q0,2.029,0,4.057v.384c.074,0,.136.009.2.009h3.18a.6.6,0,0,1,.682.681q0,4.594,0,9.188a.594.594,0,0,1-.676.667h-6.047a.609.609,0,0,1-.691-.7q0-2.107,0-4.213v-.227h-.708c0,.066,0,.135,0,.2q0,2.087,0,4.174c0,.552-.2.759-.746.759h-5.949c-.513,0-.719-.207-.719-.722q0-4.555,0-9.11c0-.49.212-.7.7-.7h3.363Zm-2.876,1.18v8.174h5.044v-3.953a.251.251,0,0,0-.05-.014l-1.385,0c-.525,0-.734-.208-.734-.73q0-1.639,0-3.277v-.2Zm13.165,8.18v-8.173h-2.876v.23q0,1.658,0,3.317a.59.59,0,0,1-.654.651c-.41,0-.819,0-1.229,0h-.283v3.975Zm-9.1-13.33v8.169h5.048v-8.169Z" transform="translate(-564.917 -308.984)"/><path class="a" d="M617.659,610.981c.363,0,.727,0,1.09,0a.587.587,0,1,1,0,1.169q-1.081,0-2.161,0a.586.586,0,1,1,0-1.169C616.946,610.978,617.3,610.981,617.659,610.981Z" transform="translate(-613.969 -599.196)"/><path class="a" d="M825.819,610.972c.363,0,.727,0,1.09,0a.586.586,0,1,1,0,1.169q-1.081,0-2.161,0a.587.587,0,1,1,0-1.17C825.1,610.97,825.462,610.972,825.819,610.972Z" transform="translate(-813.992 -599.187)"/><path class="a" d="M713.011,352.988a1.989,1.989,0,1,1,1.966,2A1.993,1.993,0,0,1,713.011,352.988Zm2.807.015a.818.818,0,1,0-.82.817A.826.826,0,0,0,715.819,353Z" transform="translate(-707.233 -349.372)"/><path class="a" d="M721.752,468.972c.363,0,.727,0,1.09,0a.585.585,0,1,1,.007,1.168q-1.1.007-2.2,0a.584.584,0,1,1-.007-1.167C721.013,468.967,721.383,468.972,721.752,468.972Z" transform="translate(-713.983 -462.728)"/></g><rect class="b" width="16" height="16" transform="translate(542.917 324.984)"/></g></svg>