<svg xmlns="http://www.w3.org/2000/svg" width="28" height="28" viewBox="0 0 28 28"><defs><style>.a{fill:#fff;}.b{fill:none;}</style></defs><g transform="translate(-521.75 -300.481)"><g transform="translate(521.75 302.481)"><path class="a" d="M537.754,306.5a4.952,4.952,0,0,1,2.95-1.893,5.935,5.935,0,0,1,1.184-.12c2.894-.01,5.787-.007,8.681-.005.826,0,1.181.362,1.181,1.2q0,11.171,0,22.343a2.092,2.092,0,0,1-.041.52,1.022,1.022,0,0,1-1.126.723H524.976c-.058,0-.117,0-.175,0a.992.992,0,0,1-1.048-1.069c-.006-1.67,0-3.34,0-5.01q0-8.739.007-17.478a1.711,1.711,0,0,1,.17-.776,1.013,1.013,0,0,1,1.006-.449c2.641,0,5.282,0,7.923.005a12.115,12.115,0,0,1,1.627.068,4.835,4.835,0,0,1,3.152,1.812C537.667,306.4,537.7,306.438,537.754,306.5Zm-12-.013v16.479h.363c2.379,0,4.758.006,7.136,0a5.435,5.435,0,0,1,2.713.647c.259.144.5.313.795.495v-.225q0-7.18,0-14.36a2.957,2.957,0,0,0-2.9-3.034c-2.669-.049-5.34-.017-8.01-.018A.6.6,0,0,0,525.753,306.489Zm24-.007c-.11-.006-.2-.016-.3-.016q-3.757,0-7.515,0a3.8,3.8,0,0,0-.724.056,3.029,3.029,0,0,0-2.471,3.087q0,7.107,0,14.214v.294c.1-.065.153-.1.2-.135a5.066,5.066,0,0,1,2.984-1.007c2.5-.011,4.99-.007,7.486-.009h.336Zm-23.994,18.484v2.3h10.817a.5.5,0,0,0-.008-.1,1.719,1.719,0,0,0-.074-.189,3.239,3.239,0,0,0-3.1-2.014c-2.456-.014-4.913,0-7.37,0C525.934,324.953,525.849,324.961,525.758,324.966Zm13.14,2.3h10.855v-2.3c-.089-.005-.165-.014-.24-.014-2.476,0-4.952-.005-7.427.006a3.407,3.407,0,0,0-.974.137A3.275,3.275,0,0,0,538.9,327.264Z" transform="translate(-523.75 -304.481)"/><path class="a" d="M603.039,401.043c-.591,0-1.183,0-1.774,0a.991.991,0,1,1,0-1.977q1.788-.013,3.577,0a.992.992,0,1,1,0,1.979c-.3,0-.6,0-.9,0Z" transform="translate(-595.753 -393.547)"/><path class="a" d="M603.092,531.923c.592,0,1.185,0,1.777,0a.991.991,0,1,1,0,1.979q-1.792.01-3.584,0a.991.991,0,1,1,0-1.978C601.888,531.92,602.49,531.923,603.092,531.923Z" transform="translate(-595.772 -518.668)"/><path class="a" d="M603.112,465.561c.64,0,1.28-.025,1.918.007a.962.962,0,0,1,.843,1.323.932.932,0,0,1-.749.615,1.745,1.745,0,0,1-.289.026c-1.163,0-2.326.008-3.489,0a.991.991,0,0,1-1.055-1.272.977.977,0,0,1,.989-.7c.61-.011,1.221,0,1.832,0Z" transform="translate(-595.787 -456.163)"/><path class="a" d="M832.844,401.024c-.6,0-1.2,0-1.8,0a.989.989,0,1,1-.015-1.976q1.818-.016,3.636,0a.99.99,0,1,1-.014,1.977C834.047,401.028,833.446,401.024,832.844,401.024Z" transform="translate(-812.151 -393.528)"/><path class="a" d="M832.765,467.648c-.6,0-1.2.015-1.8,0a.984.984,0,0,1-.978-1.325.876.876,0,0,1,.824-.634c1.308-.016,2.617-.02,3.925,0a.971.971,0,0,1,.037,1.93c-.667.037-1.337.009-2.005.009Z" transform="translate(-812.075 -456.279)"/><path class="a" d="M832.859,531.925c.6,0,1.2,0,1.8,0a.99.99,0,1,1,0,1.977q-1.818.012-3.637,0a.989.989,0,1,1,.024-1.977C831.656,531.921,832.258,531.925,832.859,531.925Z" transform="translate(-812.161 -518.669)"/></g><rect class="b" width="28" height="28" transform="translate(521.75 300.481)"/></g></svg>