<svg xmlns="http://www.w3.org/2000/svg" width="16" height="16" viewBox="0 0 16 16"><defs><style>.a{fill:none;}.b{fill:#fff;}</style></defs><g transform="translate(340.984 -542.917) rotate(90)"><rect class="a" width="16" height="16" transform="translate(542.917 324.984)"/><g transform="translate(543.194 324.984)"><path class="b" d="M1337.723,177.867v4.59c0,.06,0,.12,0,.18a.589.589,0,0,1-.353.571.547.547,0,0,1-.642-.127q-.846-.822-1.691-1.646l-3.113-3.034a.645.645,0,0,1,0-1.072q2.359-2.3,4.721-4.6a.953.953,0,0,1,.331-.231.575.575,0,0,1,.744.595c.006.722,0,1.443,0,2.165Q1337.723,176.565,1337.723,177.867Zm-4.654,0,3.476,3.388v-6.776Z" transform="translate(-1331.915 -169.806)"/><path class="b" d="M1275.268,106.639a.586.586,0,0,1-.583.588.6.6,0,0,1,.024-1.2A.589.589,0,0,1,1275.268,106.639Z" transform="translate(-1266.969 -106.026)"/><path class="b" d="M1275.276,147.638a.585.585,0,0,1-.58.591.6.6,0,0,1,.018-1.2A.588.588,0,0,1,1275.276,147.638Z" transform="translate(-1266.977 -145.383)"/><path class="b" d="M1275.276,188.63a.587.587,0,0,1-.568.6.6.6,0,0,1-.008-1.2A.587.587,0,0,1,1275.276,188.63Z" transform="translate(-1266.978 -184.745)"/><path class="b" d="M1275.278,229.641a.587.587,0,0,1-.582.59.6.6,0,0,1,.02-1.2A.589.589,0,0,1,1275.278,229.641Z" transform="translate(-1266.979 -224.097)"/><path class="b" d="M1275.278,270.642a.589.589,0,0,1-.583.59.6.6,0,0,1,.021-1.2A.59.59,0,0,1,1275.278,270.642Z" transform="translate(-1266.979 -263.453)"/><path class="b" d="M1274.7,312.235a.6.6,0,0,1,0-1.2.6.6,0,0,1,0,1.2Z" transform="translate(-1266.975 -302.812)"/><path class="b" d="M1275.279,352.627a.579.579,0,1,1-.581-.591A.592.592,0,0,1,1275.279,352.627Z" transform="translate(-1266.979 -342.169)"/><path class="b" d="M1274.7,393.034a.6.6,0,0,1-.013,1.2.6.6,0,0,1,.013-1.2Z" transform="translate(-1266.978 -381.523)"/><path class="b" d="M1275.277,434.649a.589.589,0,0,1-.587.585.6.6,0,0,1,.031-1.2A.591.591,0,0,1,1275.277,434.649Z" transform="translate(-1266.979 -420.878)"/><path class="b" d="M1275.277,475.649a.588.588,0,0,1-.587.585.6.6,0,0,1,.031-1.2A.59.59,0,0,1,1275.277,475.649Z" transform="translate(-1266.979 -460.233)"/><path class="b" d="M1089.216,177.915q0-2.345,0-4.69c0-.47.311-.764.709-.663a.732.732,0,0,1,.313.184q2.413,2.342,4.818,4.694a.619.619,0,0,1,0,.988q-2.4,2.344-4.8,4.684a.586.586,0,0,1-.687.166.629.629,0,0,1-.357-.651q0-2.355,0-4.71Zm4.655.019-3.477-3.388v6.776Z" transform="translate(-1079.581 -169.874)"/></g></g></svg>