<svg xmlns="http://www.w3.org/2000/svg" width="18" height="18" viewBox="0 0 18 18"><defs><style>.a{fill:none;}.b{fill:#69a9f2;}</style></defs><g transform="translate(-523.75 -304.481)"><rect class="a" width="18" height="18" transform="translate(523.75 304.481)"/><g transform="translate(523.75 305.481)"><path class="b" d="M532.753,305.78a3.184,3.184,0,0,1,1.9-1.217,3.816,3.816,0,0,1,.761-.077c1.86-.006,3.72,0,5.58,0,.531,0,.759.233.759.768q0,7.182,0,14.363a1.346,1.346,0,0,1-.026.334.657.657,0,0,1-.724.465H524.538c-.037,0-.075,0-.112,0a.638.638,0,0,1-.674-.687c0-1.074,0-2.147,0-3.221q0-5.618,0-11.236a1.1,1.1,0,0,1,.109-.5.652.652,0,0,1,.647-.289c1.7,0,3.4,0,5.094,0a7.786,7.786,0,0,1,1.046.044,3.108,3.108,0,0,1,2.026,1.165C532.7,305.717,532.717,305.739,532.753,305.78Zm-7.715-.008v10.594h.233c1.529,0,3.058,0,4.588,0a3.494,3.494,0,0,1,1.744.416c.167.092.324.2.511.318v-.145q0-4.616,0-9.232a1.9,1.9,0,0,0-1.867-1.95c-1.716-.032-3.433-.011-5.149-.012A.391.391,0,0,0,525.038,305.772Zm15.427,0c-.07,0-.131-.01-.192-.01q-2.416,0-4.831,0a2.443,2.443,0,0,0-.466.036,1.947,1.947,0,0,0-1.589,1.985q0,4.569,0,9.138v.189c.063-.042.1-.063.132-.087a3.257,3.257,0,0,1,1.918-.647c1.6-.007,3.208,0,4.812-.006h.216ZM525.041,317.65v1.477h6.954a.315.315,0,0,0-.005-.067,1.109,1.109,0,0,0-.048-.122,2.082,2.082,0,0,0-2-1.294c-1.579-.009-3.158,0-4.738,0C525.154,317.642,525.1,317.647,525.041,317.65Zm8.447,1.477h6.978v-1.476c-.058,0-.106-.009-.154-.009-1.592,0-3.183,0-4.775,0a2.19,2.19,0,0,0-.626.088A2.105,2.105,0,0,0,533.488,319.127Z" transform="translate(-523.75 -304.481)"/><path class="b" d="M602.028,400.335c-.38,0-.76,0-1.14,0a.637.637,0,1,1,0-1.271q1.15-.008,2.3,0a.638.638,0,1,1,0,1.272c-.193,0-.386,0-.579,0Z" transform="translate(-597.344 -395.516)"/><path class="b" d="M602.07,531.923c.381,0,.762,0,1.143,0a.637.637,0,1,1,0,1.272q-1.152.006-2.3,0a.637.637,0,1,1,0-1.272C601.3,531.92,601.682,531.923,602.07,531.923Z" transform="translate(-597.364 -523.401)"/><path class="b" d="M602.088,465.557c.411,0,.823-.016,1.233,0a.618.618,0,0,1,.542.85.6.6,0,0,1-.482.4,1.119,1.119,0,0,1-.186.016c-.748,0-1.5.005-2.243,0a.637.637,0,0,1-.678-.818.628.628,0,0,1,.636-.452c.392-.007.785,0,1.177,0Z" transform="translate(-597.38 -459.515)"/><path class="b" d="M831.828,400.314c-.386,0-.773,0-1.16,0a.636.636,0,1,1-.01-1.27q1.169-.011,2.338,0a.636.636,0,1,1-.009,1.271C832.6,400.317,832.214,400.314,831.828,400.314Z" transform="translate(-818.525 -395.496)"/><path class="b" d="M831.748,466.943c-.386,0-.773.01-1.159,0a.632.632,0,0,1-.629-.852.563.563,0,0,1,.53-.407c.841-.01,1.682-.013,2.523,0a.624.624,0,0,1,.024,1.241c-.428.024-.859.006-1.289.006Z" transform="translate(-818.447 -459.634)"/><path class="b" d="M831.841,531.925c.386,0,.773,0,1.16,0a.636.636,0,1,1,0,1.271q-1.169.008-2.338,0a.636.636,0,1,1,.016-1.271C831.068,531.922,831.454,531.925,831.841,531.925Z" transform="translate(-818.535 -523.403)"/></g></g></svg>