<svg xmlns="http://www.w3.org/2000/svg" xmlns:xlink="http://www.w3.org/1999/xlink" width="50" height="50" viewBox="0 0 50 50"><defs><style>.a{fill:#fff;stroke:#e6e9f3;stroke-width:2px;}.b{fill:#e6e9f3;}.c{stroke:none;}.d{fill:none;}.e{filter:url(#a);}</style><filter id="a" x="0" y="0" width="50" height="50" filterUnits="userSpaceOnUse"><feOffset dy="2" input="SourceAlpha"/><feGaussianBlur stdDeviation="3" result="b"/><feFlood flood-color="#3c4b9b" flood-opacity="0.078"/><feComposite operator="in" in2="b"/><feComposite in="SourceGraphic"/></filter></defs><g transform="translate(7 -8)"><g class="e" transform="matrix(1, 0, 0, 1, -7, 8)"><g class="a" transform="translate(9 7)"><circle class="c" cx="16" cy="16" r="16"/><circle class="d" cx="16" cy="16" r="15"/></g></g><circle class="b" cx="1.645" cy="1.645" r="1.645" transform="translate(11.711 24.795)"/><path class="b" d="M6.883,13.457,4.516,16.248c-.589.695-.326,1.263.585,1.263H18.66c.912,0,1.293-.651.848-1.446L15.419,8.752a.9.9,0,0,0-1.686-.041l-2.377,3.8a1.527,1.527,0,0,1-2.14.545A1.817,1.817,0,0,0,6.883,13.457Z" transform="translate(6.526 18.233)"/></g></svg>