<svg xmlns="http://www.w3.org/2000/svg" width="90" height="90" viewBox="0 0 90 90"><defs><style>.a,.d{fill:none;}.a{stroke:#e6e9f3;stroke-width:2px;}.b{fill:#69a9f2;}.c{stroke:none;}</style></defs><g class="a"><circle class="c" cx="45" cy="45" r="45"/><circle class="d" cx="45" cy="45" r="44"/></g><g transform="translate(-500.75 -278.481)"><g transform="translate(523.75 304.481)"><path class="b" d="M545.756,307.657a7.782,7.782,0,0,1,4.636-2.974,9.326,9.326,0,0,1,1.86-.189c4.547-.016,9.094-.011,13.641-.008,1.3,0,1.856.569,1.856,1.879q0,17.555,0,35.11a3.291,3.291,0,0,1-.064.816,1.607,1.607,0,0,1-1.77,1.136q-6.615,0-13.229,0H525.677c-.092,0-.183,0-.275,0a1.559,1.559,0,0,1-1.647-1.68c-.009-2.625,0-5.249,0-7.873q0-13.733.011-27.466a2.69,2.69,0,0,1,.267-1.22,1.593,1.593,0,0,1,1.581-.706c4.15.007,8.3,0,12.451.008a19.034,19.034,0,0,1,2.556.107,7.6,7.6,0,0,1,4.953,2.848C545.619,307.5,545.669,307.557,545.756,307.657Zm-18.859-.02v25.9h.57c3.738,0,7.476.009,11.214,0a8.541,8.541,0,0,1,4.264,1.017c.407.226.792.492,1.249.778v-.354q0-11.283,0-22.566a4.647,4.647,0,0,0-4.565-4.768c-4.194-.078-8.391-.026-12.587-.028A.953.953,0,0,0,526.9,307.637Zm37.712-.011c-.172-.01-.321-.025-.469-.025q-5.9,0-11.809,0a5.968,5.968,0,0,0-1.138.089,4.76,4.76,0,0,0-3.883,4.852q-.005,11.168,0,22.337v.461c.154-.1.24-.154.322-.213a7.96,7.96,0,0,1,4.689-1.582c3.921-.017,7.842-.011,11.763-.014h.528Zm-37.7,29.046v3.61h17a.773.773,0,0,0-.013-.163,2.719,2.719,0,0,0-.116-.3,5.09,5.09,0,0,0-4.878-3.164c-3.86-.021-7.721-.007-11.581-.006C527.182,336.652,527.049,336.664,526.9,336.672Zm20.649,3.611H564.61v-3.609c-.141-.008-.259-.022-.378-.022-3.89,0-7.781-.008-11.672.009a5.355,5.355,0,0,0-1.53.216A5.147,5.147,0,0,0,547.553,340.282Z" transform="translate(-523.75 -304.481)"/><path class="b" d="M604.656,402.177c-.929,0-1.858.006-2.788,0a1.557,1.557,0,1,1-.006-3.107q2.81-.02,5.621,0a1.559,1.559,0,1,1,.006,3.109c-.472.006-.944,0-1.417,0Z" transform="translate(-593.207 -390.398)"/><path class="b" d="M604.729,531.924c.931,0,1.862-.006,2.793,0a1.558,1.558,0,1,1,0,3.109q-2.816.015-5.632,0a1.558,1.558,0,1,1,0-3.109C602.836,531.918,603.782,531.924,604.729,531.924Z" transform="translate(-593.225 -511.094)"/><path class="b" d="M604.75,465.568c1.005,0,2.012-.039,3.015.011a1.512,1.512,0,0,1,1.324,2.079,1.465,1.465,0,0,1-1.177.967,2.736,2.736,0,0,1-.454.04c-1.828,0-3.655.013-5.483,0a1.557,1.557,0,0,1-1.658-2,1.534,1.534,0,0,1,1.555-1.1c.959-.017,1.919,0,2.878,0Z" transform="translate(-593.24 -450.8)"/><path class="b" d="M834.471,402.158c-.945,0-1.89.008-2.834,0a1.554,1.554,0,1,1-.024-3.105q2.857-.026,5.714,0a1.555,1.555,0,1,1-.021,3.106C836.361,402.165,835.416,402.158,834.471,402.158Z" transform="translate(-801.953 -390.379)"/><path class="b" d="M834.392,468.777c-.944,0-1.89.023-2.833-.006a1.546,1.546,0,0,1-1.537-2.082,1.376,1.376,0,0,1,1.3-1c2.056-.025,4.113-.032,6.168,0a1.525,1.525,0,0,1,.058,3.032c-1.047.058-2.1.014-3.151.014Z" transform="translate(-801.88 -450.911)"/><path class="b" d="M834.489,531.926c.945,0,1.89-.007,2.834,0a1.555,1.555,0,1,1,.008,3.107q-2.857.019-5.715,0a1.555,1.555,0,1,1,.038-3.106C832.6,531.92,833.544,531.926,834.489,531.926Z" transform="translate(-801.962 -511.096)"/></g></g></svg>