<svg xmlns="http://www.w3.org/2000/svg" width="16" height="16" viewBox="0 0 16 16"><defs><style>.a{fill:none;}.b,.c{fill:#fff;}.c,.d,.e{fill-rule:evenodd;}.d{fill:#ca4638;}.e{fill:#346da6;}</style></defs><g transform="translate(-8 -73.256)"><rect class="a" width="16" height="16" transform="translate(8 73.256)"/><g transform="translate(8 73.256)"><circle class="b" cx="8" cy="8" r="8"/><path class="c" d="M12.466,14a8.039,8.039,0,0,1,1.512,1.244H2.38A8.039,8.039,0,0,1,3.892,14Zm2.481,2.489a7.974,7.974,0,0,1,.641,1.244H.77a7.975,7.975,0,0,1,.641-1.244Zm1.033,2.489a7.994,7.994,0,0,1,.181,1.244H.2a7.994,7.994,0,0,1,.181-1.244Zm.167,2.489a7.978,7.978,0,0,1-.21,1.244H.42a7.978,7.978,0,0,1-.21-1.244Zm-.634,2.489a7.983,7.983,0,0,1-.681,1.244H1.526a7.983,7.983,0,0,1-.681-1.244ZM13.8,26.444a8.031,8.031,0,0,1-1.631,1.244H4.186a8.031,8.031,0,0,1-1.631-1.244Zm0,0" transform="translate(-0.179 -12.756)"/><path class="d" d="M8,3.733h6.768a8.034,8.034,0,0,0-.97-1.244H8ZM8,0a7.963,7.963,0,0,1,4.287,1.244H8ZM8,6.222h7.8a7.938,7.938,0,0,0-.392-1.244H8ZM0,8q0,.359.031.711H15.969Q16,8.36,16,8q0-.269-.017-.533H8V8ZM15.759,9.956a7.939,7.939,0,0,1-.425,1.244H.666A7.939,7.939,0,0,1,.241,9.956Zm-1.106,2.489a8.04,8.04,0,0,1-1.028,1.244H2.375a8.04,8.04,0,0,1-1.028-1.244Zm-2.659,2.489a8.01,8.01,0,0,1-7.988,0h7.988Zm0,0"/><path class="e" d="M8,0A8,8,0,0,0,0,8H8ZM8,0" transform="translate(0)"/><g transform="translate(0.622 0.8)"><path class="c" d="M23.392,18.663l-.243.137.046-.289-.2-.2.271-.042L23.392,18l.121.263.271.042-.2.2.046.289Z" transform="translate(-20.956 -16.4)"/><path class="c" d="M23.392,34.663l-.243.137.046-.289-.2-.2.271-.042L23.392,34l.121.263.271.042-.2.2.046.289Z" transform="translate(-20.956 -30.978)"/><path class="c" d="M12.392,28.663l-.243.137.046-.289-.2-.2.271-.042L12.392,28l.121.263.271.042-.2.2.046.289Z" transform="translate(-10.933 -25.511)"/><path class="c" d="M11.392,43.663l-.243.137.046-.289-.2-.2.271-.042L11.392,43l.121.263.271.042-.2.2.046.289Z" transform="translate(-10.022 -39.178)"/><path class="c" d="M21.392,53.663l-.243.137.046-.289-.2-.2.271-.042L21.392,53l.121.263.271.042-.2.2.046.289Z" transform="translate(-19.133 -48.289)"/><path class="c" d="M11.392,59.663l-.243.137.046-.289-.2-.2.271-.042L11.392,59l.121.263.271.042-.2.2.046.289Z" transform="translate(-10.022 -53.756)"/><path class="c" d="M.392,51.663.15,51.8.2,51.511l-.2-.2.271-.042L.392,51l.121.263.271.042-.2.2.046.289Z" transform="translate(0 -46.467)"/><path class="c" d="M.392,67.663.15,67.8.2,67.511l-.2-.2.271-.042L.392,67l.121.263.271.042-.2.2.046.289Z" transform="translate(0 -61.044)"/><path class="c" d="M23.392,67.663l-.243.137.046-.289-.2-.2.271-.042L23.392,67l.121.263.271.042-.2.2.046.289Z" transform="translate(-20.956 -61.044)"/><path class="c" d="M69.392.663,69.15.8,69.2.511l-.2-.2.271-.042L69.392,0l.121.263.271.042-.2.2L69.635.8Z" transform="translate(-62.867 0)"/><path class="c" d="M69.392,16.663l-.243.137.046-.289-.2-.2.271-.042L69.392,16l.121.263.271.042-.2.2.046.289Z" transform="translate(-62.867 -14.578)"/><path class="c" d="M69.392,32.663l-.243.137.046-.289-.2-.2.271-.042L69.392,32l.121.263.271.042-.2.2.046.289Z" transform="translate(-62.867 -29.156)"/><path class="c" d="M69.392,48.663l-.243.137.046-.289-.2-.2.271-.042L69.392,48l.121.263.271.042-.2.2.046.289Z" transform="translate(-62.867 -43.733)"/><path class="c" d="M57.392,9.663,57.15,9.8l.046-.289-.2-.2.271-.042L57.392,9l.121.263.271.042-.2.2.046.289Z" transform="translate(-51.933 -8.2)"/><path class="c" d="M57.392,25.663l-.243.137.046-.289-.2-.2.271-.042L57.392,25l.121.263.271.042-.2.2.046.289Z" transform="translate(-51.933 -22.778)"/><path class="c" d="M57.392,41.663l-.243.137.046-.289-.2-.2.271-.042L57.392,41l.121.263.271.042-.2.2.046.289Z" transform="translate(-51.933 -37.356)"/><path class="c" d="M57.392,57.663l-.243.137.046-.289-.2-.2.271-.042L57.392,57l.121.263.271.042-.2.2.046.289Z" transform="translate(-51.933 -51.933)"/><path class="c" d="M69.392,65.663l-.243.137.046-.289-.2-.2.271-.042L69.392,65l.121.263.271.042-.2.2.046.289Z" transform="translate(-62.867 -59.222)"/><path class="c" d="M47.392,2.663,47.15,2.8l.046-.289-.2-.2.271-.042L47.392,2l.121.263.271.042-.2.2.046.289Z" transform="translate(-42.822 -1.822)"/><path class="c" d="M47.392,18.663l-.243.137.046-.289-.2-.2.271-.042L47.392,18l.121.263.271.042-.2.2.046.289Z" transform="translate(-42.822 -16.4)"/><path class="c" d="M47.392,34.663l-.243.137.046-.289-.2-.2.271-.042L47.392,34l.121.263.271.042-.2.2.046.289Z" transform="translate(-42.822 -30.978)"/><path class="c" d="M47.392,50.663l-.243.137.046-.289-.2-.2.271-.042L47.392,50l.121.263.271.042-.2.2.046.289Z" transform="translate(-42.822 -45.556)"/><path class="c" d="M35.392,11.663l-.243.137.046-.289-.2-.2.271-.042L35.392,11l.121.263.271.042-.2.2.046.289Z" transform="translate(-31.889 -10.022)"/><path class="c" d="M35.392,27.663l-.243.137.046-.289-.2-.2.271-.042L35.392,27l.121.263.271.042-.2.2.046.289Z" transform="translate(-31.889 -24.6)"/><path class="c" d="M35.392,43.663l-.243.137.046-.289-.2-.2.271-.042L35.392,43l.121.263.271.042-.2.2.046.289Z" transform="translate(-31.889 -39.178)"/><path class="c" d="M35.392,59.663l-.243.137.046-.289-.2-.2.271-.042L35.392,59l.121.263.271.042-.2.2.046.289Z" transform="translate(-31.889 -53.756)"/><path class="c" d="M47.392,67.663l-.243.137.046-.289-.2-.2.271-.042L47.392,67l.121.263.271.042-.2.2.046.289Z" transform="translate(-42.822 -61.044)"/></g></g></g></svg>