<svg xmlns="http://www.w3.org/2000/svg" width="24" height="24" viewBox="0 0 24 24"><defs><style>.a{fill:none;}.b{fill:#e6e9f3;}</style></defs><rect class="a" width="24" height="24"/><g transform="translate(76.016 -145.001)"><rect class="a" width="16" height="16" transform="translate(-74.016 147.001)"/><g transform="translate(-74.016 147.001)"><path class="b" d="M-66.5,148.749l.594.032.161.011.515.087c.057.046.129.035.194.052l.39.109.175.066.432.178.088.044.43.233a.21.21,0,0,0,.12.076l.355.251.126.1.278.241.121.115.275.284.116.127.27.338.045.055c.023.071.059.11.145.083.231-.072.465-.137.7-.2a.319.319,0,0,0,.2-.035l.674-.071a.318.318,0,0,0,.2-.009l.6.026.159.01.516.082a.383.383,0,0,0,.2.048l.437.128.165.055.434.177.123.061.4.208a.207.207,0,0,0,.12.076l.309.2a.2.2,0,0,0,.112.082l.333.272.1.089.332.326a.185.185,0,0,0,.089.1l.236.283.121.158.221.329.1.152.2.359a.322.322,0,0,0,.079.165l.146.359.061.153a6.672,6.672,0,0,1,.309,1.733,6.3,6.3,0,0,1-.288,2.015l-.11.314a6.875,6.875,0,0,1-.849,1.433,9.738,9.738,0,0,1-.82.82,7.476,7.476,0,0,1-1.387.861l-.06.03a.012.012,0,0,0-.019.007,1.151,1.151,0,0,0-.318.12l-.755.2c-.418.039-.418.039-.37.358a2.608,2.608,0,0,0,0,.591c-.037.12-.007.184.132.155l.6,0,.2,0,.635,0,.161,0a2.441,2.441,0,0,1,.516.047l.158.083.24.236.073.121a1.244,1.244,0,0,1,.046.556,1,1,0,0,1-.6.6,4.773,4.773,0,0,1-.636.042h-.955c-.02,0-.039-.005-.059-.006-.561-.012-.561-.012-.513.559a.322.322,0,0,0,0,.208,2.629,2.629,0,0,1-.076.635,1.055,1.055,0,0,1-.354.375.872.872,0,0,1-1.068-.217l-.083-.119a1.4,1.4,0,0,1-.1-.516.391.391,0,0,0,0-.2,3.262,3.262,0,0,0,0-.594c.037-.138-.045-.136-.139-.12l-.635,0H-62.4a1.555,1.555,0,0,1-.513-.091l-.12-.076a1.753,1.753,0,0,1-.271-.334l-.036-.1a1.042,1.042,0,0,1,.05-.6,1.142,1.142,0,0,1,.373-.394,1.788,1.788,0,0,1,.675-.09l.2,0h.595l.2,0,.556-.006c.019,0,.03,0,.018-.025a3.053,3.053,0,0,0,0-.558.4.4,0,0,0,0-.2c.056-.2-.018-.3-.219-.308-.052,0-.1-.009-.155-.014a.232.232,0,0,0-.158-.04l-.434-.129-.165-.06-.434-.178-.123-.061-.4-.211a.213.213,0,0,0-.12-.076l-.3-.2-.11-.083-.335-.272-.128-.117-.277-.278-.116-.129-.271-.336-.045-.055c-.034-.109-.1-.141-.211-.1-.168.059-.342.1-.513.151l-.064.024h-.016l-.2.032-.673.076a.358.358,0,0,0-.2.014l-.595-.022-.161-.008-.556-.081a.16.16,0,0,0-.121-.034l-.514-.133c-.03-.039-.075-.037-.117-.042l-.395-.155a.328.328,0,0,0-.166-.076l-.395-.208-.121-.073-.3-.2-.168-.126-.278-.23-.166-.154-.241-.241-.155-.164-.236-.278-.064-.083-.288-.413-.041-.063-.215-.4L-71.7,157l-.176-.436-.067-.161-.126-.437-.041-.16-.081-.477a.367.367,0,0,0-.033-.2l-.02-.6q0-.1,0-.2l.057-.676a.33.33,0,0,0,.035-.2l.213-.8a1.18,1.18,0,0,0,.116-.316,6.969,6.969,0,0,1,.666-1.171c.054-.071.046-.118-.032-.155l-.074-.074a1.918,1.918,0,0,0-.324-.324l-.074-.074-.679-.635v1.275l-.037.2a.956.956,0,0,1-.565.56.409.409,0,0,0-.2.032,1.462,1.462,0,0,1-.473-.125l-.124-.1a1.023,1.023,0,0,1-.275-.762c.006-1.036,0-2.071,0-3.107a1.2,1.2,0,0,1,.1-.442,1.2,1.2,0,0,1,.345-.345,1.262,1.262,0,0,1,.54-.1c1,.006,2,.009,3,0a1.018,1.018,0,0,1,.76.276l.1.124a1.47,1.47,0,0,1,.125.474.41.41,0,0,0-.032.2.956.956,0,0,1-.558.567l-.2.037h-1.272l.633.68.075.075a1.916,1.916,0,0,0,.324.324l.074.074c.038.08.085.084.155.031a6.935,6.935,0,0,1,1.166-.675l.319-.12.836-.229.2-.025.674-.068Zm6.2,3.916c-.084.009-.168.014-.251.028-.467.082-.467.082-.333.524l.038.161.077.477a.475.475,0,0,0,.029.241l.012.529q0,.114,0,.227l-.082.716a.36.36,0,0,0-.038.2l-.248.837-.148.359a5.979,5.979,0,0,1-1.772,2.185c-.1.073-.042.116.018.166a.53.53,0,0,0,.153.171.812.812,0,0,0,.235.232.485.485,0,0,0,.169.152,1.566,1.566,0,0,0,.352.258l.06.037a1.281,1.281,0,0,0,.419.232l.124.066a1.525,1.525,0,0,0,.473.174.281.281,0,0,0,.155.05,1.745,1.745,0,0,0,.483.1l.154.019c.2.058.4-.057.6.012a.322.322,0,0,0,.2-.006,2.771,2.771,0,0,0,.754-.148,1.353,1.353,0,0,0,.363-.124,3.412,3.412,0,0,0,.67-.343A4.069,4.069,0,0,0-56,158.2a.9.9,0,0,0,.11-.32,2.566,2.566,0,0,0,.143-.755.372.372,0,0,0,.014-.2,1.967,1.967,0,0,0-.022-.6l-.016-.157a1.729,1.729,0,0,0-.1-.483.26.26,0,0,0-.049-.156,1.22,1.22,0,0,0-.163-.437.281.281,0,0,0-.078-.16.994.994,0,0,0-.2-.359.192.192,0,0,0-.075-.121,1.52,1.52,0,0,0-.273-.363l-.073-.079a1.24,1.24,0,0,0-.32-.322l-.133-.119a1.421,1.421,0,0,0-.316-.235l-.167-.106a1.271,1.271,0,0,0-.4-.2l-.113-.057a1.4,1.4,0,0,0-.44-.156.458.458,0,0,0-.2-.06,1.8,1.8,0,0,0-.476-.082.286.286,0,0,0-.163-.014,1.531,1.531,0,0,0-.591-.005A.318.318,0,0,0-60.3,152.665Zm-2.542,3.622a.99.99,0,0,0,.152-.36,2.506,2.506,0,0,0,.2-.836.442.442,0,0,0,.03-.238,2.7,2.7,0,0,0,0-.6.37.37,0,0,0-.025-.217,1.324,1.324,0,0,0-.08-.466c-.009-.054,0-.114-.042-.158a1.145,1.145,0,0,0-.128-.4.252.252,0,0,0-.075-.161,1.1,1.1,0,0,0-.2-.4.208.208,0,0,0-.073-.122,1.381,1.381,0,0,0-.248-.356.258.258,0,0,0-.1-.127,1.216,1.216,0,0,0-.326-.331l-.122-.111a1.251,1.251,0,0,0-.316-.245l-.127-.091a1.428,1.428,0,0,0-.4-.215l-.122-.066a1.389,1.389,0,0,0-.436-.167.158.158,0,0,0-.121-.039,1.661,1.661,0,0,0-.515-.115l-.154-.019a2.06,2.06,0,0,0-.6-.021l-.2.009a2.76,2.76,0,0,0-.753.151,1.015,1.015,0,0,0-.319.113,2.888,2.888,0,0,0-.744.364,3.835,3.835,0,0,0-1.642,2.025.6.6,0,0,0-.088.276,2.418,2.418,0,0,0-.149.8.43.43,0,0,0-.016.235,1.8,1.8,0,0,0,.021.561.231.231,0,0,0,.025.164,1.514,1.514,0,0,0,.093.475l.048.166a1.441,1.441,0,0,0,.173.437l.055.115a1.511,1.511,0,0,0,.218.406.216.216,0,0,0,.084.117,1.462,1.462,0,0,0,.282.369.176.176,0,0,0,.089.1,1.232,1.232,0,0,0,.31.3.258.258,0,0,0,.126.1,1.321,1.321,0,0,0,.355.248.208.208,0,0,0,.121.073,1.1,1.1,0,0,0,.4.2.251.251,0,0,0,.16.075,1.138,1.138,0,0,0,.4.129c.044.047.1.033.157.042a1.31,1.31,0,0,0,.465.08.366.366,0,0,0,.217.025,2.688,2.688,0,0,0,.6,0,.44.44,0,0,0,.238-.03,2.507,2.507,0,0,0,.834-.205.986.986,0,0,0,.359-.152A3.74,3.74,0,0,0-62.839,156.287Z" transform="translate(74.016 -147.001)"/><path class="b" d="M242.742,540.136a2.024,2.024,0,0,0-.577.589l-.2,0a4.252,4.252,0,0,1,.775-.792A.4.4,0,0,1,242.742,540.136Z" transform="translate(-229.399 -524.272)"/><path class="b" d="M261,559.071a.035.035,0,0,1,.018-.025C261.03,559.067,261.019,559.072,261,559.071Z" transform="translate(-247.677 -542.624)"/></g></g></svg>