<svg xmlns="http://www.w3.org/2000/svg" xmlns:xlink="http://www.w3.org/1999/xlink" width="22" height="22" viewBox="0 0 22 22"><defs><style>.a{clip-path:url(#a);}.b{fill:#479951;}.c{fill:#fff;}.d{fill:#ce6f2d;}.e{fill:#346da6;fill-rule:evenodd;}</style><clipPath id="a"><circle cx="11" cy="11" r="11"/></clipPath></defs><g class="a"><rect class="b" width="22" height="7" transform="translate(0 15)"/><rect class="c" width="22" height="8" transform="translate(0 7)"/><rect class="d" width="22" height="7"/><path class="e" d="M69.087,72.173A3.087,3.087,0,1,0,66,69.087,3.087,3.087,0,0,0,69.087,72.173Zm0-.283a2.8,2.8,0,1,0-2.8-2.8A2.8,2.8,0,0,0,69.087,71.89Zm-.043-2.267a.507.507,0,1,0-.507-.507A.507.507,0,0,0,69.043,69.623Zm0,2.233.087-1.522-.087-.725-.087.725Zm-.348.1a.127.127,0,1,0-.109-.142A.127.127,0,0,0,68.7,71.96Zm-.364-.2.478-1.447.1-.722-.272.677Zm-.663-.274.836-1.274.287-.671-.438.584Zm-.569-.437,1.137-1.014.451-.574-.574.451Zm-.437-.569,1.361-.686.584-.438-.671.287Zm-.274-.663,1.492-.31.677-.272-.722.1Zm-.094-.711,1.522.087.725-.087-.725-.087Zm.094-.711,1.447.478.722.1-.677-.272Zm.274-.663,1.274.836.671.287-.584-.438Zm.437-.569L68.115,68.3l.574.451-.451-.574Zm.569-.437.686,1.361.438.584L68.506,68Zm.663-.274.31,1.492.272.677-.1-.722Zm.711-.094-.087,1.522.087.725.087-.725Zm.711.094L69.276,67.9l-.1.722.272-.677Zm.663.274L69.581,68l-.287.671.438-.584Zm.569.437L69.849,68.18l-.451.574.574-.451Zm.437.569-1.361.686-.584.438.671-.287Zm.274.663-1.492.31-.677.272.722-.1Zm.094.711-1.522-.087-.725.087.725.087Zm-.094.711-1.447-.478-.722-.1.677.272Zm-.274.663-1.274-.836-.671-.287.584.438Zm-.437.569-1.014-1.137-.574-.451.451.574Zm-.569.437-.686-1.361-.438-.584.287.671Zm-.663.274-.31-1.492-.272-.677.1.722Zm-1.784.011a.127.127,0,1,0-.07-.165A.127.127,0,0,0,67.97,71.774Zm-.653-.368a.127.127,0,1,0-.025-.178A.127.127,0,0,0,67.317,71.405Zm-.536-.525A.127.127,0,1,0,66.8,70.7.127.127,0,0,0,66.782,70.88Zm-.381-.646a.127.127,0,1,0,.067-.166A.127.127,0,0,0,66.4,70.235Zm-.2-.722a.127.127,0,1,0,.108-.143A.127.127,0,0,0,66.2,69.512Zm-.007-.75a.127.127,0,1,0,.141-.11A.127.127,0,0,0,66.192,68.762Zm.187-.726a.127.127,0,1,0,.165-.07A.127.127,0,0,0,66.378,68.036Zm.368-.653a.127.127,0,1,0,.178-.025A.127.127,0,0,0,66.747,67.383Zm.525-.536a.127.127,0,1,0,.178.022A.127.127,0,0,0,67.272,66.847Zm.646-.381a.127.127,0,1,0,.166.067A.127.127,0,0,0,67.917,66.466Zm.722-.2a.127.127,0,1,0,.143.108A.127.127,0,0,0,68.64,66.265Zm.75-.007a.127.127,0,1,0,.11.141A.127.127,0,0,0,69.39,66.257Zm.726.187a.127.127,0,1,0,.07.165A.127.127,0,0,0,70.116,66.444Zm.653.368a.127.127,0,1,0,.025.178A.127.127,0,0,0,70.769,66.812Zm.536.525a.127.127,0,1,0-.022.178A.127.127,0,0,0,71.3,67.337Zm.381.646a.127.127,0,1,0-.067.166A.127.127,0,0,0,71.686,67.983Zm.2.722a.127.127,0,1,0-.108.143A.127.127,0,0,0,71.887,68.705Zm.007.75a.127.127,0,1,0-.141.11A.127.127,0,0,0,71.895,69.455Zm-.187.726a.127.127,0,1,0-.165.07A.127.127,0,0,0,71.708,70.181Zm-.368.653a.127.127,0,1,0-.178.025A.127.127,0,0,0,71.34,70.835Zm-.525.536a.127.127,0,1,0-.178-.022A.127.127,0,0,0,70.815,71.37Zm-.646.381A.127.127,0,1,0,70,71.684.127.127,0,0,0,70.169,71.752Zm-.722.2a.127.127,0,1,0-.143-.108A.127.127,0,0,0,69.447,71.953Zm0,0" transform="translate(-57.785 -57.785)"/></g></svg>