<svg xmlns="http://www.w3.org/2000/svg" width="28" height="28" viewBox="0 0 28 28"><defs><style>.a{fill:none;}</style></defs><g transform="translate(-328 -251)"><rect class="a" width="28" height="28" transform="translate(328 251)"/><g transform="translate(332.375 252.75)"><path d="M949.692,461.517c0-1.191-.005-2.423,0-3.634a1.229,1.229,0,0,0-.885-1.2c-2.852-1.164-5.754-2.353-8.464-3.465-.088-.036-.174-.081-.265-.129l-.134-.069L939.9,453h-.468l-.039.016-1.3.548c-.961.406-1.954.827-2.933,1.235-.935.39-1.888.783-2.81,1.163l-1.744.72c-.826.342-.971.56-.972,1.457q0,1.1,0,2.2c0,2.329,0,4.737,0,7.106a9.989,9.989,0,0,0,8.792,9.967.709.709,0,0,1,.136.04c.031.011.062.022.093.032l.03.01h2.03l.023-.005c.167-.037.338-.073.5-.108.361-.076.734-.154,1.1-.255a9.967,9.967,0,0,0,5.248-3.52,9.835,9.835,0,0,0,2.087-5.954C949.7,465.611,949.7,463.53,949.692,461.517Zm-2.019,3.4a30.1,30.1,0,0,1-.054,3.588,7.548,7.548,0,0,1-2.34,4.835,8.277,8.277,0,0,1-4.256,2.131,8.193,8.193,0,0,1-1.371.116,8.021,8.021,0,0,1-5.164-1.874,8.109,8.109,0,0,1-2.883-6.181c-.01-1.675-.008-3.379-.007-5.027,0-1.281,0-2.606,0-3.909,0-.2.035-.25.211-.323,1.147-.472,2.311-.955,3.436-1.422,1.39-.577,2.828-1.174,4.244-1.753a.568.568,0,0,1,.207-.034.672.672,0,0,1,.247.043c1.326.549,2.673,1.114,3.975,1.66,1.182.5,2.4,1.008,3.607,1.508.169.07.2.126.2.33-.008,1.161-.007,2.342-.006,3.483" transform="translate(-929.634 -453)"/><path d="M1035.679,618.641c-.83.839-1.672,1.7-2.485,2.524l-1.042,1.061-.781.794-.274.279-.587-.6c-.591-.6-1.149-1.167-1.72-1.739a1.056,1.056,0,0,0-1.5-.163.865.865,0,0,0-.258.621,1.271,1.271,0,0,0,.39.89c1.025,1.032,1.949,1.957,2.826,2.826a1.194,1.194,0,0,0,.833.4,1.158,1.158,0,0,0,.812-.384c1.625-1.618,3.31-3.3,5.152-5.151a1.225,1.225,0,0,0,.39-.881.873.873,0,0,0-.282-.63A1.069,1.069,0,0,0,1035.679,618.641Z" transform="translate(-1021.951 -609.645)"/></g></g></svg>