<svg xmlns="http://www.w3.org/2000/svg" width="50" height="50" viewBox="0 0 50 50"><defs><style>.a{fill:#f8f9fa;}.b{fill:#ef5350;}</style></defs><g transform="translate(-823 -597)"><circle class="a" cx="25" cy="25" r="25" transform="translate(823 597)"/><path class="b" d="M383.357,249.272c1.363,0,2.726-.013,4.089,0,.292,0,.4-.049.4-.39a6.592,6.592,0,0,1,2.276-4.964c.3-.263.259-.415.061-.7-1.5-2.122-2.971-4.26-4.473-6.378a1.186,1.186,0,0,1-.134-1.307,6.943,6.943,0,0,1,3.5-3.506,11.394,11.394,0,0,1,11.844.768,6.24,6.24,0,0,1,2.261,2.77,1.091,1.091,0,0,1-.118,1.177c-1.508,2.153-2.991,4.325-4.5,6.476-.221.315-.173.457.093.694a6.609,6.609,0,0,1,2.279,4.914c.011.351.108.423.43.419,2.678-.031,5.357-.033,8.036-.069a1.073,1.073,0,0,1,1.078.607,7.385,7.385,0,0,1,.757,5.194,12.028,12.028,0,0,1-6.977,9.134,6.287,6.287,0,0,1-3.952.463,1.022,1.022,0,0,1-.84-.749c-.888-2.625-1.8-5.242-2.676-7.871-.151-.454-.279-.645-.8-.479a5.6,5.6,0,0,1-3.374-.039c-.313-.1-.4,0-.5.28-.9,2.689-1.824,5.371-2.717,8.063a1.1,1.1,0,0,1-.93.833,7.137,7.137,0,0,1-5.385-1.238,12.267,12.267,0,0,1-5.573-8.688,7.19,7.19,0,0,1,.862-4.94.936.936,0,0,1,.9-.507c1.363.011,2.726,0,4.089,0Zm5.965-.289a5.075,5.075,0,1,0,5.066-5.227A5.159,5.159,0,0,0,389.322,248.982Z" transform="translate(453.598 374.27)"/></g></svg>