<svg xmlns="http://www.w3.org/2000/svg" width="28" height="28" viewBox="0 0 28 28"><defs><style>.a{fill:none;}</style></defs><g transform="translate(-328 -251)"><rect class="a" width="28" height="28" transform="translate(328 251)"/><g transform="translate(332.375 252.75)"><path d="M946.485,122.662a3.186,3.186,0,0,0-2.586-3.167c-.135-.028-.272-.044-.4-.06l-.025,0q0-.48,0-.957c0-.838,0-1.7,0-2.553a6.96,6.96,0,0,0-8.141-6.95,6.877,6.877,0,0,0-5.682,5.7,14.765,14.765,0,0,0-.106,2.031c0,.225,0,.458-.008.685-.011.508-.008,1-.006,1.529q0,.26,0,.523h-.014c-.119.01-.231.02-.343.04a3.21,3.21,0,0,0-2.658,3.193c-.01,2.462,0,4.966,0,7.387v.138a3.034,3.034,0,0,0,.08.67,3.186,3.186,0,0,0,3.2,2.5c.629,0,1.264,0,1.894,0h5.123c2.086,0,4.242,0,6.364,0a3.21,3.21,0,0,0,3.3-3.316v-.344C946.489,127.4,946.491,125.011,946.485,122.662Zm-18.1.165a1.488,1.488,0,0,1,.405-1.1,1.531,1.531,0,0,1,1.1-.429h.011c3.15.018,6.353.016,9.45.014h3.822a1.319,1.319,0,0,1,1.426,1.415c0,2.34,0,4.834,0,7.337a1.316,1.316,0,0,1-1.057,1.4,2.129,2.129,0,0,1-.422.027h-.041q-2.644,0-5.288,0h-7.93a1.33,1.33,0,0,1-1.467-1.48q0-.993,0-1.986C928.4,126.319,928.41,124.559,928.385,122.827Zm3.054-7.367a5.08,5.08,0,0,1,10.038-.66,5.45,5.45,0,0,1,.109,1.066c.01.867.008,1.75.006,2.6q0,.458,0,.917c0,.007,0,.014,0,.022H931.411c0-.386,0-.776-.005-1.154C931.4,117.337,931.391,116.388,931.44,115.46Z" transform="translate(-926.51 -108.874)"/><path d="M1083.609,396.312a.426.426,0,0,1,.19.438,1.261,1.261,0,0,0,0,.149q0,.027,0,.054v.131c0,.1,0,.2,0,.3a.877.877,0,0,0,.935.885h.007a.867.867,0,0,0,.921-.876c.012-.31.012-.568,0-.81a.18.18,0,0,1,.1-.188,1.628,1.628,0,0,0,.648-1.135,1.692,1.692,0,0,0-1.62-1.878,1.671,1.671,0,0,0-1.246.49,1.715,1.715,0,0,0-.5,1.307A1.533,1.533,0,0,0,1083.609,396.312Z" transform="translate(-1074.742 -378.302)"/></g></g></svg>