<svg width="24" height="24" viewBox="0 0 24 24" fill="none" xmlns="http://www.w3.org/2000/svg">
<path d="M21.22 16.956C21.7038 16.6519 22.1129 16.2427 22.4169 15.7589C22.7209 15.2751 22.9121 14.729 22.9763 14.1612C23.0405 13.5934 22.976 13.0185 22.7876 12.479C22.5992 11.9395 22.2917 11.4494 21.888 11.045L21.296 10.452C21.7333 9.69881 22.1031 8.90839 22.401 8.09001C23.309 5.54501 23.101 3.433 21.814 2.145C20.527 0.856999 18.421 0.645002 15.88 1.557C13.3128 2.57212 10.9937 4.12724 9.08002 6.117C1.18702 14.025 1.00002 21.51 0.996021 21.825C0.993887 21.9799 1.02278 22.1337 1.081 22.2773C1.13923 22.4209 1.2256 22.5513 1.33503 22.661L1.34803 22.675C1.46132 22.7848 1.59588 22.8703 1.74343 22.9262C1.89099 22.9821 2.0484 23.0072 2.20602 23C3.91856 22.8448 5.60127 22.4528 7.20602 21.835C11.2173 20.331 14.8492 17.9642 17.845 14.902C18.6173 14.1301 19.3337 13.3044 19.989 12.431L20.248 12.69C20.4047 12.8476 20.524 13.0383 20.5971 13.2482C20.6702 13.458 20.6952 13.6816 20.6702 13.9024C20.6452 14.1232 20.571 14.3356 20.4529 14.5239C20.3348 14.7121 20.176 14.8714 19.988 14.99L17.388 16.626C15.8561 17.5861 14.6466 18.9827 13.915 20.636C13.8531 20.7749 13.8192 20.9247 13.8151 21.0768C13.8111 21.2288 13.837 21.3802 13.8915 21.5222C13.946 21.6642 14.0279 21.7942 14.1325 21.9045C14.2372 22.0149 14.3626 22.1036 14.5015 22.1655C14.6405 22.2274 14.7902 22.2614 14.9423 22.2654C15.0944 22.2694 15.2457 22.2435 15.3877 22.189C15.5298 22.1346 15.6597 22.0527 15.7701 21.948C15.8804 21.8433 15.9691 21.7179 16.031 21.579C16.5758 20.3471 17.4768 19.3064 18.618 18.591L21.22 16.956ZM16.211 13.256C14.0878 15.4061 11.6307 17.1986 8.93502 18.564C7.33006 17.8874 6.05835 16.6027 5.39802 14.991C6.77781 12.3142 8.57383 9.87353 10.719 7.76C11.3252 7.15149 11.9688 6.58138 12.646 6.053C13.0911 7.26124 13.7926 8.35878 14.7021 9.27021C15.6116 10.1816 16.7077 10.8854 17.915 11.333C17.3868 12.0088 16.8177 12.6516 16.211 13.258V13.256ZM20.175 3.783C20.775 4.383 20.791 5.701 20.22 7.308C19.9649 8.00714 19.648 8.68215 19.273 9.325C18.1654 9.02358 17.1557 8.43783 16.3443 7.62585C15.5328 6.81387 14.9477 5.80386 14.647 4.696C17.135 3.256 19.316 2.923 20.174 3.783H20.175ZM3.48603 20.48C3.66411 19.5245 3.91757 18.5845 4.24402 17.669C4.80368 18.4536 5.48728 19.142 6.26802 19.707C5.36012 20.0309 4.43005 20.2889 3.48503 20.479L3.48603 20.48Z" fill="#69A9F2"/>
</svg>
