<svg width="121" height="34" viewBox="0 0 121 34" fill="none" xmlns="http://www.w3.org/2000/svg">
<path d="M35.6152 21.1208C35.5238 20.8792 35.3588 20.6724 35.1435 20.5296C34.9282 20.3867 34.6733 20.315 34.415 20.3245C32.6956 20.316 30.9762 20.3205 29.2568 20.3245C29.1587 20.3246 29.061 20.3362 28.9657 20.3591C28.65 20.4298 28.3708 20.613 28.1806 20.8744C27.9904 21.1358 27.9021 21.4576 27.9323 21.7793C27.9201 23.0577 27.635 24.3188 27.0959 25.4784C26.1798 27.4574 24.6507 29.0898 22.7345 30.1344C20.8183 31.1789 18.6165 31.5804 16.4543 31.2795C15.0489 31.11 13.6971 30.637 12.4932 29.8932C11.2892 29.1494 10.2619 28.1526 9.48254 26.9723C8.41321 25.4308 7.81726 23.6114 7.76767 21.7368C7.78072 21.5543 7.75572 21.3711 7.69423 21.1987C7.63274 21.0263 7.53612 20.8686 7.41047 20.7354C7.28481 20.6023 7.13286 20.4966 6.96423 20.4251C6.79559 20.3536 6.61394 20.3178 6.43075 20.32C4.72118 20.3109 3.01162 20.3109 1.30205 20.32C1.13066 20.3204 0.961017 20.3545 0.802825 20.4204C0.644633 20.4863 0.500976 20.5826 0.38007 20.704C0.259165 20.8253 0.163371 20.9692 0.0981592 21.1275C0.0329476 21.2858 -0.000406127 21.4554 3.73191e-06 21.6266C0.000413591 21.7978 0.0345801 21.9672 0.100549 22.1252C0.166518 22.2832 0.263002 22.4266 0.384486 22.5474C0.505971 22.6681 0.650086 22.7638 0.808592 22.8289C0.967097 22.894 1.13689 22.9274 1.30829 22.9269C1.91774 22.9337 2.52663 22.9269 3.13608 22.9269H5.22148C5.4873 25.0207 6.27297 27.0148 7.50703 28.728C8.74109 30.4412 10.3844 31.8192 12.2875 32.7365C14.1843 33.6634 16.2862 34.0925 18.395 33.9833C21.1358 33.876 23.7672 32.8815 25.8923 31.1497C27.1654 30.1513 28.2281 28.9112 29.0192 27.5008C29.8103 26.0905 30.3142 24.5377 30.5018 22.932H30.8326C32.0118 22.932 33.1904 22.932 34.3696 22.932C34.5568 22.9396 34.7434 22.906 34.9161 22.8336C35.0889 22.7613 35.2437 22.6519 35.3695 22.5132C35.5483 22.3342 35.6678 22.1047 35.7117 21.8556C35.7557 21.6066 35.722 21.3501 35.6152 21.1208Z" fill="#69A9F2"/>
<path d="M17.0002 10.8272C17.1797 11.0028 17.4074 11.1211 17.6544 11.1669C17.9014 11.2127 18.1565 11.1839 18.3871 11.0843C18.6177 10.9847 18.8133 10.8187 18.9491 10.6076C19.0848 10.3965 19.1545 10.1497 19.1492 9.89888C19.1566 8.46731 19.1492 7.03517 19.1492 5.6036C19.1492 4.1913 19.1492 2.77957 19.1492 1.36727C19.166 1.02076 19.0483 0.681131 18.8206 0.419124C18.6524 0.231849 18.4319 0.0990885 18.1875 0.0378917C17.9431 -0.023305 17.686 -0.0101419 17.4491 0.0756864C17.1886 0.171944 16.9663 0.349947 16.8156 0.58301C16.6649 0.816074 16.5939 1.09164 16.6132 1.3684C16.6087 4.19263 16.6087 7.01685 16.6132 9.84107C16.6038 10.0235 16.6335 10.2058 16.7002 10.3758C16.7669 10.5459 16.8692 10.6998 17.0002 10.8272Z" fill="#69A9F2"/>
<path d="M23.2173 12.6062C23.4989 12.6897 23.8008 12.6718 24.0705 12.5555C24.3402 12.4393 24.5604 12.2322 24.6927 11.9703C25.8397 9.92702 26.9809 7.88036 28.1162 5.8303C28.2845 5.54913 28.3375 5.21392 28.2643 4.89462C28.2055 4.64254 28.0704 4.41466 27.8774 4.24189C27.6844 4.06913 27.4429 3.95985 27.1856 3.92891C26.9283 3.89796 26.6677 3.94684 26.4392 4.06891C26.2106 4.19099 26.0253 4.38033 25.9082 4.61125C24.7699 6.64809 23.635 8.68701 22.5035 10.728C22.4093 10.9394 22.3334 11.1583 22.2765 11.3826C22.2894 11.6581 22.3866 11.923 22.5548 12.1417C22.7229 12.3605 22.9542 12.5226 23.2173 12.6062Z" fill="#69A9F2"/>
<path d="M10.5352 10.957C10.7451 11.3338 10.9443 11.7181 11.1775 12.0797C11.3063 12.2983 11.5025 12.4693 11.7368 12.5671C11.9711 12.6648 12.2308 12.6841 12.477 12.622C12.7163 12.5809 12.9374 12.4683 13.1114 12.2992C13.2853 12.13 13.4038 11.9122 13.4513 11.6745C13.4894 11.5019 13.4924 11.3234 13.4599 11.1497C13.4275 10.976 13.3603 10.8106 13.2624 10.6634C12.3794 9.07882 11.4963 7.49441 10.6129 5.9102C10.3405 5.42225 10.0812 4.92579 9.78103 4.4554C9.63339 4.23215 9.41609 4.06382 9.16287 3.97651C8.90964 3.8892 8.63463 3.88781 8.38053 3.97255C8.12261 4.06178 7.89667 4.22484 7.73088 4.44141C7.5651 4.65797 7.46679 4.91847 7.44819 5.19045C7.53165 5.44727 7.63152 5.69848 7.74723 5.94251C8.66822 7.61834 9.6017 9.2868 10.5352 10.957Z" fill="#69A9F2"/>
<path d="M2.38816 14.3341C3.93089 15.233 5.47665 16.1265 7.02543 17.0148C7.25245 17.122 7.488 17.2101 7.72965 17.2783C8.01653 17.2654 8.29262 17.1653 8.52099 16.9914C8.74936 16.8175 8.91912 16.5781 9.00758 16.3052C9.0974 16.0212 9.08509 15.7147 8.97279 15.4388C8.86048 15.1628 8.65522 14.9347 8.39244 14.7938C6.81888 13.87 5.24191 12.9513 3.65076 12.0576C3.39257 11.9212 3.10095 11.8609 2.80979 11.8836C2.53778 11.9084 2.28142 12.0216 2.08001 12.2059C1.8786 12.3901 1.74326 12.6353 1.69473 12.9037C1.63712 13.1851 1.67379 13.4776 1.7991 13.7361C1.92442 13.9946 2.13142 14.2047 2.38816 14.3341Z" fill="#69A9F2"/>
<path d="M26.7929 16.32C26.8832 16.5884 27.0516 16.8238 27.2765 16.9962C27.5013 17.1686 27.7725 17.2701 28.0555 17.2879C28.3212 17.2017 28.5811 17.0983 28.8335 16.9785C29.4781 16.6243 30.1091 16.2446 30.7458 15.8756C31.6373 15.3593 32.5322 14.8493 33.4197 14.3262C33.5769 14.2444 33.716 14.1316 33.8283 13.9946C33.9406 13.8576 34.0239 13.6992 34.073 13.5291C34.1222 13.3589 34.1363 13.1806 34.1144 13.0049C34.0925 12.8291 34.035 12.6597 33.9456 12.5068C33.8561 12.3539 33.7365 12.2208 33.594 12.1154C33.4515 12.0101 33.289 11.9348 33.1164 11.894C32.9439 11.8533 32.7649 11.848 32.5902 11.8784C32.4155 11.9089 32.2489 11.9745 32.1003 12.0712C31.101 12.6379 30.1108 13.2165 29.1183 13.7935C28.4992 14.1533 27.8699 14.4996 27.2707 14.8884C27.0441 15.041 26.8745 15.2642 26.7881 15.5231C26.7017 15.782 26.7034 16.0621 26.7929 16.32Z" fill="#69A9F2"/>
<path d="M52.4851 22.2229C51.0628 22.2229 49.9055 21.758 49.0133 20.8282C48.1211 19.892 47.675 18.6426 47.675 17.08V16.7507C47.675 15.7111 47.8722 14.7846 48.2666 13.971C48.6674 13.151 49.2234 12.5117 49.9346 12.0533C50.6522 11.5884 51.4281 11.3559 52.2621 11.3559C53.6262 11.3559 54.6865 11.8047 55.4429 12.7022C56.1994 13.5997 56.5776 14.8847 56.5776 16.557V17.3028H49.4691C49.495 18.3359 49.7956 19.172 50.371 19.8113C50.9529 20.4441 51.6899 20.7605 52.5821 20.7605C53.2157 20.7605 53.7523 20.6313 54.1919 20.373C54.6316 20.1148 55.0162 19.7725 55.346 19.3464L56.4418 20.1987C55.5625 21.5482 54.2436 22.2229 52.4851 22.2229ZM52.2621 12.8281C51.538 12.8281 50.9302 13.0929 50.4389 13.6223C49.9475 14.1453 49.6437 14.8814 49.5273 15.8306H54.7835V15.695C54.7318 14.7846 54.4861 14.0808 54.0465 13.5836C53.6068 13.0799 53.012 12.8281 52.2621 12.8281Z" fill="#69A9F2"/>
<path d="M58.2262 16.7023C58.2262 15.0945 58.6076 13.8031 59.3705 12.8281C60.1334 11.8467 61.1323 11.3559 62.3672 11.3559C63.5955 11.3559 64.5686 11.7756 65.2862 12.615V7.15248H67.0803V22.0292H65.4317L65.3444 20.9057C64.6267 21.7839 63.6279 22.2229 62.3478 22.2229C61.1323 22.2229 60.1399 21.7258 59.3705 20.7314C58.6076 19.737 58.2262 18.4392 58.2262 16.8379V16.7023ZM60.0203 16.9057C60.0203 18.0937 60.266 19.0235 60.7573 19.6951C61.2487 20.3666 61.9275 20.7023 62.7939 20.7023C63.9317 20.7023 64.7625 20.1922 65.2862 19.172V14.3584C64.7496 13.3705 63.9253 12.8765 62.8133 12.8765C61.934 12.8765 61.2487 13.2155 60.7573 13.8935C60.266 14.5715 60.0203 15.5755 60.0203 16.9057Z" fill="#69A9F2"/>
<path d="M76.3514 20.9929C75.6531 21.8129 74.6284 22.2229 73.2772 22.2229C72.1587 22.2229 71.3053 21.9001 70.717 21.2544C70.1351 20.6023 69.8409 19.6402 69.8345 18.3682V11.5496H71.6285V18.3197C71.6285 19.9081 72.2751 20.7023 73.5681 20.7023C74.9387 20.7023 75.8503 20.1922 76.3029 19.172V11.5496H78.097V22.0292H76.3902L76.3514 20.9929Z" fill="#69A9F2"/>
<path d="M81.7142 22.0292V12.9347H80.0559V11.5496H81.7142V10.4746C81.7142 9.35107 82.0149 8.48261 82.6161 7.8692C83.2174 7.2558 84.0676 6.94909 85.1667 6.94909C85.5804 6.94909 85.991 7.00398 86.3983 7.11374L86.3013 8.56655C85.9974 8.50844 85.6742 8.47938 85.3315 8.47938C84.7497 8.47938 84.3003 8.65049 83.9835 8.99271C83.6667 9.32847 83.5083 9.81274 83.5083 10.4455V11.5496H85.7485V12.9347H83.5083V22.0292H81.7142Z" fill="#69A9F2"/>
<path d="M92.8085 13.1574C92.537 13.1122 92.2428 13.0896 91.926 13.0896C90.7494 13.0896 89.9509 13.59 89.5307 14.5909V22.0292H87.7366V11.5496H89.4822L89.5113 12.7603C90.0996 11.8241 90.9336 11.3559 92.0133 11.3559C92.3624 11.3559 92.6275 11.4011 92.8085 11.4915V13.1574Z" fill="#69A9F2"/>
<path d="M93.7977 16.6926C93.7977 15.6659 93.9981 14.7426 94.399 13.9226C94.8063 13.1025 95.3687 12.4698 96.0864 12.0242C96.8105 11.5787 97.6348 11.3559 98.5593 11.3559C99.9881 11.3559 101.142 11.8499 102.021 12.8378C102.907 13.8257 103.35 15.1397 103.35 16.7798V16.9057C103.35 17.9259 103.153 18.8427 102.758 19.6563C102.371 20.4634 101.811 21.093 101.081 21.545C100.357 21.997 99.5226 22.2229 98.5787 22.2229C97.1564 22.2229 96.0023 21.729 95.1166 20.7411C94.2373 19.7532 93.7977 18.4456 93.7977 16.8185V16.6926ZM95.6015 16.9057C95.6015 18.0679 95.8698 19.0009 96.4064 19.7047C96.9495 20.4085 97.6736 20.7605 98.5787 20.7605C99.4903 20.7605 100.214 20.4053 100.751 19.6951C101.288 18.9783 101.556 17.9775 101.556 16.6926C101.556 15.5433 101.281 14.6135 100.732 13.9032C100.189 13.1865 99.4644 12.8281 98.5593 12.8281C97.6736 12.8281 96.9592 13.18 96.4161 13.8838C95.873 14.5876 95.6015 15.5949 95.6015 16.9057Z" fill="#69A9F2"/>
<path d="M107.297 11.5496L107.355 12.8669C108.157 11.8596 109.204 11.3559 110.497 11.3559C112.715 11.3559 113.833 12.6054 113.853 15.1042V22.0292H112.059V15.0945C112.052 14.339 111.878 13.7805 111.535 13.4189C111.199 13.0573 110.672 12.8765 109.954 12.8765C109.372 12.8765 108.862 13.0315 108.422 13.3414C107.982 13.6514 107.64 14.0582 107.394 14.5618V22.0292H105.6V11.5496H107.297Z" fill="#69A9F2"/>
<path d="M118.993 9.01208V11.5496H120.952V12.9347H118.993V19.4336C118.993 19.8533 119.08 20.1696 119.254 20.3827C119.429 20.5893 119.726 20.6927 120.147 20.6927C120.353 20.6927 120.638 20.6539 121 20.5764V22.0292C120.528 22.1584 120.069 22.2229 119.623 22.2229C118.821 22.2229 118.217 21.9808 117.809 21.4965C117.402 21.0123 117.198 20.3246 117.198 19.4336V12.9347H115.288V11.5496H117.198V9.01208H118.993Z" fill="#69A9F2"/>
</svg>
