<svg xmlns="http://www.w3.org/2000/svg" width="16" height="16" viewBox="0 0 16 16"><defs><style>.a{fill:none;}.b{fill:#346da6;}.c{fill:#fff;}.c,.d{fill-rule:evenodd;}.d{fill:#ca4638;}</style></defs><g transform="translate(-8 -73.256)"><rect class="a" width="16" height="16" transform="translate(8 73.256)"/><g transform="translate(8 73.256)"><circle class="b" cx="8" cy="8" r="8"/><path class="c" d="M29.681,18.524a8.042,8.042,0,0,0-.863-1.021l0,0a8.042,8.042,0,0,0-1.021-.863L16.639,27.8a8.042,8.042,0,0,0,.863,1.021l0,0a8.042,8.042,0,0,0,1.021.863Zm0,0" transform="translate(-15.16 -15.16)"/><path class="c" d="M27.8,29.681a8.042,8.042,0,0,0,1.021-.863l0,0a8.042,8.042,0,0,0,.863-1.021L18.524,16.639A8.042,8.042,0,0,0,17.5,17.5l0,0a8.042,8.042,0,0,0-.863,1.021Zm0,0" transform="translate(-15.16 -15.16)"/><path class="d" d="M96.614-91.014a8.047,8.047,0,0,1-.594.663L90.4-95.969l.629-.629Zm0,0" transform="translate(-82.366 104.011)"/><path class="d" d="M26.988-87.941a8.046,8.046,0,0,1-.663-.594L32.387-94.6l.629.629Zm0,0" transform="translate(-23.985 102.189)"/><path class="d" d="M93.541-160.287a8.05,8.05,0,0,1,.663.594l-5.174,5.174-.629-.629Zm0,0" transform="translate(-80.544 162.04)"/><path class="d" d="M19.713-153.012a8.047,8.047,0,0,1,.594-.663l5.085,5.085-.629.629Zm0,0" transform="translate(-17.96 156.015)"/><path class="c" d="M15.889,77.667a8.092,8.092,0,0,0,0-2.667H.111a8.091,8.091,0,0,0,0,2.667Zm0,0" transform="translate(0 -68.333)"/><path class="c" d="M77.667,15.889a8.092,8.092,0,0,1-2.667,0V.111a8.091,8.091,0,0,1,2.667,0Zm0,0" transform="translate(-68.333)"/><path class="d" d="M15.951,81.778a8.116,8.116,0,0,0,0-1.778H.049a8.116,8.116,0,0,0,0,1.778Zm0,0" transform="translate(0 -72.889)"/><path class="d" d="M81.778,15.951a8.116,8.116,0,0,1-1.778,0V.049a8.116,8.116,0,0,1,1.778,0Zm0,0" transform="translate(-72.889)"/></g></g></svg>